<?xml version="1.0" encoding="utf-8"?>
<!-- Generator: Adobe Illustrator 28.0.0, SVG Export Plug-In . SVG Version: 6.00 Build 0)  -->
<svg version="1.1" xmlns="http://www.w3.org/2000/svg" xmlns:xlink="http://www.w3.org/1999/xlink" x="0px" y="0px"
	 viewBox="0 0 162 156" style="enable-background:new 0 0 162 156;" xml:space="preserve">
<g id="Layer_1">
</g>
<g id="KICK">
</g>
<g id="SNARE">
</g>
<g id="BASS">
	<path d="M79.14,32.99c5.9,0.05,11.87,0.89,17.56,3.32c2.6,1.11,4.9,2.67,6.94,4.63c2.74,2.63,4.01,5.9,4.2,9.63
		c0.29,5.51-0.71,10.82-2.53,15.99c-3.21,9.1-7.75,17.51-13.52,25.25c-2.4,3.22-5.19,6.07-8.29,8.62c-0.79,0.65-1.74,1.13-2.68,1.56
		c-1.29,0.59-2.62,0.54-3.96,0.03c-1.75-0.67-3.23-1.73-4.63-2.93c-3.3-2.82-6.09-6.11-8.61-9.62
		c-6.25-8.72-10.92-18.19-13.54-28.62c-0.88-3.52-1.13-7.09-0.84-10.7c0.36-4.5,2.4-8.02,6.02-10.7c3.6-2.67,7.72-4.12,12-5.18
		C71.08,33.3,75,33.13,79.14,32.99z M81.21,54.74c-0.31-0.29-0.5-0.44-0.66-0.61c-0.6-0.66-1.24-0.99-2.07-0.37
		c-0.12,0.09-0.31,0.08-0.46,0.11c-0.68,0.14-1.26,0.03-1.69-0.57c-0.44-0.63-0.65-1.25-0.26-2c0.49-0.95,1.09-1.75,2.07-2.25
		c0.8-0.41,1.53-0.38,2.25,0.13c0.73,0.51,0.73,1.27,0.41,1.93c-0.43,0.89-0.12,1.5,0.43,2.15c0.53,0.63,0.81,0.71,1.32,0.19
		c1.29-1.31,2.57-2.62,3.84-3.95c0.77-0.81,0.72-0.87-0.23-1.63c-0.63-0.5-1.15-0.62-1.93-0.22c-0.93,0.47-1.48,0.26-2.09-0.46
		c-0.58-0.67-0.63-1.35-0.15-2.2c0.53-0.94,1.34-1.62,2.33-1.98c0.76-0.28,1.58-0.3,2.24,0.35c0.62,0.61,0.45,1.27,0.17,1.98
		c-0.31,0.81,0,1.64,0.79,2.21c0.63,0.47,1.01-0.19,1.46-0.43c0.56-0.3,1.1-0.65,1.66-0.95c1.05-0.55,2.17-0.55,3.27-0.24
		c2.72,0.76,4.25,2.86,4.35,5.63c0.1,2.8-1.35,5.22-4.18,5.93c-0.31,0.08-0.62,0.16-0.93,0.23c-2.1,0.51-3.24,1.86-3.63,3.97
		c-0.45,2.43-0.94,4.86-1.5,7.27c-0.36,1.55-0.89,3.06-1.34,4.59c-0.49,1.65-1.63,2.5-3.31,2.68c-0.56,0.06-1.12,0.07-1.67,0.19
		c-1.92,0.43-3.62,1.18-4.7,2.98c-2.42,4.04-4.88,8.06-7.33,12.08c-0.31,0.5-0.23,0.91,0.15,1.28c1.25,1.23,2.48,2.49,3.8,3.65
		c0.77,0.68,1.67,1.24,2.54,1.79c1.81,1.13,3.63,1.13,5.36-0.17c1.02-0.77,2.05-1.54,2.96-2.43c4.65-4.57,8.49-9.74,11.63-15.45
		c3.09-5.62,5.69-11.44,7.38-17.63c0.99-3.62,1.78-7.29,1.53-11.1c-0.28-4.14-1.84-7.55-5.35-9.94c-2.53-1.72-5.25-3.08-8.18-3.9
		c-8.92-2.5-17.83-2.34-26.68,0.38c-3.32,1.02-6.33,2.62-8.96,4.92c-2.29,2-3.48,4.56-3.69,7.54c-0.17,2.39-0.12,4.78,0.29,7.17
		c0.55,3.24,1.33,6.4,2.45,9.49c1.84,5.04,4.13,9.87,6.83,14.49c0.43,0.73,0.79,1.55,1.73,2.04c1.48-2.26,2.87-4.5,4.37-6.66
		c1-1.45,1.11-2.77-0.09-4.12c-0.11-0.12-0.18-0.26-0.26-0.4c-0.92-1.63-0.86-2.48,0.29-3.93c0.49-0.62,1.02-1.2,1.55-1.82
		c-0.9-1.02-1.67-1.54-2.97-0.76c-1.02,0.61-2.33-0.35-2.3-1.52c0.03-1.41,1.56-3.19,2.93-3.42c1.36-0.23,2.56,0.9,1.98,2.08
		c-0.55,1.13-0.08,1.79,0.5,2.54c0.29,0.38,0.68,0.41,1.02,0.07c1.29-1.31,2.57-2.62,3.84-3.95c0.31-0.32,0.82-0.67,0.4-1.19
		c-0.39-0.49-0.85-0.99-1.59-0.87c-0.23,0.04-0.43,0.21-0.66,0.26c-1.05,0.26-1.92,0.02-2.31-0.71c-0.41-0.77-0.37-1.61,0.21-2.24
		c0.63-0.69,1.38-1.31,2.17-1.82c0.66-0.43,1.38-0.22,1.98,0.3c0.69,0.6,0.71,0.99,0.12,2.33c-0.35,0.78-0.05,1.54,0.9,2.1
		c0.57,0.34,0.85-0.19,1.18-0.5c0.58-0.54,1.18-1.08,1.73-1.66C79.38,56.74,80.28,55.75,81.21,54.74z M67.95,90.23
		c0.14,0.06,0.27,0.12,0.41,0.18c0.2-0.24,0.43-0.47,0.59-0.73c3.58-5.94,7.15-11.9,10.73-17.84c3.37-5.6,6.77-11.19,10.14-16.79
		c0.28-0.47,0.55-0.99,0.65-1.51c0.17-0.94-0.74-1.9-1.7-1.93c-0.75-0.02-1.47,0.68-1.58,1.52c-0.09,0.64,0.21,1.07,0.71,1.4
		c0.68,0.46,0.65,1.02,0.26,1.65c-0.66,1.09-1.32,2.18-1.98,3.27c-2.93,4.85-5.86,9.69-8.78,14.55c-2.87,4.79-5.72,9.59-8.57,14.4
		C68.48,88.97,68.24,89.61,67.95,90.23z M66.94,88.75c0.13-0.08,0.31-0.12,0.4-0.24c0.42-0.58,0.83-1.17,1.2-1.78
		c2.31-3.82,4.61-7.64,6.89-11.47c2.49-4.18,4.94-8.37,7.43-12.55c0.53-0.89,1.18-1.7,1.73-2.57c0.42-0.67,0.38-1.37-0.08-2.01
		c-0.43-0.6-1.05-0.67-1.71-0.58c-1.16,0.16-1.77,1.24-1.28,2.3c0.13,0.28,0.34,0.55,0.58,0.75c0.54,0.47,0.44,0.98,0.15,1.5
		c-0.86,1.53-1.71,3.06-2.61,4.56c-4.02,6.7-8.06,13.38-12.08,20.07c-0.33,0.54-0.57,1.14-0.83,1.72
		C66.7,88.51,66.87,88.65,66.94,88.75z M77.27,66.8c-0.38,0.73-0.57,1.16-0.81,1.56c-3.44,5.66-6.88,11.31-10.31,16.97
		c-0.25,0.41-0.48,0.83-0.64,1.27c-0.06,0.16,0.11,0.41,0.17,0.61c0.13-0.06,0.31-0.09,0.39-0.19c0.2-0.25,0.35-0.53,0.52-0.8
		c3.21-5.33,6.41-10.66,9.63-15.99c0.87-1.43,1.78-2.84,2.65-4.27c0.49-0.81,0.32-1.56-0.38-2.11c-0.77-0.6-1.73-0.52-2.34,0.23
		c-0.46,0.56-0.72,1.49,0.14,2.1C76.6,66.41,76.95,66.6,77.27,66.8z M64.39,85.46c0.2-0.09,0.47-0.13,0.57-0.29
		c1.16-1.8,2.32-3.61,3.42-5.44c1.47-2.45,2.9-4.92,4.34-7.39c0.2-0.34,0.39-0.7,0.49-1.08c0.24-0.96-0.49-2.01-1.42-2.1
		c-1.06-0.1-1.84,0.57-1.89,1.66c-0.03,0.57,0.14,1.05,0.57,1.49c0.89,0.92,0.9,0.98,0.31,1.93c-1.96,3.18-3.95,6.33-5.92,9.5
		c-0.25,0.4-0.46,0.81-0.65,1.24C64.16,85.08,64.31,85.26,64.39,85.46z"/>
	<path d="M56.47,117.24c0-1.52-0.02-3.03,0.01-4.55c0.02-0.75,0.28-1.03,1.01-1.04c1.92-0.04,3.84-0.11,5.75,0
		c1.83,0.11,2.53,0.93,2.49,2.81c-0.03,1.36-0.05,2.67,0.3,4.01c0.21,0.81,0.08,1.75-0.06,2.61c-0.18,1.12-1.01,1.84-2.15,1.86
		c-2.15,0.04-4.31,0.01-6.47-0.01c-0.59,0-0.86-0.36-0.86-0.92c-0.01-1.6,0-3.19,0-4.79C56.48,117.24,56.47,117.24,56.47,117.24z
		 M61.32,120.69c0.63,0,1.26,0.03,1.89-0.01c0.64-0.04,0.93-0.44,0.9-1.13c-0.03-0.78-0.33-1.2-1.11-1.26
		c-1.17-0.08-2.36-0.05-3.54-0.04c-0.45,0.01-0.71,0.32-0.77,0.75c-0.19,1.32,0.03,1.7,1.22,1.68
		C60.37,120.69,60.84,120.69,61.32,120.69z M61.06,113.81c0,0.01,0,0.02,0,0.03c-0.56,0-1.11-0.02-1.67,0.01
		c-0.46,0.02-0.72,0.3-0.75,0.76c-0.12,1.5,0.32,1.64,1.39,1.6c0.87-0.03,1.75-0.02,2.62-0.11c0.74-0.08,1.02-0.53,0.97-1.37
		c-0.04-0.65-0.29-0.86-1.12-0.91C62.02,113.79,61.54,113.81,61.06,113.81z"/>
	<path d="M84.28,122.96c-0.88,0-1.76,0.02-2.64-0.01c-1.12-0.04-1.7-0.77-2.03-1.74c-0.23-0.68,0.25-1.29,0.98-1.24
		c0.23,0.01,0.52,0,0.69,0.12c1.53,1.1,3.25,0.45,4.89,0.56c0.55,0.04,0.86-0.32,0.88-0.9c0.03-0.76-0.2-1.24-0.77-1.28
		c-0.95-0.07-1.91-0.01-2.87-0.06c-0.79-0.04-1.6-0.08-2.36-0.26c-0.85-0.19-1.35-0.82-1.49-1.69c-0.05-0.31-0.08-0.64-0.09-0.95
		c-0.08-2.61,0.43-4.07,3.69-3.94c0.96,0.04,1.92-0.04,2.88,0.03c0.62,0.05,1.27,0.18,1.84,0.44c0.4,0.18,0.85,0.58,0.97,0.98
		c0.15,0.47,0.17,1.18-0.09,1.55c-0.33,0.47-1.14,0.42-1.52,0.04c-1.51-1.52-3.31-0.61-4.98-0.68c-0.59-0.02-0.61,0.65-0.63,1.12
		c-0.02,0.52,0.19,0.97,0.75,1.07c0.55,0.09,1.11,0.07,1.67,0.09c0.96,0.03,1.92,0.01,2.87,0.07c0.86,0.05,1.63,0.45,1.89,1.26
		c0.45,1.38,0.54,2.81-0.06,4.2c-0.39,0.9-1.05,1.35-2.07,1.29c-0.8-0.05-1.6-0.01-2.4-0.01C84.28,122.99,84.28,122.97,84.28,122.96
		z"/>
	<path d="M95.66,122.95c-0.88,0-1.75,0.01-2.63,0c-0.7-0.01-1.19-0.37-1.57-0.93c-0.38-0.56-0.54-1.17-0.24-1.8
		c0.19-0.4,1.09-0.51,1.75-0.06c1.56,1.05,3.24,0.41,4.87,0.42c0.22,0,0.55-0.51,0.64-0.84c0.13-0.47,0.03-0.99-0.5-1.2
		c-0.29-0.12-0.62-0.12-0.94-0.13c-0.88-0.02-1.76-0.01-2.63-0.03c-2.98-0.08-3.62-0.79-3.44-3.8c0.02-0.32,0.06-0.63,0.11-0.95
		c0.13-0.98,0.69-1.73,1.65-1.79c1.98-0.13,3.97-0.16,5.95-0.07c0.93,0.04,1.57,0.78,1.76,1.72c0.07,0.35,0.05,0.87-0.16,1.07
		c-0.23,0.22-0.73,0.15-1.11,0.2c-0.07,0.01-0.18-0.01-0.23-0.06c-1.4-1.34-3.13-0.79-4.75-0.84c-0.77-0.02-1.13,0.46-1.1,1.22
		c0.02,0.62,0.35,0.96,1.08,1.02c0.71,0.06,1.43,0.03,2.15,0.05c0.72,0.02,1.43,0.05,2.15,0.11c0.76,0.07,1.34,0.48,1.77,1.1
		c0.68,0.98,0.5,3.84-0.28,4.78c-0.43,0.52-0.95,0.84-1.64,0.84c-0.88-0.01-1.76,0-2.63,0C95.66,122.97,95.66,122.96,95.66,122.95z"
		/>
	<path d="M68.03,118.07c0-1.36-0.06-2.71,0.02-4.06c0.09-1.51,0.69-2.19,2.21-2.3c1.67-0.12,3.35-0.15,5.02-0.05
		c1.6,0.1,2.32,0.94,2.36,2.73c0.05,2.55-0.03,5.1-0.06,7.65c0,0.08-0.02,0.16-0.03,0.24c-0.09,0.55-1.09,0.94-1.51,0.57
		c-0.16-0.14-0.29-0.39-0.31-0.61c-0.06-0.71-0.06-1.43-0.1-2.15c-0.04-0.57-0.39-0.85-0.94-0.87c-0.56-0.02-1.12-0.03-1.67-0.03
		c-2.92,0.01-2.99-0.39-3.08,2.7c-0.01,0.34-0.21,0.79-0.47,0.97c-0.54,0.38-1.31-0.07-1.39-0.73c-0.02-0.16-0.03-0.32-0.03-0.48
		C68.02,120.46,68.03,119.26,68.03,118.07C68.03,118.07,68.03,118.07,68.03,118.07z M72.7,117.05c0-0.01,0-0.02,0-0.03
		c0.63,0,1.26,0.02,1.89-0.01c0.65-0.03,1-0.4,1.01-1.06c0-0.31,0.02-0.63,0-0.94c-0.05-0.85-0.26-1.07-1.18-1.11
		c-0.94-0.04-1.89-0.04-2.84-0.03c-1.19,0.02-1.4,0.22-1.46,1.32c-0.09,1.64,0.2,1.88,1.64,1.86
		C72.07,117.05,72.38,117.05,72.7,117.05z"/>
</g>
<g id="GUITAR">
</g>
<g id="VOCALS">
</g>
<g id="EQ">
</g>
<g id="COMP">
</g>
<g id="FADER">
</g>
<g id="MUTE">
</g>
<g id="SOLO">
</g>
<g id="SETTINGS">
</g>
<g id="HELP">
</g>
<g id="PRESETS">
</g>
<g id="ANALYZE">
</g>
<g id="BYPASS">
</g>
</svg>
