<?xml version="1.0" encoding="utf-8"?>
<!-- Generator: Adobe Illustrator 28.0.0, SVG Export Plug-In . SVG Version: 6.00 Build 0)  -->
<svg version="1.1" xmlns="http://www.w3.org/2000/svg" xmlns:xlink="http://www.w3.org/1999/xlink" x="0px" y="0px"
	 viewBox="0 0 162 156" style="enable-background:new 0 0 162 156;" xml:space="preserve">
<g id="Layer_1">
</g>
<g id="KICK">
</g>
<g id="SNARE">
</g>
<g id="BASS">
</g>
<g id="GUITAR">
</g>
<g id="VOCALS">
</g>
<g id="EQ">
</g>
<g id="COMP">
</g>
<g id="FADER">
</g>
<g id="MUTE">
</g>
<g id="SOLO">
	<g>
		<path d="M63.83,64.3c0.38-1.94,0.75-3.64,1.05-5.35c1.14-6.45,2.25-12.9,3.39-19.35c0.14-0.78,0.35-1.57,0.68-2.28
			c0.36-0.77,1.04-1.2,1.95-1.1c0.81,0.08,1.31,0.57,1.57,1.29c0.22,0.6,0.39,1.22,0.48,1.85c0.95,6.08,1.87,12.16,2.81,18.23
			c0.85,5.53,1.71,11.05,2.56,16.57c0.12,0.76,0.24,1.52,0.84,2.47c1.05-5.23,2.05-10.15,3.04-15.07c0.49-2.43,0.95-4.86,1.44-7.29
			c0.11-0.54,0.26-1.09,0.48-1.6c0.31-0.7,0.86-1.13,1.68-1.15c0.81-0.02,1.42,0.34,1.75,1.04c0.34,0.72,0.59,1.48,0.82,2.24
			c1.1,3.59,2.19,7.18,3.29,10.77c0.14,0.44,0.33,0.87,0.49,1.26c0.79,0.07,0.8-0.55,1.01-0.9c0.63-1.11,1.17-2.27,1.8-3.38
			c0.51-0.9,1.31-1.34,2.38-1.34c3.6,0.02,7.2,0.02,10.79,0.04c0.24,0,0.48,0.02,0.71,0.07c0.71,0.18,1.21,0.85,1.2,1.6
			c0,0.74-0.51,1.33-1.33,1.44c-0.55,0.07-1.12,0.06-1.67,0.06c-2.64,0-5.28,0.07-7.91-0.03c-1.43-0.06-2.22,0.48-2.7,1.79
			c-0.41,1.12-0.99,2.18-1.5,3.27c-0.2,0.43-0.39,0.88-0.62,1.3c-0.51,0.95-1.12,1.85-2.36,1.68c-1.16-0.16-1.76-1.02-2.08-2.07
			c-0.93-2.97-1.85-5.95-2.78-8.92c-0.23-0.74-0.5-1.48-0.89-2.62c-0.27,0.83-0.46,1.26-0.55,1.71c-1.52,7.6-3.02,15.19-4.53,22.79
			c-0.08,0.39-0.18,0.78-0.3,1.16c-0.36,1.13-0.81,1.5-1.84,1.55c-1.1,0.06-1.74-0.38-2.12-1.52c-0.17-0.53-0.29-1.08-0.38-1.63
			c-0.65-4.1-1.3-8.2-1.94-12.31c-1.16-7.5-2.32-15-3.49-22.49c-0.06-0.37-0.23-0.73-0.35-1.12c-0.66,0.13-0.49,0.62-0.55,0.94
			c-1.3,6.91-2.58,13.82-3.88,20.72c-0.1,0.55-0.27,1.08-0.43,1.62c-0.23,0.79-0.85,1.14-1.6,1.24c-0.86,0.12-1.61-0.15-2.06-0.91
			c-0.28-0.47-0.45-1.02-0.62-1.55c-0.63-1.98-1.23-3.96-1.87-5.94c-0.22-0.68-0.48-1.35-0.78-2c-0.04-0.09-0.52-0.11-0.57-0.03
			c-0.39,0.6-0.72,1.24-1.07,1.86c-0.55,1-1.4,1.51-2.54,1.51c-2.96,0-5.92,0.01-8.87-0.04c-0.99-0.02-1.56-0.6-1.63-1.41
			c-0.08-0.89,0.55-1.65,1.61-1.71c1.76-0.09,3.52-0.04,5.28-0.07c4.06-0.07,3.22,0.51,4.9-3.13c0.3-0.65,0.6-1.33,1.05-1.87
			c1-1.2,2.58-1.09,3.45,0.21c0.35,0.53,0.61,1.13,0.83,1.72c0.4,1.13,0.72,2.29,1.11,3.42C62.76,62.42,62.99,63.36,63.83,64.3z"/>
		<path d="M66.99,104.48c0-0.87-0.04-1.75,0.01-2.62c0.1-1.93,0.9-2.74,2.81-2.8c1.43-0.05,2.87,0.03,4.3-0.01
			c1.36-0.05,2.48,0.84,2.59,2.28c0.17,2.21,0.14,4.45-0.01,6.67c-0.1,1.55-1.15,2.38-2.74,2.44c-1.43,0.06-2.87,0.06-4.29-0.02
			c-1.54-0.09-2.34-0.84-2.51-2.35c-0.14-1.18-0.14-2.38-0.2-3.57C66.96,104.48,66.98,104.48,66.99,104.48z M69.13,104.74
			c0.02,3.88-0.43,3.39,3.42,3.43c0.32,0,0.64,0,0.95-0.03c0.88-0.08,1.1-0.27,1.12-1.2c0.03-1.51,0-3.02-0.02-4.53
			c-0.01-0.66-0.36-1.02-1.03-1.04c-0.32-0.01-0.64-0.03-0.95-0.02C68.71,101.41,69.18,100.9,69.13,104.74z"/>
		<path d="M60.43,110.39c-0.88,0-1.76,0.05-2.64-0.01c-1.06-0.07-1.8-0.65-2.11-1.66c-0.1-0.33-0.06-0.81,0.12-1.09
			c0.29-0.45,0.91-0.52,1.28-0.22c1.56,1.28,3.36,0.6,5.06,0.7c0.68,0.04,0.92-0.34,0.92-1.1c0-0.76-0.22-1.11-0.89-1.16
			c-0.87-0.07-1.76-0.04-2.63-0.07c-0.72-0.02-1.44-0.02-2.15-0.09c-0.8-0.08-1.33-0.58-1.54-1.32c-0.35-1.25-0.39-2.53-0.01-3.78
			c0.29-0.95,1-1.46,1.96-1.49c1.76-0.05,3.52-0.08,5.27,0c1.14,0.05,1.84,0.79,2.12,1.95c0.18,0.79-0.5,1.41-1.3,1.19
			c-0.08-0.02-0.17-0.02-0.22-0.07c-1.6-1.36-3.49-0.73-5.27-0.77c-0.47-0.01-0.69,0.35-0.71,0.79c-0.02,0.48-0.06,1.05,0.51,1.21
			c0.6,0.17,1.25,0.2,1.88,0.22c0.96,0.03,1.92-0.09,2.87-0.01c1.24,0.1,1.89,0.69,2.12,1.92c0.16,0.85,0.22,1.75,0.15,2.62
			c-0.11,1.31-1.02,2.14-2.38,2.26c-0.79,0.07-1.6,0.01-2.4,0.01C60.43,110.4,60.43,110.4,60.43,110.39z"/>
		<path d="M89.41,104.45c0-0.96-0.04-1.92,0.01-2.87c0.09-1.63,0.9-2.44,2.57-2.51c1.51-0.06,3.03-0.05,4.55,0
			c1.57,0.06,2.35,0.78,2.51,2.32c0.08,0.79,0.04,1.59,0.03,2.39c-0.01,1.36,0.02,2.71-0.05,4.07c-0.09,1.63-0.94,2.5-2.55,2.57
			c-1.43,0.06-2.87,0.06-4.31-0.02c-1.93-0.1-2.73-0.95-2.78-2.84c-0.03-1.04-0.01-2.07-0.01-3.11
			C89.4,104.45,89.4,104.45,89.41,104.45z M97.05,104.75c-0.04-3.85,0.39-3.37-3.47-3.42c-0.32,0-0.64-0.01-0.95,0.01
			c-0.91,0.06-1.17,0.26-1.2,1.12c-0.05,1.19-0.03,2.38,0,3.57c0.05,2.09,0.06,2.12,2.16,2.12
			C97.38,108.14,97.06,108.58,97.05,104.75z"/>
		<path d="M78.79,104.78c0-1.59-0.01-3.19,0.01-4.78c0.01-0.54,0.25-0.89,0.86-0.9c0.7-0.02,1.02,0.21,1.04,0.97
			c0.04,1.35,0.01,2.71,0.02,4.06c0.01,0.96,0,1.91,0.05,2.87c0.05,0.9,0.24,1.09,1.18,1.13c1.19,0.04,2.39,0.02,3.59,0.03
			c0.64,0.01,1.28,0,1.91,0.05c0.58,0.04,0.8,0.43,0.81,0.98c0.01,0.74-0.26,1.19-0.86,1.2c-2.63,0.02-5.26,0.01-7.89-0.01
			c-0.48,0-0.7-0.38-0.7-0.8C78.78,107.97,78.79,106.38,78.79,104.78C78.79,104.78,78.79,104.78,78.79,104.78z"/>
	</g>
</g>
<g id="SETTINGS">
</g>
<g id="HELP">
</g>
<g id="PRESETS">
</g>
<g id="ANALYZE">
</g>
<g id="BYPASS">
</g>
</svg>
