<?xml version="1.0" encoding="utf-8"?>
<!-- Generator: Adobe Illustrator 28.0.0, SVG Export Plug-In . SVG Version: 6.00 Build 0)  -->
<svg version="1.1" xmlns="http://www.w3.org/2000/svg" xmlns:xlink="http://www.w3.org/1999/xlink" x="0px" y="0px"
	 viewBox="0 0 162 156" style="enable-background:new 0 0 162 156;" xml:space="preserve">
<g id="Layer_1">
</g>
<g id="KICK">
</g>
<g id="SNARE">
</g>
<g id="BASS">
</g>
<g id="GUITAR">
</g>
<g id="VOCALS">
</g>
<g id="EQ">
</g>
<g id="COMP">
</g>
<g id="FADER">
	<g>
		<path d="M62.12,76.9c0,4.63,0,9.26,0,13.89c0,0.72,0.01,1.45-0.12,2.15c-0.23,1.21-1.43,2.11-2.6,2.06
			c-1.26-0.06-2.35-0.92-2.58-2.11c-0.1-0.54-0.1-1.11-0.1-1.67c-0.02-9.58-0.03-19.16-0.03-28.74c0-2.54,0.02-2.32,2.39-2.33
			c0.72,0,1.44,0.01,2.15,0.03c0.59,0.01,0.84,0.38,0.87,0.92c0.03,0.64,0.04,1.28,0.04,1.91c0,4.63,0,9.26,0,13.89
			C62.13,76.9,62.12,76.9,62.12,76.9z"/>
		<path d="M108.54,52.68c0,3.68,0,7.35,0,11.03c0,0.56-0.01,1.12-0.05,1.68c-0.03,0.43-0.24,0.8-0.71,0.81
			c-1.36,0.03-2.71,0.04-4.07-0.01c-0.22-0.01-0.55-0.36-0.6-0.61c-0.11-0.54-0.1-1.11-0.11-1.67c-0.01-7.51-0.02-15.03-0.01-22.54
			c0-0.79,0.03-1.61,0.22-2.37c0.32-1.28,1.36-1.94,2.7-1.9c1.17,0.03,2.15,0.76,2.44,1.93c0.15,0.61,0.16,1.27,0.16,1.9
			C108.54,44.84,108.53,48.76,108.54,52.68C108.53,52.68,108.53,52.68,108.54,52.68z"/>
		<path d="M79.82,81.49c0-3.27-0.01-6.54,0.01-9.81c0.01-1.43,0.14-1.61,1.43-1.6c4.81,0.03,4.1-0.63,4.13,3.96
			c0.04,5.42,0,10.85-0.01,16.27c0,0.72,0.02,1.44-0.08,2.15c-0.23,1.56-1.38,2.62-2.68,2.55c-1.51-0.07-2.65-1.18-2.77-2.76
			c-0.06-0.71-0.02-1.43-0.02-2.15c0-2.87,0-5.74,0-8.61C79.83,81.49,79.83,81.49,79.82,81.49z"/>
		<path d="M82.47,67.72c-1.84,0-3.67-0.07-5.51,0.02c-1.97,0.1-3.58-1.43-3.54-3.37c0.03-1.2-0.06-2.4,0.03-3.59
			c0.12-1.63,0.89-2.43,2.5-2.74c0.47-0.09,0.95-0.12,1.43-0.13c3.43-0.02,6.86-0.03,10.29-0.04c0.24,0,0.48,0,0.72,0.01
			c2.2,0.06,3.65,1.57,3.44,3.69c-0.09,0.95,0.01,1.92-0.04,2.87c-0.11,2.1-0.99,3.04-3.09,3.21c-1.11,0.09-2.23,0.03-3.35,0.03
			c-0.96,0-1.92,0-2.87,0C82.47,67.7,82.47,67.71,82.47,67.72z M82.43,64.6c0-0.01,0-0.01,0-0.02c1.6,0,3.19,0.02,4.79-0.01
			c1.46-0.02,1.59-0.2,1.61-1.71c0-0.16,0-0.32,0-0.48c-0.05-1.19-0.26-1.47-1.38-1.47c-3.27-0.01-6.55,0.01-9.82,0.07
			c-1.04,0.02-1.16,0.22-1.22,1.34c-0.01,0.32-0.02,0.64-0.01,0.96c0.04,1.06,0.22,1.29,1.24,1.31
			C79.24,64.62,80.84,64.6,82.43,64.6z"/>
		<path d="M105.91,68.44c1.99,0,3.98-0.04,5.97,0.01c2.13,0.05,3.04,0.9,3.21,3.02c0.1,1.27,0.09,2.55,0,3.82
			c-0.12,1.6-0.89,2.41-2.49,2.75c-0.69,0.15-1.42,0.19-2.13,0.2c-3.26,0.03-6.53,0.03-9.79,0.03c-0.4,0-0.8,0.01-1.19-0.03
			c-1.86-0.22-2.85-1.25-2.95-3.13c-0.06-1.19-0.07-2.39-0.01-3.58c0.09-1.91,1.05-2.9,2.94-3.09c0.55-0.06,1.11-0.04,1.67-0.04
			c1.59,0,3.18,0,4.78,0C105.91,68.41,105.91,68.43,105.91,68.44z M105.94,71.46C105.94,71.47,105.94,71.47,105.94,71.46
			c-1.43,0-2.86-0.02-4.29,0.01c-2.07,0.04-2.3,0.31-2.12,2.41c0.08,0.96,0.35,1.3,1.32,1.32c3.25,0.05,6.51,0.07,9.76,0.05
			c1.29-0.01,1.43-0.22,1.45-1.6c0.01-0.4-0.01-0.79-0.03-1.19c-0.04-0.68-0.45-0.98-1.09-0.99
			C109.28,71.46,107.61,71.46,105.94,71.46z"/>
		<path d="M59.36,57.71c-1.83,0-3.66,0.02-5.5-0.01c-2.53-0.04-3.66-1.14-3.71-3.6c-0.02-1.03-0.05-2.08,0.05-3.1
			c0.18-1.78,1.15-2.71,2.92-2.89c0.63-0.06,1.27-0.06,1.91-0.07c2.79-0.02,5.58-0.05,8.36-0.05c0.88,0,1.76,0,2.62,0.1
			c1.51,0.17,2.5,1.11,2.62,2.62c0.11,1.42,0.1,2.87,0.02,4.3c-0.08,1.38-1.03,2.36-2.38,2.6c-0.62,0.11-1.27,0.09-1.91,0.09
			C62.71,57.72,61.03,57.71,59.36,57.71C59.36,57.71,59.36,57.71,59.36,57.71z M59.63,51.01c0,0,0,0.01,0,0.01
			c-1.75,0-3.5-0.02-5.25,0.01c-0.76,0.01-0.98,0.26-1.03,1.01c-0.03,0.48-0.04,0.96-0.02,1.43c0.05,1.03,0.24,1.28,1.29,1.29
			c3.26,0.03,6.53,0.02,9.79-0.02c0.99-0.01,1.25-0.31,1.31-1.3c0.03-0.47,0.03-0.96-0.01-1.43c-0.06-0.72-0.31-0.98-1.06-0.99
			C62.98,50.99,61.31,51.01,59.63,51.01z"/>
		<path d="M85.36,47.4c0,2.39,0.02,4.78-0.01,7.17c-0.01,0.94-0.19,1.14-1.14,1.12c-5.2-0.08-4.34,0.85-4.39-4.11
			c-0.04-3.42,0-6.85,0-10.27c0-0.56-0.02-1.12,0.04-1.67c0.17-1.53,1.2-2.5,2.66-2.54c1.47-0.04,2.48,0.82,2.74,2.43
			c0.09,0.55,0.09,1.11,0.1,1.67C85.38,43.26,85.37,45.33,85.36,47.4C85.37,47.4,85.37,47.4,85.36,47.4z"/>
		<path d="M103.01,86.91c0-1.68-0.03-3.36,0.01-5.03c0.02-1.01,0.27-1.28,1.31-1.28c4.95,0.02,4.13-0.62,4.21,3.91
			c0.04,2.16,0,4.31-0.01,6.47c0,0.48,0.02,0.96-0.04,1.44c-0.17,1.43-1.19,2.47-2.44,2.53c-1.54,0.08-2.77-0.94-2.98-2.53
			c-0.07-0.55-0.04-1.12-0.04-1.68C103.01,89.46,103.01,88.19,103.01,86.91C103.01,86.91,103.01,86.91,103.01,86.91z"/>
		<path d="M109.49,114.94c-1.38,0.52-2.32,0.31-3.03-0.83c-0.38-0.61-0.88-1.14-1.25-1.75c-0.54-0.88-1.3-1.08-2.26-0.97
			c-0.65,0.07-1.05,0.34-1.09,1.02c-0.04,0.72-0.06,1.44-0.12,2.15c-0.04,0.5-0.4,0.63-0.83,0.64c-0.43,0.01-0.8-0.08-0.91-0.56
			c-0.07-0.31-0.1-0.63-0.1-0.95c-0.03-2.71-0.07-5.43-0.07-8.14c0-1.54,0.15-1.68,1.59-1.7c1.76-0.03,3.52-0.06,5.27-0.01
			c1.82,0.05,2.71,1,2.77,2.87c0.01,0.4-0.03,0.8,0,1.2c0.1,1.35-0.12,2.54-1.4,3.32c-0.4,0.24-0.43,0.6-0.18,1.01
			C108.42,113.1,108.92,113.98,109.49,114.94z M104.53,109.12c0-0.01,0-0.03,0-0.04c0.63,0,1.27,0.05,1.89-0.02
			c0.26-0.03,0.62-0.25,0.72-0.47c0.66-1.55,0.11-2.46-1.48-2.48c-1.03-0.01-2.05,0.02-3.08,0.06c-0.45,0.02-0.72,0.31-0.74,0.76
			c-0.1,2.1,0,2.24,1.98,2.21C104.06,109.12,104.29,109.12,104.53,109.12z"/>
		<path d="M77.48,109.51c0-1.52-0.02-3.03,0.01-4.55c0.01-0.84,0.2-1.08,0.93-1.09c2.08-0.04,4.15-0.07,6.23-0.02
			c1.34,0.04,2.29,0.88,2.36,2.24c0.11,2.31,0.1,4.63,0.02,6.94c-0.04,1.15-0.86,2.05-1.93,2.09c-2.31,0.08-4.63,0.02-6.94,0
			c-0.49-0.01-0.68-0.4-0.68-0.82c-0.02-1.6-0.01-3.19-0.01-4.79C77.47,109.51,77.48,109.51,77.48,109.51z M85.03,109.29
			c0.02,0,0.04,0,0.06,0c0-0.64,0.03-1.27-0.01-1.91c-0.05-1-0.26-1.19-1.33-1.25c-0.4-0.02-0.8-0.01-1.19,0
			c-3.2,0.05-3.03-0.41-3.02,2.9c0.02,4.66-0.67,3.85,4.13,3.88c1.09,0.01,1.29-0.22,1.35-1.23
			C85.07,110.88,85.03,110.08,85.03,109.29z"/>
		<path d="M89.16,109.28c0-1.36-0.02-2.72,0.01-4.07c0.02-1.12,0.19-1.33,1.2-1.34c2.24-0.02,4.47-0.01,6.71,0.03
			c0.71,0.01,0.92,0.32,0.92,1.1c0,0.77-0.21,1.08-0.92,1.09c-1.6,0.04-3.2,0.02-4.79,0.06c-0.81,0.02-1.03,0.27-1.05,0.97
			c-0.02,0.9,0.23,1.28,0.99,1.32c1.12,0.06,2.24,0,3.35,0.08c0.34,0.02,0.77,0.25,0.96,0.52c0.4,0.56,0,1.37-0.67,1.4
			c-1.2,0.05-2.4,0.01-3.59,0.09c-0.33,0.02-0.86,0.29-0.92,0.53c-0.11,0.5-0.03,1.08,0.11,1.58c0.05,0.17,0.55,0.27,0.85,0.28
			c1.52,0.04,3.04,0.01,4.55,0.05c0.96,0.03,1.23,0.4,1.12,1.37c-0.05,0.44-0.23,0.78-0.72,0.79c-2.4,0.03-4.79,0.04-7.19,0.05
			c-0.58,0-0.91-0.33-0.92-0.87C89.14,112.63,89.15,110.95,89.16,109.28C89.16,109.28,89.16,109.28,89.16,109.28z"/>
		<path d="M75.4,110.45c0,1.27,0.01,2.55,0,3.82c0,0.55-0.24,0.89-0.84,0.92c-0.71,0.03-1.01-0.19-1.07-0.94
			c-0.05-0.55-0.01-1.12-0.06-1.67c-0.07-0.87-0.28-1.06-1.21-1.12c-0.4-0.03-0.8-0.03-1.2-0.01c-0.94,0.06-2.05-0.15-2.79,0.28
			c-0.9,0.51-0.34,1.75-0.48,2.66c-0.1,0.63-0.5,0.94-1.19,0.75c-0.25-0.07-0.55-0.32-0.63-0.56c-0.13-0.36-0.11-0.78-0.11-1.18
			c-0.01-2.23-0.05-4.46-0.01-6.69c0.04-2.05,0.88-2.83,2.95-2.88c1.27-0.03,2.55-0.04,3.83,0c1.88,0.06,2.73,0.88,2.83,2.8
			c0.06,1.27,0.01,2.55,0.01,3.82C75.43,110.45,75.42,110.45,75.4,110.45z M70.6,109.42c0-0.02,0-0.03,0-0.05
			c0.55,0,1.11,0.04,1.66-0.01c1.01-0.08,1.19-0.31,1.22-1.35c0.01-0.24,0.01-0.47-0.01-0.71c-0.06-0.87-0.28-1.12-1.16-1.14
			c-1.18-0.03-2.37,0-3.56,0.03c-0.53,0.01-0.91,0.27-0.94,0.85c-0.11,2.11-0.06,2.42,2.08,2.39
			C70.13,109.41,70.36,109.42,70.6,109.42z"/>
		<path d="M55.87,109.44c0-1.51,0-3.03,0-4.54c0-0.69,0.38-1,1.05-1c2.23,0,4.46,0,6.69,0.01c0.6,0,0.8,0.4,0.81,0.95
			c0.02,0.8-0.18,1.19-0.79,1.22c-1.11,0.05-2.23,0.03-3.35,0.04c-0.48,0-0.96-0.02-1.43,0.02c-0.77,0.05-1,0.3-1.03,1.02
			c-0.04,0.89,0.23,1.32,0.96,1.35c1.19,0.05,2.39,0,3.58,0.08c0.31,0.02,0.73,0.33,0.87,0.62c0.33,0.68-0.06,1.28-0.82,1.31
			c-0.95,0.04-1.91,0-2.87,0.03c-1.51,0.04-1.65,0.19-1.73,1.63c-0.04,0.79-0.03,1.59-0.11,2.38c-0.06,0.65-0.58,0.65-1.07,0.64
			c-0.47-0.01-0.76-0.26-0.76-0.73C55.86,112.78,55.87,111.11,55.87,109.44z"/>
		<path d="M62.09,42.14c0,0.87,0.01,1.75,0,2.62c-0.01,0.55-0.28,0.91-0.86,0.91c-1.27,0-2.54,0.01-3.81-0.06
			c-0.22-0.01-0.6-0.37-0.6-0.57c-0.03-1.98-0.11-3.97,0.05-5.94c0.1-1.3,1.43-2.12,2.8-2.04c1.28,0.08,2.26,0.94,2.38,2.23
			c0.09,0.94,0.02,1.9,0.02,2.86C62.07,42.14,62.08,42.14,62.09,42.14z"/>
	</g>
</g>
<g id="MUTE">
</g>
<g id="SOLO">
</g>
<g id="SETTINGS">
</g>
<g id="HELP">
</g>
<g id="PRESETS">
</g>
<g id="ANALYZE">
</g>
<g id="BYPASS">
</g>
</svg>
