<?xml version="1.0" encoding="utf-8"?>
<!-- Generator: Adobe Illustrator 28.0.0, SVG Export Plug-In . SVG Version: 6.00 Build 0)  -->
<svg version="1.1" xmlns="http://www.w3.org/2000/svg" xmlns:xlink="http://www.w3.org/1999/xlink" x="0px" y="0px"
	 viewBox="0 0 162 156" style="enable-background:new 0 0 162 156;" xml:space="preserve">
<g id="Layer_1">
</g>
<g id="KICK">
</g>
<g id="SNARE">
</g>
<g id="BASS">
</g>
<g id="GUITAR">
</g>
<g id="VOCALS">
</g>
<g id="EQ">
</g>
<g id="COMP">
	<g>
		<path d="M57.88,91.83c-0.6-0.5-1.29-0.93-1.79-1.52c-3.19-3.71-5.28-7.98-6.29-12.76c-1.91-9.11-0.06-17.51,5.27-25.05
			c4.09-5.78,9.68-9.68,16.55-11.61c9.99-2.8,19.28-1.38,27.84,4.58c7.7,5.37,12.05,12.76,13.62,21.96
			c1.17,6.87-0.07,13.34-2.75,19.63c-1.22,2.86-1.4,2.14,1.15,3.82c0.26,0.17,0.49,0.39,0.76,0.59c-1.98,1.34-11.15,5.18-13.07,5.43
			c0.36-4.32,0.57-8.61,1.06-12.94c0.3,0.03,0.54-0.01,0.72,0.07c1.85,0.84,1.86,0.86,2.61-0.88c3.34-7.77,3.4-15.56-0.2-23.21
			c-2.4-5.11-6.15-9.11-11.17-11.84c-3.63-1.97-7.49-3.2-11.59-3.62c-3.39-0.35-6.69,0.23-9.93,1.19
			c-6.66,1.96-11.85,5.9-15.41,11.83c-3.44,5.73-4.77,11.99-3.91,18.64c0.69,5.34,2.6,10.19,5.94,14.45
			c0.27,0.35,0.38,0.84,0.56,1.26C57.84,91.87,57.88,91.83,57.88,91.83z"/>
		<path d="M78.66,93.78c-11.64,0.09-22.03-9.35-22.12-22.08c-0.09-12.76,10.6-22.56,22.35-22.42c11.93,0.14,21.85,9.95,21.82,22.41
			C100.68,84.01,90.49,94.08,78.66,93.78z M97.43,71.27c0.05-9.74-8.13-18.83-18.88-18.64c-11.41,0.2-18.85,9.06-18.73,19.53
			c0.13,11.29,9.98,18.7,19.35,18.35C89.29,90.13,97.75,81.72,97.43,71.27z"/>
		<path d="M67.09,111.54c0-0.96-0.04-1.92,0.01-2.88c0.09-1.95,0.88-2.76,2.8-2.82c1.44-0.05,2.88-0.04,4.31,0
			c1.47,0.05,2.2,0.66,2.55,2.04c0.08,0.31,0.12,0.63,0.12,0.95c0,1.84,0.01,3.67-0.02,5.51c-0.03,1.7-1.15,3.04-3.07,2.87
			c-1.35-0.12-2.72,0.02-4.07-0.05c-1.69-0.08-2.44-0.85-2.6-2.51c-0.02-0.16-0.02-0.32-0.02-0.48
			C67.09,113.3,67.1,112.42,67.09,111.54C67.09,111.54,67.09,111.54,67.09,111.54z M74.69,111.54c-0.01-3.79,0.4-3.43-3.44-3.44
			c-0.32,0-0.64,0.02-0.95,0.02c-0.66,0.01-1.04,0.34-1.05,1.01c-0.01,1.59,0,3.17,0.01,4.76c0,0.67,0.36,1.01,1.03,1.03
			c0.32,0.01,0.64,0.02,0.95,0.02C75.13,114.9,74.67,115.37,74.69,111.54z"/>
		<path d="M80.97,109.89c-0.05,0.87-0.11,1.48-0.13,2.09c-0.03,1.44-0.03,2.87-0.05,4.31c-0.01,0.57-0.28,0.87-0.88,0.87
			c-0.54,0-0.94-0.14-1.03-0.73c-0.04-0.24-0.06-0.48-0.06-0.71c0-2.79-0.01-5.59,0-8.38c0-0.54-0.1-1.19,0.62-1.38
			c0.71-0.18,1.43-0.25,1.95,0.47c0.28,0.39,0.55,0.78,0.85,1.16c0.64,0.8,1.3,1.59,2.07,2.54c1-0.91,1.64-1.88,2.34-2.81
			c0.29-0.38,0.54-0.79,0.87-1.13c0.34-0.35,1.76-0.5,2.03-0.18c0.23,0.27,0.33,0.72,0.33,1.09c0.02,3.03,0.01,6.07-0.02,9.1
			c-0.01,0.81-0.49,1.12-1.24,0.97c-0.49-0.1-0.66-0.43-0.68-0.84c-0.06-0.95-0.1-1.91-0.12-2.87c-0.03-0.96-0.02-1.91-0.05-2.87
			c0-0.13-0.13-0.31-0.24-0.36c-0.11-0.05-0.34,0-0.4,0.09c-0.67,0.89-1.32,1.8-1.98,2.7c-0.63,0.84-0.97,0.82-1.61-0.08
			c-0.55-0.78-1.1-1.56-1.68-2.32C81.68,110.39,81.41,110.24,80.97,109.89z"/>
		<path d="M92,111.47c0-1.52-0.02-3.03,0.01-4.55c0.01-0.83,0.19-1.04,0.96-1.05c2.08-0.04,4.15-0.08,6.23-0.03
			c1.44,0.03,2.24,0.77,2.39,2.17c0.11,1.03,0.08,2.07,0.01,3.11c-0.09,1.34-0.74,2.04-2.05,2.23c-0.71,0.1-1.43,0.06-2.15,0.07
			c-0.48,0.01-0.96-0.03-1.44-0.02c-1.66,0.03-1.79,0.15-1.94,1.71c-0.05,0.48-0.05,0.96-0.1,1.43c-0.06,0.48-0.38,0.65-0.84,0.64
			c-0.5-0.01-1.03-0.04-1.04-0.68c-0.04-1.67-0.01-3.35-0.01-5.02C92.02,111.47,92.01,111.47,92,111.47z M96.88,108.1
			C96.88,108.1,96.88,108.1,96.88,108.1c-0.55,0-1.11-0.03-1.66,0c-0.98,0.05-1.2,0.3-1.22,1.32c-0.01,0.31,0.02,0.63,0.06,0.94
			c0.06,0.45,0.36,0.72,0.79,0.73c1.26,0.03,2.52,0.05,3.78,0.03c0.67-0.01,0.97-0.43,0.98-1.08c0-0.24,0.03-0.47,0.02-0.71
			c-0.03-0.85-0.3-1.16-1.11-1.22C97.99,108.07,97.43,108.1,96.88,108.1z"/>
		<path d="M55.86,111.58c0-1.12-0.07-2.24,0.02-3.35c0.11-1.44,0.86-2.3,2.23-2.36c2.07-0.09,4.15-0.03,6.22,0.02
			c0.63,0.01,0.87,0.43,0.83,1.19c-0.03,0.52-0.19,0.95-0.81,0.97c-1.04,0.03-2.07,0.02-3.11,0.04c-0.8,0.01-1.6,0.01-2.39,0.05
			c-0.54,0.03-0.93,0.33-0.94,0.88c-0.04,1.67-0.03,3.35-0.03,5.02c0,0.58,0.37,0.85,0.91,0.88c0.56,0.02,1.12,0.02,1.67,0.02
			c1.2,0,2.39-0.02,3.59,0.01c0.96,0.03,1.25,0.43,1.12,1.37c-0.07,0.54-0.34,0.87-0.91,0.89c-0.08,0-0.16,0.01-0.24,0.01
			c-1.83-0.02-3.67,0.03-5.5-0.07c-1.84-0.1-2.56-0.88-2.65-2.7C55.83,113.49,55.87,112.54,55.86,111.58
			C55.87,111.58,55.86,111.58,55.86,111.58z"/>
		<polygon points="58.71,92.97 58.85,93.02 58.76,92.91 		"/>
		<path d="M58.29,92.35c-0.14-0.17-0.27-0.35-0.41-0.52c0,0-0.04,0.04-0.04,0.04c0.38,0,0.49,0.19,0.39,0.54L58.29,92.35z"/>
		<path d="M58.23,92.41c0.42-0.03,0.52,0.21,0.48,0.57l0.05-0.06c-0.16-0.19-0.31-0.38-0.47-0.56L58.23,92.41z"/>
		<path d="M82.83,61.42c2.13-1.04,4.29-1.52,6.43-2.07c0.39-0.1,0.56,0.28,0.48,0.61c-0.47,1.94-0.95,3.87-1.45,5.8
			c-0.12,0.46-0.47,0.52-0.91,0.2c-0.13-0.09-0.22-0.23-0.35-0.33c-0.78-0.59-0.9-0.6-1.58,0.08c-0.67,0.68-1.31,1.4-1.96,2.09
			c-0.6,0.64-1.19,1.29-1.83,1.89c-0.33,0.3-0.9,0.79-1.11,0.68c-0.54-0.26-0.98-0.78-1.36-1.27c-0.09-0.11,0.13-0.58,0.32-0.79
			c1.29-1.41,2.62-2.79,3.93-4.19c0.84-0.9,0.83-0.9-0.01-1.88C83.23,62.02,83.07,61.76,82.83,61.42z"/>
	</g>
</g>
<g id="FADER">
</g>
<g id="MUTE">
</g>
<g id="SOLO">
</g>
<g id="SETTINGS">
</g>
<g id="HELP">
</g>
<g id="PRESETS">
</g>
<g id="ANALYZE">
</g>
<g id="BYPASS">
</g>
</svg>
