<?xml version="1.0" encoding="utf-8"?>
<!-- Generator: Adobe Illustrator 28.0.0, SVG Export Plug-In . SVG Version: 6.00 Build 0)  -->
<svg version="1.1" xmlns="http://www.w3.org/2000/svg" xmlns:xlink="http://www.w3.org/1999/xlink" x="0px" y="0px"
	 viewBox="0 0 506 264.67" style="enable-background:new 0 0 506 264.67;" xml:space="preserve">
<g id="Layer_1">
	<g>
		<path d="M289.56,48.66c0.42,1.09,0.73,1.91,1.05,2.72c2.02,5.08,3.94,10.22,6.9,14.85c2.65,4.14,5.41,8.21,8.3,12.19
			c4.61,6.36,9.61,12.46,13.05,19.59c6.1,12.6,1.9,26.15-7.79,33.26c-9.96,7.31-20.91,8.52-32.51,4.85
			c-5.67-1.79-10.57-4.93-14.26-9.6c-6.95-8.79-8.07-18.41-3.5-28.66c2.41-5.42,5.97-10.11,9.49-14.81
			c4.46-5.96,9.09-11.81,12.57-18.44c2.42-4.61,4.28-9.45,6.02-14.35C289.03,49.81,289.24,49.39,289.56,48.66z M289.89,77.81
			c-1.57,2.33-2.89,4.39-4.32,6.38c-1.36,1.89-2.24,3.86-1.93,6.27c0.27,2.12-0.36,4.01-1.7,5.72c-1.35,1.72-2.59,3.52-3.79,5.35
			c-3.6,5.49-2.86,11.77,1.83,15.93c5.13,4.55,13.39,5.03,18.98,0.98c2.76-2,4.51-4.71,4.87-8.2c0.34-3.32-0.93-6.16-2.7-8.82
			c-1.96-2.96-3.9-5.94-6.02-8.78c-1.78-2.39-2.56-4.9-2.05-7.85c0.12-0.7,0.08-1.56-0.24-2.17C292.02,81.05,291,79.59,289.89,77.81
			z"/>
		<path d="M253.07,141.53c0.52-7.93,1.04-15.86,1.55-23.79c0.1-0.03,0.2-0.05,0.3-0.08c0.14,0.31,0.28,0.63,0.43,0.94
			c1.2,2.45,2.31,4.95,3.64,7.32c0.56,1,0.9,1.92,0.83,3.06c-0.43,6.69-0.77,13.38-1.26,20.07c-0.29,3.96-3.74,6.34-7.38,5.24
			c-1.44-0.44-2.65-1.26-3.19-2.68c-0.46-1.19-0.83-2.48-0.9-3.75c-0.84-15.37-1.62-30.73-2.41-46.1c-0.47-9.22-0.9-18.44-1.4-27.66
			c-0.21-3.81-0.54-7.62-1.06-11.43c-0.32,4.48-0.62,8.97-0.95,13.45c-0.75,10.23-1.52,20.46-2.26,30.69
			c-0.6,8.25-1.19,16.51-1.76,24.76c-0.12,1.73-0.41,3.4-1.38,4.87c-1.26,1.91-3.02,2.95-5.35,2.81c-2.31-0.13-3.76-1.57-4.69-3.5
			c-0.49-1.02-0.76-2.22-0.86-3.35c-0.63-7.5-1.2-15-1.75-22.5c-0.69-9.41-1.35-18.82-2.03-28.24c-0.02-0.31-0.08-0.63-0.46-0.98
			c-0.4,2.05-0.85,4.09-1.19,6.14c-1.5,8.97-2.98,17.94-4.44,26.91c-0.43,2.64-1.75,4.62-4.22,5.62c-3.85,1.57-7.91-0.87-8.53-5.07
			c-0.35-2.37-0.56-4.75-0.88-7.12c-0.38-2.85-0.77-5.69-1.21-8.53c-0.15-0.99-0.45-1.96-1.11-3.03c-0.27,0.48-0.61,0.93-0.79,1.44
			c-0.53,1.48-0.94,3-1.48,4.47c-1.69,4.6-5.07,7.15-9.9,7.32c-5.94,0.21-11.9,0.09-17.85,0.05c-1.8-0.01-2.62-1.04-2.62-2.94
			c0-1.85,0.9-2.9,2.67-2.92c5.4-0.04,10.81-0.02,16.21-0.02c3.9,0,5.42-1.13,6.55-4.83c0.44-1.43,0.79-2.91,1.37-4.29
			c0.89-2.11,2.4-3.63,4.72-4.2c2.78-0.68,5.69,0.56,6.87,3.17c0.55,1.22,0.87,2.59,1.08,3.93c0.75,4.79,1.41,9.6,2.11,14.4
			c0.1,0.71,0.3,1.4,0.81,2.13c0.26-0.97,0.59-1.92,0.77-2.9c0.84-4.57,1.67-9.14,2.44-13.73c1.02-6.07,1.96-12.15,2.96-18.22
			c0.27-1.64,0.83-3.17,2.07-4.37c2.76-2.69,6.78-2.25,8.72,1.09c0.6,1.03,1,2.28,1.1,3.47c0.6,7.36,1.07,14.73,1.62,22.09
			c0.7,9.41,1.42,18.82,2.14,28.23c0.02,0.3,0.16,0.6,0.62,0.89c0.06-0.83,0.11-1.67,0.17-2.5c1.17-15.34,2.36-30.68,3.51-46.02
			c0.63-8.46,1.17-16.92,1.78-25.38c0.08-1.09,0.23-2.18,0.46-3.24c0.61-2.8,2.71-4.48,5.38-4.38c2.82,0.11,4.9,1.91,5.23,4.8
			c0.36,3.12,0.58,6.26,0.74,9.4c0.56,10.65,1.08,21.31,1.61,31.97c0.75,14.96,1.49,29.92,2.24,44.88c0.04,0.72,0.16,1.43,0.25,2.15
			C252.84,141.55,252.95,141.54,253.07,141.53z"/>
		<path d="M299.65,197.79c4.79,6.1,9.44,12.03,14.3,18.21c-0.9,0.08-1.47,0.17-2.05,0.18c-3.9,0.03-7.79-0.02-11.69,0.07
			c-1.26,0.03-1.99-0.48-2.7-1.44c-3.65-4.95-7.36-9.85-11.02-14.79c-0.53-0.71-1.08-1.11-2.02-1.1c-6.9,0.05-13.81,0.04-20.71,0.06
			c-0.26,0-0.53,0.08-1.02,0.16c0,5.57,0,11.14,0,16.98c-4.42,0.16-8.61,0.1-12.98,0.07c-0.06-0.79-0.14-1.39-0.14-1.98
			c0.13-15.17,0.27-30.35,0.4-45.52c0.01-0.96-0.01-1.92,0.03-2.87c0.06-1.54,0.4-1.91,1.92-2.09c0.61-0.07,1.23-0.06,1.84-0.06
			c12.3-0.01,24.61,0,36.91-0.05c3.03-0.01,6,0.36,8.92,1.09c5.45,1.36,8.72,4.93,10.06,10.26c1.01,4.02,1.08,8.12,0.24,12.2
			c-0.94,4.56-3.6,7.72-7.86,9.55C301.36,197.03,300.63,197.36,299.65,197.79z M262.82,188.19c0.37,0.1,0.51,0.17,0.64,0.17
			c9.29-0.01,18.59,0.01,27.88-0.07c1.19-0.01,2.43-0.4,3.55-0.85c1.57-0.62,2.53-1.87,2.63-3.6c0.08-1.36,0.12-2.74,0-4.09
			c-0.17-1.91-1.09-3.45-3-4.01c-1.55-0.46-3.19-0.83-4.79-0.85c-8.4-0.08-16.81-0.05-25.22-0.04c-0.53,0-1.05,0.08-1.7,0.13
			C262.82,179.44,262.82,183.77,262.82,188.19z"/>
		<path d="M243.39,216.2c-0.77,0-1.29,0-1.81,0c-3.35,0.02-6.71-0.09-10.05,0.1c-2.03,0.12-3.1-0.62-3.93-2.41
			c-1.12-2.41-2.59-4.66-3.79-7.04c-0.61-1.22-1.43-1.6-2.75-1.59c-11.14,0.05-22.29,0.05-33.43,0c-1.33-0.01-1.98,0.61-2.56,1.62
			c-1.51,2.6-3.1,5.16-4.56,7.78c-0.64,1.15-1.41,1.63-2.76,1.6c-4.03-0.09-8.06-0.03-12.17-0.03c-0.12-1.15,0.67-1.83,1.14-2.59
			c6.35-10.37,12.73-20.73,19.12-31.08c2.98-4.83,6.02-9.61,8.98-14.45c1.61-2.63,3.91-4.31,6.92-4.57c2.7-0.24,5.46-0.15,8.16,0.15
			c2.65,0.29,4.6,1.88,5.95,4.24c8.95,15.66,17.93,31.3,26.9,46.95C242.93,215.2,243.08,215.56,243.39,216.2z M216.95,194.71
			c-3.6-6.59-6.97-12.82-10.42-19.01c-0.94-1.69-1.9-1.56-2.96,0.19c-3.47,5.79-6.95,11.57-10.42,17.36
			c-0.26,0.43-0.43,0.92-0.68,1.46C200.64,194.71,208.58,194.71,216.95,194.71z"/>
		<path d="M100.15,163.65c-0.58,3.98-1.12,7.67-1.69,11.58c-0.96,0.03-1.83,0.09-2.69,0.09c-11.29,0.03-22.57,0.02-33.86,0.1
			c-1.69,0.01-3.42,0.26-5.05,0.71c-2.79,0.76-4.65,2.72-5.21,5.53c-1.05,5.29-1.98,10.61-2.74,15.96c-0.55,3.9,1.2,5.91,5.18,6.31
			c1.7,0.17,3.41,0.2,5.12,0.21c11.15,0.02,22.3,0.02,33.45,0.03c0.6,0,1.2,0.06,2.11,0.1c-0.55,4.02-1.07,7.89-1.61,11.84
			c-0.82,0.04-1.42,0.1-2.03,0.1c-11.49,0.01-22.98,0.02-34.47,0c-3.91,0-7.77-0.3-11.54-1.53c-7.68-2.5-10.13-8.58-9.25-15.14
			c0.83-6.23,1.97-12.41,3.09-18.6c0.68-3.74,2-7.25,4.48-10.22c3.25-3.88,7.58-5.76,12.44-6.49c2.35-0.36,4.76-0.52,7.14-0.54
			c11.49-0.06,22.98-0.04,34.47-0.04C98.29,163.65,99.09,163.65,100.15,163.65z"/>
		<path d="M363.76,175.3c-7.82,0-15.38,0-23.16,0c-0.25-3.92-0.49-7.62-0.74-11.5c19.6,0,38.97,0,58.59,0
			c0.39,3.78,0.78,7.49,1.19,11.48c-7.85,0.17-15.47-0.08-23.25,0.12c1.22,13.65,3.02,27.03,3.8,40.68c-4.41,0-8.53,0-12.88,0
			C366.14,202.55,364.97,189.1,363.76,175.3z"/>
		<path d="M108.92,163.79c4.1,0,8.16,0,12.46,0c-0.3,2.64-0.56,5.14-0.87,7.62c-1.01,8-2.07,16-3.04,24.01
			c-0.2,1.62-0.21,3.27-0.15,4.9c0.07,1.69,1.05,2.84,2.69,3.21c1.39,0.31,2.83,0.53,4.25,0.55c5.33,0.07,10.67,0.06,16.01,0.05
			c6.29,0,12.59-0.03,18.88-0.03c0.47,0,0.93,0.06,1.62,0.11c-0.15,4.02-0.61,7.9-1,11.88c-0.71,0.06-1.24,0.15-1.77,0.15
			c-11.7,0.01-23.39,0-35.09,0.01c-3.58,0-7.1-0.37-10.49-1.58c-5.04-1.8-7.78-5.42-8.2-10.7c-0.17-2.1-0.1-4.25,0.16-6.34
			c0.83-6.79,1.79-13.55,2.69-20.33c0.56-4.2,1.09-8.41,1.64-12.61C108.73,164.42,108.83,164.17,108.92,163.79z"/>
		<path d="M440.06,188.65c1.51-2.38,2.92-4.55,4.29-6.74c3.44-5.51,6.92-11,10.27-16.56c0.78-1.29,1.63-1.75,3.1-1.71
			c3.42,0.1,6.84,0.02,10.26,0.01c0.66,0,1.32,0,2.32,0c-0.55,0.94-0.89,1.58-1.29,2.19c-5.29,7.98-10.58,15.95-15.88,23.92
			c-1.59,2.39-3.18,4.78-4.83,7.13c-0.62,0.89-0.87,1.71-0.69,2.85c0.77,4.72,1.42,9.46,2.09,14.2c0.09,0.6,0.08,1.21,0.11,1.77
			c-1.5,0.59-9.98,0.75-12.66,0.22c-0.28-1.78-0.59-3.65-0.87-5.53c-0.54-3.58-1.11-7.16-1.57-10.75c-0.13-1.03-0.57-1.75-1.24-2.48
			c-9.55-10.54-19.08-21.1-28.6-31.66c-0.4-0.44-0.74-0.94-1.28-1.64c0.66-0.09,1.08-0.2,1.51-0.2c3.83-0.03,7.66,0.01,11.49-0.08
			c1.31-0.03,2.11,0.49,2.94,1.45c6.49,7.59,13.03,15.13,19.56,22.69C439.31,187.99,439.58,188.2,440.06,188.65z"/>
		<path d="M332.07,163.93c0.97,17.32,1.95,34.56,2.93,51.98c-0.66,0.11-1.17,0.27-1.67,0.28c-3.28,0.03-6.56,0.05-9.84,0.04
			c-1.6-0.01-1.7-0.12-1.77-1.77c-0.7-14.82-1.39-29.63-2.09-44.45c-0.09-1.98-0.21-3.95-0.31-5.89
			C320.79,163.58,329.28,163.43,332.07,163.93z"/>
		<path d="M264.03,83.96c-0.31-2.19-0.62-4.38-0.92-6.57c-0.13,0.01-0.25,0.01-0.38,0.02c-0.22,2.81-0.48,5.62-0.63,8.44
			c-0.08,1.42-0.51,2.64-1.31,3.8c-1.98,2.87-3.74,5.87-4.88,9.19c-0.06,0.17-0.26,0.29-0.51,0.56c0.28-4.92,0.54-9.66,0.83-14.4
			c0.19-3.13,0.42-6.26,0.68-9.39c0.13-1.56,0.24-3.14,0.61-4.66c0.56-2.33,2.43-3.84,4.62-4.01c2.18-0.17,4.64,1.18,5.51,3.2
			c1.07,2.49,1.2,5.16,1.26,7.83c0.01,0.32-0.12,0.7-0.31,0.95c-1.36,1.76-2.76,3.5-4.15,5.25
			C264.31,84.1,264.17,84.03,264.03,83.96z"/>
	</g>
</g>
<g id="Layer_3">
</g>
<g id="Layer_2">
</g>
<g id="Layer_4">
</g>
</svg>
