<?xml version="1.0" encoding="utf-8"?>
<!-- Generator: Adobe Illustrator 28.0.0, SVG Export Plug-In . SVG Version: 6.00 Build 0)  -->
<svg version="1.1" xmlns="http://www.w3.org/2000/svg" xmlns:xlink="http://www.w3.org/1999/xlink" x="0px" y="0px"
	 viewBox="0 0 162 156" style="enable-background:new 0 0 162 156;" xml:space="preserve">
<g id="Layer_1">
</g>
<g id="KICK">
</g>
<g id="SNARE">
</g>
<g id="BASS">
</g>
<g id="GUITAR">
</g>
<g id="VOCALS">
</g>
<g id="EQ">
</g>
<g id="COMP">
</g>
<g id="FADER">
</g>
<g id="MUTE">
</g>
<g id="SOLO">
</g>
<g id="SETTINGS">
</g>
<g id="HELP">
</g>
<g id="PRESETS">
</g>
<g id="ANALYZE">
	<g>
		<path d="M78.51,40.59c2.72-0.02,7.11,1.23,11.12,3.8c5.18,3.31,8.31,8.12,9.8,13.97c1.66,6.5,0.61,12.67-2.9,18.41
			c-1.27,2.08-1.24,2.16,0.64,3.62c0.4,0.31,0.76,0.5,1.3,0.29c1.56-0.58,2.83,0.05,3.9,1.13c3.21,3.23,6.37,6.5,9.58,9.74
			c1.97,1.99,1.76,4.86,0.63,6.62c-1.78,2.78-5.11,3.42-7.64,1.3c-1.65-1.38-3.16-2.93-4.69-4.45c-1.93-1.91-3.8-3.88-5.73-5.8
			c-1.04-1.04-1.66-2.15-0.89-3.62c0.22-0.42,0.07-0.76-0.23-1.08c-0.22-0.23-0.43-0.47-0.65-0.71c-1.22-1.33-1.27-1.37-2.74-0.24
			c-4.62,3.54-9.87,4.73-15.57,4.19c-8.24-0.77-14.49-4.83-18.61-11.9c-6.06-10.4-3.22-21.79,4.27-28.96
			C64.61,42.6,70.19,40.6,78.51,40.59z M96.67,64.39c0.15-12.05-9.88-20.45-20.04-20.44c-10.71,0.01-20.41,8.01-20.44,20.31
			c-0.03,11.69,9.66,20.02,19.94,20.06C88.48,84.36,96.8,74.33,96.67,64.39z M110.65,95.24c0.04-0.93-0.55-1.58-1.18-2.21
			c-2.59-2.6-5.19-5.2-7.76-7.82c-1.86-1.89-1.89-1.91-3.74-0.03c-1.72,1.75-1.72,1.75,0.02,3.62c0.11,0.12,0.21,0.24,0.33,0.35
			c2.38,2.36,4.76,4.72,7.16,7.07c0.45,0.45,0.93,0.88,1.46,1.23c0.8,0.53,1.66,0.52,2.48,0C110.21,96.96,110.7,96.27,110.65,95.24z
			"/>
		<path d="M59.62,114.39c0,1.1,0,2.21,0,3.31c0,0.8,0,1.59-0.04,2.39c-0.03,0.61-0.47,0.77-0.99,0.77c-0.52,0-0.93-0.19-1.02-0.77
			c-0.04-0.24-0.06-0.48-0.06-0.71c-0.01-2.79-0.03-5.58,0-8.37c0.01-1.24,1.14-1.82,2.12-1.06c0.61,0.48,1.08,1.16,1.55,1.8
			c0.94,1.28,1.84,2.61,2.77,3.9c0.21,0.3,0.5,0.54,0.97,1.05c0.05-1.05,0.1-1.75,0.12-2.45c0.02-0.96-0.01-1.91,0.02-2.87
			c0.04-1.31,0.29-1.65,1.17-1.64c0.79,0.01,1.02,0.3,1.03,1.52c0.01,2.71,0,5.42-0.02,8.13c0,0.54,0.12,1.21-0.57,1.42
			c-0.7,0.22-1.43,0.18-1.98-0.43c-0.26-0.3-0.48-0.64-0.71-0.96c-0.83-1.17-1.66-2.34-2.51-3.5c-0.41-0.56-0.88-1.09-1.32-1.63
			C59.98,114.31,59.8,114.35,59.62,114.39z"/>
		<path d="M45.89,115.99c0-1.27-0.04-2.55,0.01-3.82c0.07-1.61,0.72-2.33,2.32-2.42c1.67-0.09,3.35-0.1,5.01-0.02
			c1.5,0.08,2.19,0.75,2.23,2.26c0.07,2.7-0.01,5.41-0.04,8.12c-0.01,0.47-0.32,0.71-0.77,0.73c-0.49,0.02-1.01-0.03-1.1-0.63
			c-0.09-0.63-0.08-1.27-0.11-1.9c-0.03-0.55-0.29-0.93-0.86-0.95c-1.27-0.04-2.55-0.04-3.82-0.03c-0.59,0.01-0.81,0.43-0.82,0.96
			c0,0.56,0.05,1.11,0.04,1.67c-0.01,0.65-0.39,0.96-1.11,0.92c-0.53-0.02-0.94-0.22-0.95-0.82c-0.01-1.35,0-2.71,0-4.06
			C45.9,115.99,45.89,115.99,45.89,115.99z M50.46,115.03c0-0.01,0-0.02,0-0.04c0.71,0,1.43,0.02,2.14-0.01
			c0.56-0.03,0.83-0.4,0.87-0.93c0.02-0.32,0.03-0.63,0.02-0.95c-0.04-0.75-0.26-1.04-0.98-1.06c-1.19-0.04-2.37-0.01-3.56-0.01
			c-0.71,0-0.93,0.45-0.96,1.08c-0.09,1.87,0.09,1.94,1.77,1.92C49.98,115.03,50.22,115.03,50.46,115.03z"/>
		<path d="M69.28,115.72c0-1.2-0.05-2.39,0.01-3.59c0.08-1.72,0.63-2.33,2.3-2.41c1.67-0.08,3.35-0.09,5.02,0
			c1.47,0.08,2.19,0.82,2.22,2.29c0.06,2.63,0.01,5.26-0.01,7.89c0,0.56-0.3,0.87-0.88,0.9c-0.69,0.04-0.96-0.21-1.07-0.97
			c-0.11-0.77,0.02-1.82-0.43-2.24c-0.45-0.43-1.49-0.29-2.27-0.29c-0.86,0-1.88-0.14-2.56,0.25c-0.82,0.48-0.29,1.61-0.4,2.45
			c-0.08,0.62-0.53,0.94-1.18,0.82c-0.45-0.09-0.7-0.36-0.71-0.81c-0.03-1.04-0.03-2.07-0.05-3.11
			C69.27,116.52,69.27,116.12,69.28,115.72C69.27,115.72,69.27,115.72,69.28,115.72z M73.87,115.03c0-0.01,0-0.01,0-0.02
			c0.71,0,1.43,0.03,2.14-0.02c0.2-0.01,0.55-0.19,0.57-0.33c0.1-0.69,0.23-1.41,0.11-2.07c-0.13-0.68-0.85-0.57-1.39-0.58
			c-0.87-0.01-1.74-0.02-2.62,0.02c-1.26,0.05-1.45,0.29-1.42,1.61c0.03,1.13,0.22,1.32,1.43,1.39
			C73.08,115.05,73.47,115.03,73.87,115.03z"/>
		<path d="M111.92,115.34c0-1.52-0.01-3.03,0-4.55c0-0.63,0.27-1.11,0.97-1.11c2.23-0.02,4.47-0.01,6.7,0.01
			c0.49,0,0.94,0.14,1.09,0.73c0.18,0.72-0.14,1.31-0.87,1.38c-0.95,0.09-1.91,0.1-2.87,0.14c-0.72,0.03-1.44,0.01-2.15,0.07
			c-0.56,0.04-0.83,0.39-0.82,0.96c0.01,0.54,0.19,0.98,0.77,1.02c1.19,0.07,2.39,0.05,3.59,0.1c1,0.04,1.23,0.25,1.23,1.04
			c0,0.94-0.22,1.14-1.35,1.17c-1.04,0.03-2.08-0.01-3.11,0.04c-0.9,0.04-1.16,0.34-1.13,1.16c0.03,0.81,0.28,1.1,1.18,1.15
			c1.03,0.06,2.07,0.04,3.11,0.07c0.64,0.01,1.28,0,1.91,0.07c0.57,0.06,0.77,0.47,0.78,1.01c0.01,0.54-0.17,0.92-0.74,1.04
			c-0.08,0.02-0.16,0.03-0.24,0.03c-2.31,0.02-4.63,0.05-6.94,0.04c-0.72-0.01-1.02-0.32-1.04-1.03c-0.03-1.51-0.01-3.03-0.01-4.55
			C111.97,115.34,111.95,115.34,111.92,115.34z"/>
		<path d="M106.7,112.16c-1.02-0.07-1.7-0.13-2.38-0.16c-0.96-0.05-1.91-0.05-2.87-0.14c-0.54-0.05-0.81-0.43-0.85-0.98
			c-0.05-0.72,0.19-1.14,0.86-1.15c2.63-0.03,5.26-0.02,7.9,0c0.59,0.01,0.75,0.45,0.8,0.98c0.08,0.88-0.31,1.53-0.9,2.11
			c-1.36,1.34-2.72,2.7-4.07,4.05c-0.34,0.34-0.69,0.67-0.97,1.05c-0.07,0.1,0.05,0.49,0.17,0.54c0.28,0.13,0.61,0.16,0.93,0.18
			c0.88,0.04,1.75,0.05,2.63,0.08c1.86,0.06,2.14,0.22,2.12,1.19c-0.02,0.89-0.29,1.03-2.23,1.07c-1.68,0.03-3.35,0.02-5.03,0.02
			c-0.32,0-0.64,0-0.96-0.03c-1.08-0.1-1.33-0.45-1.25-1.57c0.06-0.86,0.49-1.48,1.08-2.05c1.37-1.33,2.72-2.7,4.06-4.06
			C106.01,113.02,106.23,112.71,106.7,112.16z"/>
		<path d="M89.9,109.7c1.02-0.06,1.52,0.26,1.89,0.86c0.59,0.95,1.19,1.88,1.82,2.8c0.4,0.58,0.73,0.6,1.1,0.08
			c0.64-0.91,1.26-1.84,1.87-2.77c0.31-0.48,0.63-0.96,1.26-0.97c0.38,0,0.89,0,1.1,0.23c0.17,0.18,0.08,0.77-0.09,1.06
			c-0.64,1.1-1.33,2.18-2.05,3.22c-1.02,1.48-1.78,3.02-1.53,4.89c0.04,0.31-0.01,0.64-0.03,0.95c-0.04,0.58-0.4,0.81-0.95,0.83
			c-0.69,0.02-1.04-0.26-1.12-0.93c-0.03-0.24-0.06-0.48-0.03-0.71c0.32-1.96-0.46-3.55-1.57-5.08c-0.75-1.03-1.42-2.12-2.06-3.22
			c-0.17-0.29-0.24-0.74-0.16-1.06C89.39,109.73,89.9,109.7,89.9,109.7z"/>
		<path d="M80.86,115.31c0-1.6-0.02-3.19,0.01-4.79c0.01-0.64,0.9-1.07,1.43-0.68c0.27,0.2,0.5,0.63,0.51,0.97
			c0.06,1.35,0.04,2.71,0.05,4.07c0.01,0.88-0.02,1.76,0.03,2.63c0.05,0.89,0.26,1.09,1.2,1.15c1.04,0.06,2.08,0.05,3.11,0.07
			c0.72,0.02,1.44,0.01,2.15,0.06c0.8,0.06,1,0.29,1.03,1.01c0.04,0.7-0.21,1.06-0.94,1.08c-2.47,0.08-4.95,0.13-7.42,0.14
			c-0.85,0-1.14-0.31-1.16-1.17C80.84,118.35,80.86,116.83,80.86,115.31z"/>
		<path d="M72.39,57.01c-0.35,0.8-0.6,1.19-0.7,1.61c-0.7,3.03-1.37,6.08-2.07,9.11c-0.2,0.85-0.39,1.72-0.71,2.53
			c-0.11,0.29-0.59,0.59-0.91,0.6c-0.33,0.01-0.75-0.25-0.98-0.52c-0.25-0.29-0.34-0.72-0.47-1.09c-0.42-1.12-0.79-2.26-1.25-3.37
			c-0.27-0.65-0.66-1.26-0.99-1.89c-0.95,0.01-0.87,1.01-1.38,1.44c-0.3,0.25-0.63,0.61-0.96,0.63c-1.27,0.07-2.54,0.06-3.81,0
			c-0.22-0.01-0.61-0.42-0.59-0.62c0.03-0.35,0.24-0.85,0.51-0.98c0.49-0.22,1.09-0.32,1.62-0.26c1.38,0.16,2.06-0.5,2.47-1.71
			c0.23-0.67,0.59-1.32,0.98-1.92c0.79-1.23,1.67-1.21,2.31,0.07c0.39,0.78,0.66,1.63,1,2.43c0.31,0.72,0.64,1.42,1.14,2.51
			c0.34-0.95,0.62-1.5,0.74-2.08c0.66-3.13,1.27-6.26,1.92-9.39c0.24-1.17,0.5-2.34,0.8-3.5c0.25-0.97,0.57-1.24,1.21-1.24
			c0.66,0,1.03,0.36,1.21,1.23c0.51,2.5,0.98,5.01,1.5,7.51c0.85,4.06,1.72,8.12,2.6,12.18c0.1,0.45,0.31,0.88,0.53,1.49
			c0.85-1.46,0.93-2.92,1.26-4.3c0.66-2.71,1.22-5.45,1.83-8.18c0.09-0.39,0.09-0.83,0.29-1.15c0.19-0.29,0.56-0.56,0.9-0.65
			c0.49-0.13,0.97,0.06,1.19,0.57c0.22,0.51,0.38,1.05,0.54,1.58c0.66,2.14,1.29,4.28,1.96,6.41c0.14,0.45,0.39,0.86,0.71,1.54
			c0.62-0.97,1.14-1.75,1.63-2.55c0.37-0.6,0.86-0.9,1.57-0.88c1.28,0.03,2.56,0.02,3.84,0.04c0.24,0,0.56-0.01,0.69,0.13
			c0.25,0.26,0.48,0.6,0.55,0.95c0.1,0.45-0.21,0.78-0.66,0.81c-0.95,0.07-1.91,0.1-2.87,0.08c-0.91-0.02-1.53,0.36-1.95,1.13
			c-0.46,0.84-0.9,1.69-1.37,2.53c-0.23,0.41-0.45,0.86-0.77,1.2c-0.67,0.69-1.83,0.46-2.15-0.46c-0.53-1.51-0.96-3.04-1.45-4.57
			c-0.22-0.68-0.46-1.36-0.72-2.03c-0.04-0.1-0.25-0.2-0.35-0.18c-0.13,0.03-0.29,0.17-0.34,0.3c-0.13,0.37-0.23,0.76-0.31,1.15
			c-0.78,3.59-1.56,7.18-2.34,10.77c-0.17,0.78-0.32,1.57-0.55,2.33c-0.17,0.55-0.55,1.09-1.19,0.95c-0.38-0.08-0.79-0.51-0.99-0.88
			c-0.26-0.48-0.35-1.06-0.46-1.61c-1.03-5-2.05-10.01-3.09-15.02C73.22,60.35,72.84,58.9,72.39,57.01z"/>
	</g>
</g>
<g id="BYPASS">
</g>
</svg>
