<?xml version="1.0" encoding="utf-8"?>
<!-- Generator: Adobe Illustrator 28.0.0, SVG Export Plug-In . SVG Version: 6.00 Build 0)  -->
<svg version="1.1" xmlns="http://www.w3.org/2000/svg" xmlns:xlink="http://www.w3.org/1999/xlink" x="0px" y="0px"
	 viewBox="0 0 162 156" style="enable-background:new 0 0 162 156;" xml:space="preserve">
<g id="Layer_1">
</g>
<g id="KICK">
</g>
<g id="SNARE">
</g>
<g id="BASS">
</g>
<g id="GUITAR">
</g>
<g id="VOCALS">
</g>
<g id="EQ">
</g>
<g id="COMP">
</g>
<g id="FADER">
</g>
<g id="MUTE">
</g>
<g id="SOLO">
</g>
<g id="SETTINGS">
</g>
<g id="HELP">
	<g>
		<path d="M106.69,71.79c0.19,16.75-13.69,30.5-30.03,30.41c-17.73-0.09-30.58-14.5-30.42-30.86C46.4,56.07,58.78,41.6,76.72,41.63
			C94.18,41.66,106.87,56.25,106.69,71.79z M76.61,45.1C63.83,44.6,49.67,55.2,49.74,71.83c0.07,17.09,14.32,26.86,26.82,26.9
			c13.98,0.04,26.93-11.87,26.76-27.22C103.16,56.47,90.38,44.74,76.61,45.1z"/>
		<path d="M66.94,116.61c0-1.44-0.02-2.88,0.01-4.31c0.02-1.07,0.25-1.33,1.23-1.34c2.23-0.01,4.47,0.02,6.7,0.06
			c0.52,0.01,0.89,0.29,0.93,0.88c0.05,0.68-0.2,1.09-0.88,1.17c-0.79,0.09-1.59,0.1-2.39,0.13c-0.88,0.03-1.76,0.03-2.63,0.07
			c-0.58,0.03-0.83,0.4-0.81,0.95c0.01,0.52,0.18,0.99,0.76,1.03c1.19,0.08,2.39,0.07,3.59,0.14c0.91,0.05,1.2,0.47,1.07,1.43
			c-0.06,0.44-0.27,0.75-0.75,0.76c-1.28,0.03-2.55,0.03-3.83,0.06c-0.53,0.01-0.9,0.21-0.92,0.84c-0.03,0.94,0.18,1.35,0.89,1.4
			c1.03,0.07,2.07,0.06,3.11,0.1c0.72,0.02,1.44,0.03,2.15,0.12c0.59,0.07,0.71,0.53,0.71,1.06c0,0.55-0.23,0.91-0.79,1.01
			c-0.24,0.04-0.48,0.06-0.71,0.06c-2,0.04-3.99,0.09-5.99,0.09c-1.12,0-1.42-0.3-1.44-1.39C66.93,119.48,66.94,118.05,66.94,116.61
			C66.94,116.61,66.94,116.61,66.94,116.61z"/>
		<path d="M88.42,116.55c0-1.43-0.03-2.87,0.01-4.3c0.03-1.09,0.23-1.33,1.21-1.35c1.91-0.04,3.82-0.08,5.73,0
			c2.06,0.09,2.62,0.75,2.65,2.84c0.01,0.8,0.03,1.6-0.04,2.39c-0.14,1.46-0.8,2.14-2.28,2.28c-1.03,0.1-2.07,0.05-3.1,0.07
			c-0.4,0.01-0.8,0.01-1.19,0.05c-0.54,0.05-0.89,0.33-0.93,0.89c-0.05,0.63-0.04,1.27-0.09,1.91c-0.04,0.58-0.41,0.81-0.96,0.82
			c-0.55,0.01-0.94-0.22-0.95-0.81c-0.02-1.59-0.01-3.18-0.01-4.77C88.46,116.55,88.44,116.55,88.42,116.55z M93.24,113.25
			c0,0,0,0.01,0,0.01c-0.55,0-1.11-0.03-1.66,0.01c-0.83,0.05-1.05,0.32-1.08,1.22c-0.01,0.16-0.01,0.32,0,0.47
			c0.06,0.83,0.31,1.12,1.17,1.16c1.1,0.05,2.21,0.04,3.32-0.01c0.27-0.01,0.67-0.2,0.78-0.42c0.32-0.66,0.37-1.44-0.08-2.02
			c-0.22-0.29-0.82-0.33-1.26-0.41C94.04,113.2,93.64,113.25,93.24,113.25z"/>
		<path d="M64.97,116.77c0,1.51,0.03,3.03-0.01,4.54c-0.02,0.6-0.58,0.9-1.21,0.76c-0.46-0.1-0.66-0.41-0.67-0.84
			c-0.02-0.88-0.01-1.75-0.03-2.63c-0.01-0.55-0.27-0.93-0.85-0.94c-1.35-0.02-2.71-0.02-4.06,0.02c-0.56,0.01-0.85,0.39-0.86,0.94
			c-0.03,0.88-0.02,1.75-0.05,2.63c-0.02,0.57-0.33,0.85-0.89,0.88c-0.68,0.03-1.06-0.25-1.06-0.96c-0.02-3.03-0.03-6.05,0.01-9.08
			c0-0.33,0.26-0.81,0.53-0.94c0.63-0.31,1.37-0.14,1.42,0.67c0.03,0.64,0,1.27,0.02,1.91c0.04,1.48,0.12,1.56,1.69,1.61
			c0.88,0.03,1.75,0.04,2.63,0.01c1.33-0.04,1.42-0.15,1.47-1.58c0.02-0.48-0.01-0.96,0-1.43c0.04-1.03,0.24-1.3,0.95-1.34
			c0.73-0.04,1.03,0.27,1.05,1.24c0.03,1.51,0.01,3.03,0.01,4.54C65.03,116.77,65,116.77,64.97,116.77z"/>
		<path d="M82.42,122.16c-1.27,0-2.54,0.02-3.82-0.01c-0.66-0.01-1.01-0.4-1.01-1.07c-0.02-3.02-0.06-6.04-0.05-9.07
			c0-0.76,0.3-0.99,1.02-1.02c0.83-0.03,1.15,0.23,1.15,1.12c0.02,2.15-0.02,4.29-0.01,6.44c0.01,1.22,0.16,1.39,1.36,1.43
			c1.67,0.06,3.34,0.04,5.01,0.07c0.49,0.01,0.93,0.13,1.1,0.7c0.25,0.86-0.08,1.47-0.94,1.51c-1.27,0.05-2.54,0.01-3.82,0.01
			C82.42,122.24,82.42,122.2,82.42,122.16z"/>
		<path d="M67.12,64.34c-0.8,0-1.6,0.05-2.4-0.01c-0.78-0.06-1.13-0.47-1.11-1.27c0.03-1.62,0.41-3.16,1.14-4.61
			c1.78-3.5,4.6-5.67,8.44-6.48c3.27-0.69,6.52-0.63,9.65,0.68c3.62,1.51,6.94,5.26,6.65,10.42c-0.11,1.98-0.63,3.8-1.87,5.34
			c-0.9,1.11-1.93,2.13-2.93,3.16c-0.45,0.45-0.95,0.86-1.47,1.23c-2.3,1.64-3.62,3.75-3.53,6.68c0.04,1.09-0.22,1.28-1.26,1.31
			c-1.36,0.05-2.72,0.05-4.08,0.01c-1.12-0.03-1.43-0.32-1.48-1.44c-0.18-3.8,0.94-7.08,3.93-9.6c1.16-0.98,2.29-2,3.39-3.04
			c1.32-1.25,1.71-2.85,1.54-4.6c-0.11-1.16-0.62-2.13-1.52-2.9c-2.68-2.3-7.33-1.23-8.69,2.03c-0.31,0.73-0.49,1.52-0.72,2.28
			c-0.16,0.51-0.51,0.81-1.05,0.83C68.88,64.36,68,64.35,67.12,64.34C67.12,64.34,67.12,64.34,67.12,64.34z"/>
		<path d="M76.52,84.14c1.97-0.15,3.88,1.29,3.98,4.11c0.07,1.93-1.72,4.22-4.08,4.07c-2.2-0.13-3.99-1.94-3.96-4.21
			C72.48,85.66,74.07,84.11,76.52,84.14z"/>
	</g>
</g>
<g id="PRESETS">
</g>
<g id="ANALYZE">
</g>
<g id="BYPASS">
</g>
</svg>
