<?xml version="1.0" encoding="utf-8"?>
<!-- Generator: Adobe Illustrator 28.0.0, SVG Export Plug-In . SVG Version: 6.00 Build 0)  -->
<svg version="1.1" xmlns="http://www.w3.org/2000/svg" xmlns:xlink="http://www.w3.org/1999/xlink" x="0px" y="0px"
	 viewBox="0 0 162 156" style="enable-background:new 0 0 162 156;" xml:space="preserve">
<g id="Layer_1">
</g>
<g id="KICK">
</g>
<g id="SNARE">
	<g>
		<path d="M82.2,74.65c4.69-0.18,10.09-0.58,15.23-2.64c3.66-1.47,7.16-3.16,10-5.99c4.59-4.58,4.5-10.32,0.46-14.76
			c-0.8-0.88-1.75-1.63-2.63-2.45c-0.66-0.62-0.61-0.93,0.22-1.44c0.96-0.59,1.27-0.6,2.13,0.14c2.2,1.9,3.97,4.15,5.14,6.84
			c0.65,1.5,0.7,3.11,0.69,4.71c-0.01,1.84-0.08,3.68-0.09,5.51c0,1.69-0.28,3.33-0.74,4.96c-0.3,1.06-0.43,2.19-0.49,3.29
			c-0.03,0.51,0.12,1.2,0.46,1.54c0.73,0.73,0.69,1.57,0.7,2.44c0.01,3.04-0.01,6.07,0.05,9.11c0.09,4.27-1.63,7.76-4.64,10.65
			c-3.4,3.27-7.53,5.35-11.95,6.88c-3.96,1.36-8.07,1.95-12.24,2.05c-3.91,0.1-7.82,0.1-11.73-0.45c-5.53-0.78-10.75-2.43-15.5-5.39
			c-3.62-2.25-6.47-5.21-7.93-9.31c-0.49-1.36-0.77-2.76-0.73-4.22c0.07-2.96,0.09-5.91,0.13-8.87c0.02-1.03-0.06-2.06,0.71-2.95
			c0.27-0.32,0.37-0.9,0.34-1.35c-0.08-1.11-0.19-2.23-0.47-3.3c-0.44-1.71-0.77-3.42-0.75-5.2c0.02-1.76,0.01-3.52-0.05-5.27
			c-0.13-3.73,1.25-6.86,3.77-9.54c0.76-0.81,1.59-1.57,2.44-2.29c0.27-0.23,0.75-0.42,1.06-0.33c0.52,0.14,1.18,0.39,1.4,0.8
			c0.32,0.6-0.42,0.92-0.81,1.29c-0.69,0.66-1.46,1.26-2.12,1.95c-1.52,1.58-2.64,3.37-3.07,5.58c-0.5,2.6,0.06,4.91,1.51,7.06
			c2.03,3,4.86,5.02,8.05,6.61C67.28,73.55,74.23,74.71,82.2,74.65z M51.85,90.71l0.06-0.05c0.75,2.1,2.26,3.62,3.92,4.99
			c2.99,2.48,6.43,4.11,10.14,5.21c0.23,0.07,0.47,0.18,0.69,0.14c0.19-0.03,0.44-0.2,0.5-0.37c0.29-0.83,0.02-1.48-0.71-1.76
			c-0.37-0.14-0.77-0.2-1.15-0.33c-4.61-1.49-8.86-3.59-12.28-7.13C52.72,91.1,52.25,90.94,51.85,90.71z M81.9,80.11
			c1.7-0.15,4.24-0.35,6.78-0.6c1.03-0.1,2.05-0.29,3.07-0.48c0.85-0.16,1.05-0.41,1.08-1.29c0.01-0.32,0-0.64-0.04-0.95
			c-0.06-0.44-0.28-0.72-0.79-0.65c-0.47,0.07-0.96,0.09-1.42,0.19c-3.06,0.65-6.15,0.83-9.27,0.85c-3.6,0.03-7.16-0.27-10.7-0.93
			c-1.6-0.3-2.06,0.25-1.73,1.79c0.18,0.81,0.88,0.85,1.48,0.96C73.89,79.67,77.46,80.04,81.9,80.11z M82.5,103.18
			c1.42-0.14,4.05-0.38,6.67-0.68c0.95-0.11,1.89-0.34,2.81-0.58c0.7-0.18,0.9-0.67,0.72-1.52c-0.14-0.67-0.63-0.64-1.11-0.51
			c-2.41,0.65-4.89,0.73-7.35,0.98c-3.7,0.39-7.34-0.01-10.98-0.5c-1.18-0.16-2.36-0.41-3.54-0.6c-0.55-0.09-0.85,0.27-0.81,0.88
			c0.03,0.51,0.18,0.93,0.75,1.08c0.54,0.14,1.07,0.33,1.62,0.43C74.59,102.77,77.92,103.14,82.5,103.18z M111.29,65.33
			c-2.84,3.83-6.28,6.09-10.05,7.86c-1.79,0.84-3.72,1.38-5.58,2.08c-1.08,0.41-1.22,0.63-1.23,1.75c-0.01,1.12,0.32,1.38,1.48,1.04
			c3.38-0.98,6.58-2.39,9.54-4.3c1.89-1.22,3.48-2.78,4.79-4.61C110.95,68.18,111.49,67.14,111.29,65.33z M67.31,77
			c0.02-1.29-0.07-1.41-1.34-1.83c-0.38-0.12-0.76-0.24-1.13-0.37c-5.37-1.83-10.23-4.42-13.73-9.07c-0.1-0.13-0.37-0.12-0.56-0.17
			c-0.03,0.15-0.11,0.31-0.09,0.46c0.2,1.85,1.28,3.22,2.48,4.52c2.81,3.07,6.38,4.97,10.18,6.49c0.96,0.38,1.94,0.71,2.93,1.02
			c0.89,0.28,1.22,0.04,1.26-0.8C67.31,77.16,67.31,77.08,67.31,77z M95.63,89.46c0,0,0.01,0,0.01,0c0-0.56,0.01-1.11,0-1.67
			c-0.02-1.25,0.2-2.55-0.95-3.53c-0.24-0.21-0.23-0.73-0.3-1.11c-0.07-0.39-0.06-0.79-0.18-1.16c-0.05-0.15-0.34-0.26-0.54-0.29
			c-0.11-0.02-0.35,0.13-0.36,0.23c-0.16,1.43-0.59,2.72-1.5,3.87c-0.2,0.26-0.09,0.77-0.1,1.17c-0.02,1.11-0.02,2.22-0.03,3.34
			c0,0.95-0.04,1.91,0.02,2.86c0.05,0.91,1.17,2.29,1.88,2.14c0.62-0.13,1.22-0.67,1.67-1.17c0.28-0.3,0.33-0.87,0.35-1.33
			C95.66,91.69,95.63,90.57,95.63,89.46z M66.19,89.28c0.02,0,0.04,0,0.05,0c0,1.03,0.07,2.07-0.02,3.1
			c-0.1,1.29,0.66,2.07,1.48,2.83c0.13,0.13,0.48,0.18,0.64,0.1c1-0.52,1.93-1.06,1.86-2.46c-0.08-1.82-0.02-3.65-0.02-5.48
			c0-1.11,0.07-2.23-1.01-3.02c-0.25-0.18-0.28-0.7-0.36-1.07c-0.09-0.38-0.08-0.79-0.2-1.16c-0.06-0.18-0.32-0.38-0.5-0.39
			c-0.15-0.01-0.45,0.21-0.47,0.36c-0.17,1.08-0.1,2.22-1.17,2.98c-0.24,0.17-0.25,0.73-0.26,1.12
			C66.16,87.21,66.19,88.25,66.19,89.28z M110.21,90.71c-0.28,0.05-0.48,0.03-0.56,0.11c-3.88,3.96-8.59,6.5-13.86,8.08
			c-0.3,0.09-0.6,0.23-0.87,0.39c-0.36,0.21-0.53,1.07-0.28,1.52c0.24,0.44,0.65,0.33,1.04,0.22c3.07-0.91,5.97-2.17,8.64-3.95
			c1.66-1.11,3.18-2.39,4.45-3.94C109.34,92.42,109.93,91.7,110.21,90.71z"/>
		<path d="M76.01,59.05c-0.73,0.1-1.49-0.29-1.96-1.13c-0.89-1.61-2.37-2.54-3.82-3.54c-6.98-4.79-13.96-9.59-20.92-14.41
			c-0.51-0.36-0.99-0.81-1.37-1.3c-0.49-0.64-0.25-1.43,0.45-1.83c0.59-0.34,1.22-0.44,1.83-0.09c0.62,0.35,1.23,0.75,1.79,1.19
			c4.63,3.55,9.26,7.1,13.87,10.67c2.34,1.81,4.65,3.65,6.96,5.49c0.71,0.57,1.49,0.95,2.39,1.02c1.14,0.09,1.91,0.75,2.53,1.62
			c0.74,1.02,0.26,2.09-1,2.26C76.59,59.02,76.43,59.02,76.01,59.05z"/>
		<path d="M85.34,58.95c-0.12-0.07-0.68-0.25-1-0.62c-0.48-0.56-0.21-1.21,0.15-1.77c0.51-0.77,1.19-1.32,2.14-1.37
			c1.03-0.06,1.78-0.6,2.55-1.2c5.35-4.16,10.71-8.3,16.08-12.44c1.83-1.41,3.69-2.8,5.55-4.16c0.44-0.32,0.96-0.58,1.48-0.75
			c0.69-0.23,1.54,0.14,1.87,0.72c0.29,0.5,0.21,1.21-0.42,1.72c-1.68,1.34-3.39,2.66-5.16,3.88c-4.6,3.17-9.24,6.28-13.86,9.41
			c-1.52,1.03-3.02,2.08-4.55,3.11c-0.8,0.54-1.56,1.05-1.91,2.05C87.87,58.65,86.91,59.02,85.34,58.95z"/>
		<path d="M81.76,39.59c5.09,0.15,10.48,0.71,15.67,2.51c0.75,0.26,1.47,0.6,2.16,0.98c0.14,0.08,0.21,0.63,0.09,0.8
			c-0.63,0.92-1.27,1.11-2.48,0.79c-2.16-0.56-4.3-1.22-6.48-1.68c-5.21-1.11-10.47-1.08-15.74-0.54c-3.35,0.35-6.64,0.97-9.81,2.11
			c-0.83,0.3-1.53,0.24-2.21-0.38c-0.65-0.6-0.64-1.12,0.14-1.44c0.88-0.37,1.78-0.7,2.7-0.99C70.88,40.14,76.11,39.67,81.76,39.59z
			"/>
		<path d="M97.72,125.91c-1.26,0.39-2.16,0.42-2.78-0.78c-0.32-0.63-0.88-1.14-1.24-1.75c-0.5-0.85-1.18-1.21-2.16-1.18
			c-1.13,0.03-1.32,0.17-1.37,1.4c-0.02,0.56-0.02,1.11-0.03,1.67c-0.02,0.59-0.34,0.84-0.91,0.85c-0.54,0.01-0.93-0.18-1.01-0.76
			c-0.03-0.24-0.06-0.47-0.06-0.71c-0.03-2.79-0.07-5.58-0.06-8.36c0-1.21,0.22-1.43,1.37-1.46c1.83-0.04,3.67-0.08,5.5-0.02
			c2.01,0.07,2.69,0.76,2.84,2.77c0.05,0.71,0,1.43-0.01,2.15c-0.02,0.84-0.38,1.51-0.96,2.12c-0.85,0.89-0.83,0.91-0.28,1.91
			C96.92,124.44,97.29,125.12,97.72,125.91z M92.74,120.06c0-0.01,0-0.01,0-0.02c0.64,0,1.28,0.02,1.92-0.01
			c0.66-0.03,0.99-0.43,1.03-1.08c0.01-0.24,0.03-0.48,0.01-0.72c-0.05-0.81-0.33-1.12-1.2-1.16c-1.04-0.05-2.08-0.05-3.11-0.02
			c-1.02,0.03-1.19,0.25-1.22,1.32c-0.04,1.42,0.13,1.6,1.62,1.68C92.1,120.07,92.42,120.06,92.74,120.06z"/>
		<path d="M57.94,126.12c-0.88,0-1.76,0.05-2.63-0.01c-1.04-0.08-1.69-0.74-1.93-1.81c-0.16-0.7,0.36-1.24,1.1-1.14
			c0.16,0.02,0.35,0,0.47,0.08c1.5,1.16,3.23,0.54,4.87,0.6c0.7,0.02,0.95-0.35,0.95-1.09c-0.01-0.72-0.24-1.01-0.99-1.07
			c-1.35-0.1-2.72-0.1-4.06-0.24c-1.88-0.2-2.32-0.7-2.44-2.59c-0.04-0.71-0.06-1.45,0.08-2.14c0.19-1.03,0.87-1.78,1.93-1.84
			c1.83-0.09,3.67-0.08,5.51-0.02c0.97,0.03,1.65,0.65,1.89,1.57c0.11,0.4,0.08,1.06-0.17,1.28c-0.28,0.24-1.09,0.32-1.31,0.1
			c-1.42-1.42-3.15-0.71-4.75-0.78c-0.8-0.03-1.11,0.4-1.14,1.21c-0.03,0.67,0.27,1.06,0.96,1.1c0.8,0.06,1.6,0.04,2.39,0.05
			c0.48,0.01,0.96-0.01,1.44,0.01c2.15,0.09,2.71,0.63,2.78,2.7c0.02,0.56,0.03,1.12-0.03,1.68c-0.16,1.45-1.06,2.28-2.51,2.35
			c-0.8,0.04-1.6,0.01-2.4,0.01C57.94,126.13,57.94,126.13,57.94,126.12z"/>
		<path d="M86.08,121.18c0,1.35,0.01,2.71-0.01,4.06c-0.01,0.55-0.31,0.87-0.89,0.89c-0.71,0.02-1-0.23-1.08-0.94
			c-0.09-0.86,0.09-1.94-0.36-2.51c-0.6-0.75-1.79-0.33-2.72-0.34c-2.19-0.04-2.49-0.17-2.4,2.33c0.01,0.24-0.01,0.48-0.03,0.72
			c-0.05,0.62-0.48,0.76-1,0.76c-0.5,0-0.96-0.08-1.07-0.69c-0.04-0.23-0.05-0.48-0.05-0.71c0-2.31-0.02-4.62,0.03-6.94
			c0.04-2.12,0.79-2.9,2.86-2.99c1.43-0.06,2.87-0.07,4.3-0.02c1.68,0.07,2.3,0.64,2.42,2.33c0.1,1.35,0.02,2.71,0.02,4.06
			C86.1,121.18,86.09,121.18,86.08,121.18z M81.3,120.2c0.45-0.03,1.16-0.06,1.88-0.12c0.57-0.05,0.82-0.41,0.83-0.96
			c0.01-0.4,0-0.8-0.01-1.19c-0.02-0.55-0.31-0.9-0.88-0.91c-1.03-0.02-2.07-0.04-3.1-0.01c-1.21,0.04-1.38,0.23-1.42,1.38
			c-0.06,1.56,0.13,1.76,1.72,1.81C80.56,120.21,80.8,120.2,81.3,120.2z"/>
		<path d="M99.7,120.46c0-1.44-0.04-2.87,0.01-4.31c0.04-1.05,0.3-1.33,1.26-1.35c2.16-0.04,4.31-0.05,6.47-0.02
			c0.85,0.01,1.07,0.33,1.04,1.23c-0.01,0.55-0.21,0.94-0.81,0.95c-1.52,0.03-3.03,0.04-4.55,0.04c-1.3,0-1.48,0.4-1.39,1.62
			c0.03,0.45,0.31,0.74,0.77,0.75c1.2,0.03,2.4,0.02,3.59,0.06c0.77,0.03,1.01,0.31,1,1.01c-0.01,0.73-0.26,1.07-0.95,1.11
			c-1.12,0.06-2.24,0.03-3.35,0.1c-0.83,0.05-1.08,0.39-1.09,1.24c0,0.56,0.24,0.92,0.82,0.94c0.8,0.03,1.6,0.03,2.39,0.03
			c0.88,0,1.76-0.02,2.64,0c0.76,0.02,0.98,0.28,1.01,1.02c0.03,0.87-0.22,1.23-1.05,1.24c-2.24,0.03-4.47,0.03-6.71,0.01
			c-0.93-0.01-1.16-0.23-1.18-1.12c-0.04-1.52-0.01-3.03-0.01-4.55C99.64,120.46,99.67,120.46,99.7,120.46z"/>
		<path d="M64.82,120.34c0-1.51-0.02-3.03,0.01-4.54c0.02-0.81,0.46-1.08,1.27-0.99c0.7,0.07,1.18,0.46,1.56,0.99
			c0.89,1.22,1.77,2.45,2.66,3.68c0.33,0.45,0.64,0.91,1,1.34c0.24,0.28,0.6,0.76,0.81,0.71c0.63-0.13,0.35-0.77,0.37-1.18
			c0.04-1.27,0-2.55,0.01-3.82c0-0.4-0.01-0.82,0.13-1.17c0.1-0.23,0.46-0.5,0.7-0.5c0.35,0.01,0.86,0.15,1,0.4
			c0.21,0.39,0.22,0.92,0.22,1.39c0.01,2.71,0,5.42-0.01,8.13c0,0.55,0.1,1.2-0.65,1.34c-0.71,0.13-1.42,0.18-1.92-0.55
			c-0.8-1.19-1.63-2.36-2.46-3.53c-0.6-0.84-1.23-1.67-1.87-2.48c-0.13-0.16-0.39-0.3-0.58-0.29c-0.11,0.01-0.3,0.32-0.3,0.5
			c-0.03,1.27-0.01,2.55-0.02,3.82c0,0.56-0.01,1.12-0.02,1.67c-0.02,0.56-0.28,0.88-0.87,0.88c-0.54,0-0.95-0.17-0.98-0.78
			c-0.05-1.03-0.06-2.07-0.08-3.11c-0.01-0.64,0-1.28,0-1.91C64.8,120.34,64.81,120.34,64.82,120.34z"/>
	</g>
</g>
<g id="BASS">
</g>
<g id="GUITAR">
</g>
<g id="VOCALS">
</g>
<g id="EQ">
</g>
<g id="COMP">
</g>
<g id="FADER">
</g>
<g id="MUTE">
</g>
<g id="SOLO">
</g>
<g id="SETTINGS">
</g>
<g id="HELP">
</g>
<g id="PRESETS">
</g>
<g id="ANALYZE">
</g>
<g id="BYPASS">
</g>
</svg>
