<?xml version="1.0" encoding="utf-8"?>
<!-- Generator: Adobe Illustrator 28.0.0, SVG Export Plug-In . SVG Version: 6.00 Build 0)  -->
<svg version="1.1" xmlns="http://www.w3.org/2000/svg" xmlns:xlink="http://www.w3.org/1999/xlink" x="0px" y="0px"
	 viewBox="0 0 162 156" style="enable-background:new 0 0 162 156;" xml:space="preserve">
<g id="Layer_1">
</g>
<g id="KICK">
</g>
<g id="SNARE">
</g>
<g id="BASS">
</g>
<g id="GUITAR">
</g>
<g id="VOCALS">
</g>
<g id="EQ">
</g>
<g id="COMP">
</g>
<g id="FADER">
</g>
<g id="MUTE">
</g>
<g id="SOLO">
</g>
<g id="SETTINGS">
</g>
<g id="HELP">
</g>
<g id="PRESETS">
</g>
<g id="ANALYZE">
</g>
<g id="BYPASS">
	<g>
		<path d="M74.12,85.1c-5.36,0-10.72-0.02-16.07,0.01c-9.2,0.05-16.04-6.79-17.56-14.78c-2.07-10.89,6.98-20.84,17.49-20.81
			c5.6,0.02,11.2,0.01,16.79,0.03c4.96,0.02,9.92,0.06,14.87,0.06c3.99,0,7.56,1.22,10.67,3.67c4.04,3.18,6.37,7.39,6.78,12.48
			c0.56,7.05-2.31,12.6-8.06,16.64c-2.63,1.84-5.65,2.56-8.84,2.57c-5.36,0.01-10.72,0-16.07,0C74.12,85.02,74.12,85.06,74.12,85.1z
			 M73.81,81.99c5.2,0,10.39,0.03,15.59-0.02c1.34-0.01,2.72-0.17,4.02-0.51c10.82-2.85,13.64-15.9,7.51-23.28
			c-2.94-3.53-6.68-5.4-11.27-5.42c-10.71-0.04-21.42-0.04-32.13-0.01c-3.13,0.01-5.95,1.02-8.44,2.96
			c-7.1,5.54-7.47,15.78-1.77,21.61c2.95,3.01,6.45,4.65,10.66,4.67C63.26,82.02,68.53,81.99,73.81,81.99z"/>
		<path d="M44.84,106.41c1.04,0,2.08-0.07,3.11,0.02c1.36,0.12,1.98,0.77,2.13,2.13c0.06,0.55,0.02,1.12,0.05,1.67
			c0.05,0.7,0.15,1.41,0.2,2.11c0.07,1.03,0.21,2.06,0.16,3.09c-0.06,1.22-0.72,2.11-1.85,2.16c-2.38,0.09-4.77-0.02-7.15-0.1
			c-0.21-0.01-0.44-0.38-0.61-0.62c-0.08-0.11-0.07-0.31-0.07-0.46c-0.02-2.87-0.07-5.74-0.04-8.61c0.01-1.15,0.29-1.36,1.44-1.43
			c0.16-0.01,0.32,0,0.48,0c0.72,0,1.44,0,2.15,0C44.84,106.38,44.84,106.4,44.84,106.41z M45.66,113.04
			C45.66,113.04,45.66,113.04,45.66,113.04c-0.64,0.01-1.28-0.01-1.91,0.01c-0.51,0.01-0.93,0.17-0.98,0.79
			c-0.08,0.88,0.16,1.44,0.8,1.48c1.35,0.07,2.71,0.08,4.06,0.05c0.55-0.01,0.8-0.41,0.86-0.96c0.1-0.96-0.17-1.31-1.15-1.37
			C46.77,113.01,46.21,113.04,45.66,113.04z M45.03,108.68c-0.17,0.01-0.88,0.02-1.58,0.11c-0.48,0.05-0.6,0.44-0.6,0.87
			c0,0.42,0.1,0.79,0.53,0.96c0.14,0.06,0.31,0.09,0.46,0.09c1.03,0.01,2.06,0.04,3.09,0c0.89-0.03,1.2-0.37,1.19-1.12
			c0-0.62-0.27-0.85-1.12-0.89C46.53,108.66,46.05,108.68,45.03,108.68z"/>
		<path d="M90.64,117.78c-0.96-0.07-1.93-0.06-2.86-0.23c-0.5-0.1-1.03-0.43-1.39-0.81c-0.44-0.45-0.76-1.06-0.54-1.74
			c0.15-0.45,1.1-0.53,1.95-0.06c1.6,0.88,3.26,0.43,4.89,0.29c0.57-0.05,0.56-0.68,0.56-1.17c0-0.56-0.24-0.91-0.83-0.94
			c-0.72-0.03-1.44-0.03-2.16-0.04c-0.72-0.01-1.44,0.03-2.16-0.04c-1.29-0.13-1.87-0.64-2.15-1.88c-0.12-0.54-0.18-1.11-0.18-1.66
			c-0.01-2.28,0.67-3.03,2.94-3.12c1.51-0.06,3.04-0.06,4.55,0.05c1.17,0.08,1.71,0.67,1.96,1.77c0.17,0.74-0.3,1.23-1.08,1.14
			c-0.16-0.02-0.35,0.01-0.47-0.07c-1.53-1.05-3.25-0.5-4.89-0.57c-0.57-0.02-0.86,0.33-0.87,0.9c-0.01,0.72,0.26,1.1,0.92,1.14
			c0.96,0.05,1.92,0.03,2.88,0.04c0.56,0.01,1.12-0.02,1.68,0.05c0.76,0.1,1.42,0.51,1.65,1.22c0.48,1.48,0.4,3.01-0.08,4.47
			c-0.24,0.74-0.91,1.12-1.68,1.16c-0.88,0.05-1.76,0.01-2.64,0.01C90.64,117.73,90.64,117.75,90.64,117.78z"/>
		<path d="M101.83,117.72c-0.95-0.06-1.92-0.06-2.86-0.21c-1.03-0.16-1.62-0.88-1.79-1.96c-0.08-0.53,0.26-0.92,0.83-0.91
			c0.31,0.01,0.71-0.03,0.92,0.14c1.43,1.11,3.06,0.6,4.62,0.6c0.86,0,1.33-0.91,0.96-1.75c-0.1-0.23-0.45-0.49-0.7-0.51
			c-0.95-0.07-1.91-0.04-2.87-0.05c-0.56-0.01-1.12-0.01-1.67-0.05c-0.98-0.07-1.74-0.57-1.88-1.54c-0.16-1.17-0.22-2.38-0.1-3.55
			c0.09-0.82,0.71-1.44,1.64-1.47c1.91-0.05,3.82-0.14,5.73-0.06c1.22,0.05,1.86,0.85,1.97,2c0.05,0.54-0.27,0.93-0.84,0.91
			c-0.38-0.01-0.8-0.07-1.13-0.24c-1.53-0.77-3.12-0.35-4.69-0.32c-0.47,0.01-0.68,0.44-0.6,0.86c0.07,0.35,0.24,0.8,0.51,0.97
			c0.3,0.19,0.77,0.14,1.16,0.15c1.12,0.02,2.24-0.03,3.35,0.03c1.45,0.08,2.15,0.8,2.23,2.27c0.04,0.71,0.04,1.44-0.02,2.15
			c-0.14,1.61-0.81,2.3-2.38,2.44c-0.79,0.07-1.59,0.01-2.39,0.01C101.83,117.67,101.83,117.69,101.83,117.72z"/>
		<path d="M74.27,112.9c0-1.28-0.06-2.56,0.01-3.83c0.11-1.95,0.71-2.56,2.62-2.67c1.43-0.08,2.87-0.1,4.3-0.02
			c1.92,0.1,2.49,0.71,2.64,2.68c0.06,0.71,0.01,1.43-0.01,2.15c-0.03,1.75-0.05,3.51-0.11,5.26c-0.03,0.82-0.28,1.08-0.92,1.1
			c-0.7,0.02-1.01-0.26-1.09-0.96c-0.09-0.77,0.06-1.73-0.35-2.27c-0.55-0.73-1.64-0.27-2.49-0.35c-0.4-0.04-0.8-0.02-1.2,0
			c-1.18,0.06-1.29,0.17-1.34,1.45c-0.02,0.4,0.01,0.8,0,1.2c-0.03,0.81-0.28,1.08-0.94,1.04c-0.83-0.05-1.1-0.31-1.12-1.18
			c-0.02-1.2-0.01-2.39-0.01-3.59C74.28,112.9,74.28,112.9,74.27,112.9z M78.98,111.71c0-0.01,0-0.03,0-0.04
			c0.64,0,1.29,0.08,1.91-0.03c0.31-0.06,0.75-0.44,0.79-0.71c0.24-1.97-0.01-2.27-1.72-2.24c-0.72,0.01-1.44-0.02-2.16,0.01
			c-1.23,0.04-1.4,0.23-1.43,1.38c-0.04,1.41,0.14,1.59,1.65,1.64C78.34,111.72,78.66,111.71,78.98,111.71z"/>
		<path d="M63.18,111.92c0-1.43-0.03-2.87,0.01-4.3c0.03-0.97,0.34-1.31,1.3-1.32c1.99-0.02,3.99-0.05,5.97,0.06
			c1.72,0.09,2.38,0.85,2.46,2.58c0.03,0.64,0.03,1.28-0.02,1.91c-0.16,2.12-1.05,2.99-3.17,3.07c-1.11,0.04-2.23-0.01-3.35,0.03
			c-0.93,0.04-1.06,0.19-1.13,1.16c-0.04,0.56-0.01,1.12-0.06,1.67c-0.06,0.59-0.51,0.76-1.03,0.74c-0.52-0.02-0.95-0.23-0.95-0.83
			c-0.02-1.59-0.01-3.18-0.01-4.78C63.2,111.92,63.19,111.92,63.18,111.92z M68.16,108.71c-0.32,0-0.64,0-0.96,0
			c-0.24,0-0.48,0-0.72,0.02c-0.98,0.07-1.18,0.3-1.19,1.36c-0.01,1.18,0.17,1.41,1.35,1.46c1.04,0.04,2.08,0.03,3.11,0
			c0.53-0.02,0.89-0.33,0.92-0.9c0.1-1.64-0.04-1.95-1.56-1.93C68.8,108.72,68.48,108.71,68.16,108.71z"/>
		<path d="M51.68,106.61c1.26-0.48,2.1-0.16,2.72,0.9c0.53,0.89,1.1,1.75,1.7,2.6c0.36,0.51,0.79,0.52,1.16,0.01
			c0.56-0.77,1.09-1.57,1.6-2.38c0.92-1.46,0.91-1.47,2.99-1.12c-0.2,0.45-0.34,0.9-0.58,1.29c-0.4,0.69-0.85,1.35-1.3,2.01
			c-1.36,1.98-2.66,3.96-2.31,6.57c0.11,0.79-0.27,1.04-0.96,1.03c-0.53-0.01-0.93-0.19-1-0.78c-0.03-0.24-0.08-0.48-0.04-0.71
			c0.35-2.06-0.56-3.68-1.71-5.28C53.04,109.49,52.16,108.17,51.68,106.61z"/>
		<path d="M89.52,55.08c7.07-0.08,12.13,6.27,12.03,12.3c-0.1,5.9-4.68,12.28-12.37,12.27c-6.68-0.01-11.99-5.77-12.06-12.37
			C77.04,60.17,83.41,54.7,89.52,55.08z M98.55,67.28c0.15-5.31-4.26-9.27-9.43-9.39c-3.92-0.09-9.17,3.8-9.15,9.54
			c0.01,4.36,3.91,9.4,9.31,9.36C94.22,76.75,98.76,72.73,98.55,67.28z"/>
	</g>
</g>
</svg>
