<?xml version="1.0" encoding="utf-8"?>
<!-- Generator: Adobe Illustrator 28.0.0, SVG Export Plug-In . SVG Version: 6.00 Build 0)  -->
<svg version="1.1" xmlns="http://www.w3.org/2000/svg" xmlns:xlink="http://www.w3.org/1999/xlink" x="0px" y="0px"
	 viewBox="0 0 162 156" style="enable-background:new 0 0 162 156;" xml:space="preserve">
<g id="Layer_1">
</g>
<g id="KICK">
</g>
<g id="SNARE">
</g>
<g id="BASS">
</g>
<g id="GUITAR">
</g>
<g id="VOCALS">
</g>
<g id="EQ">
</g>
<g id="COMP">
</g>
<g id="FADER">
</g>
<g id="MUTE">
</g>
<g id="SOLO">
</g>
<g id="SETTINGS">
	<g>
		<path d="M119.94,67.97c0,1.04,0.01,2.08,0,3.12c-0.02,1.18-0.63,1.95-1.75,2.29c-1.14,0.35-2.29,0.71-3.45,0.99
			c-0.94,0.22-1.57,0.73-1.94,1.6c-0.09,0.22-0.18,0.44-0.29,0.66c-1.35,2.86-1.35,2.86,0.36,5.62c0.04,0.07,0.09,0.13,0.13,0.2
			c1.96,3.06,1.88,2.94-0.68,5.62c-0.94,0.98-1.88,1.96-2.86,2.9c-1.64,1.58-2.16,1.63-4.2,0.48c-0.77-0.43-1.55-0.85-2.26-1.36
			c-0.97-0.7-1.88-0.66-2.89-0.08c-0.76,0.44-1.57,0.81-2.4,1.08c-0.88,0.28-1.28,0.88-1.47,1.71c-0.27,1.17-0.51,2.34-0.83,3.49
			c-0.51,1.83-0.8,2.11-2.63,2.16c-2,0.06-4,0.05-5.99-0.02c-1.81-0.07-2.13-0.36-2.66-2.16c-0.36-1.22-0.68-2.46-0.99-3.7
			c-0.19-0.76-0.57-1.24-1.36-1.49c-0.83-0.26-1.64-0.64-2.39-1.09c-1.02-0.62-1.89-0.54-2.86,0.14c-0.91,0.64-1.94,1.1-2.91,1.66
			c-1.11,0.64-2.14,0.57-3.05-0.36c-1.63-1.65-3.24-3.31-4.86-4.96c-0.65-0.66-0.69-1.36-0.23-2.16c0.72-1.24,1.37-2.53,2.1-3.76
			c0.45-0.76,0.45-1.46,0.13-2.27c-1.37-3.43-1.35-3.43-4.87-4.47c-3.21-0.94-3.32-1.07-3.35-4.5c-0.02-1.44-0.06-2.88,0.01-4.31
			c0.11-2.21,0.42-2.57,2.53-3.15c1.08-0.29,2.16-0.55,3.25-0.81c0.6-0.14,0.96-0.48,1.16-1.07c0.28-0.83,0.58-1.67,1-2.43
			c0.54-0.96,0.45-1.79-0.08-2.7c-0.65-1.1-1.22-2.24-1.85-3.36c-0.56-1.01-0.65-1.94,0.27-2.82c1.73-1.66,3.43-3.34,5.17-4.99
			c0.75-0.72,1.62-0.6,2.44-0.15c1.12,0.61,2.24,1.23,3.3,1.94c0.83,0.56,1.62,0.57,2.48,0.17c1.16-0.54,2.48-0.88,3.43-1.66
			c1.01-0.82,0.84-2.34,1.17-3.55c0.85-3.05,0.89-3.14,4.05-3.23c1.6-0.05,3.2-0.03,4.79-0.01c1.43,0.01,2.45,0.6,2.77,2.1
			c0.2,0.93,0.47,1.86,0.62,2.8c0.21,1.3,0.82,2.18,2.12,2.6c1.13,0.37,2.25,1.23,3.33,1.16c1.08-0.07,2.11-1.03,3.16-1.6
			c0.07-0.04,0.14-0.07,0.21-0.12c2.46-1.44,2.72-1.43,4.76,0.5c1.16,1.1,2.33,2.2,3.41,3.37c1.56,1.68,1.61,2.24,0.52,4.24
			c-0.54,0.98-1.11,1.94-1.69,2.9c-0.41,0.66-0.55,1.26-0.11,2c0.68,1.16,1.26,2.38,1.88,3.57c1.22,0.36,2.44,0.75,3.66,1.08
			c2.19,0.6,2.59,1.06,2.67,3.31c0.04,0.96,0.01,1.92,0.01,2.88C119.95,67.97,119.95,67.97,119.94,67.97z M117,68.03
			c0-0.48,0.01-0.96,0-1.44c-0.06-1.59-0.12-1.69-1.64-2.19c-1.06-0.34-2.14-0.65-3.2-0.99c-0.81-0.26-1.33-0.76-1.64-1.6
			c-0.52-1.42-1.09-2.83-1.76-4.19c-0.6-1.21-0.53-2.27,0.2-3.38c0.57-0.86,1.09-1.77,1.58-2.68c0.62-1.13,0.59-1.26-0.24-2.08
			c-0.74-0.73-1.49-1.45-2.25-2.16c-0.99-0.91-1.08-0.93-2.3-0.26c-0.98,0.54-1.91,1.16-2.89,1.7c-0.88,0.48-1.75,0.54-2.73,0.04
			c-1.49-0.76-3.04-1.41-4.6-2.02c-0.81-0.32-1.36-0.79-1.61-1.62c-0.14-0.46-0.27-0.92-0.44-1.37c-0.42-1.11-0.85-2.2-1.28-3.3
			c-1.19-0.07-2.38-0.13-3.57-0.2c-0.24-0.01-0.48,0.01-0.72,0c-0.67-0.04-1.04,0.34-1.23,0.92c-0.42,1.29-0.85,2.58-1.22,3.88
			c-0.24,0.84-0.75,1.36-1.54,1.7c-1.54,0.67-3.08,1.32-4.57,2.09c-0.98,0.5-1.83,0.39-2.71-0.13c-1.1-0.65-2.21-1.29-3.31-1.94
			c-0.54-0.32-1.05-0.37-1.53,0.1c-0.97,0.95-1.94,1.9-2.91,2.85c-0.39,0.38-0.45,0.84-0.2,1.31c0.56,1.06,1.08,2.15,1.72,3.16
			c0.77,1.21,0.75,2.36,0.15,3.63c-0.58,1.22-1.1,2.49-1.5,3.78c-0.36,1.12-1.04,1.71-2.15,1.97c-1.09,0.26-2.16,0.6-3.22,0.94
			c-1.17,0.38-1.18,0.4-1.2,1.71c-0.02,1.04-0.01,2.08,0.03,3.12c0.04,1.04,0.15,1.18,1.18,1.51c1.06,0.34,2.13,0.72,3.22,0.93
			c1.19,0.23,1.75,1.01,2.15,2.01c0.53,1.33,0.98,2.7,1.6,4c0.57,1.2,0.54,2.27-0.14,3.4c-0.58,0.95-1.06,1.97-1.61,2.94
			c-0.28,0.49-0.23,0.92,0.13,1.31c0.86,0.94,1.74,1.87,2.61,2.81c0.51,0.55,1.06,0.63,1.71,0.25c1.17-0.68,2.36-1.35,3.55-2
			c0.75-0.41,1.48-0.39,2.28,0c1.43,0.7,2.9,1.31,4.37,1.93c1,0.42,1.78,0.98,2.04,2.15c0.28,1.24,0.7,2.45,1.04,3.69
			c0.19,0.7,0.6,1.11,1.34,1.13c1.12,0.02,2.24,0.07,3.35,0.03c0.78-0.03,1.3-0.4,1.48-1.27c0.25-1.25,0.63-2.47,0.97-3.7
			c0.26-0.9,0.82-1.5,1.74-1.82c1.28-0.46,2.62-0.85,3.75-1.56c1.57-0.99,2.91-0.93,4.45,0c1.07,0.64,2.06,1.5,3.37,1.69
			c0.93-0.86,1.87-1.72,2.8-2.58c0.12-0.11,0.22-0.23,0.33-0.35c0.73-0.83,0.75-0.9,0.25-1.88c-0.65-1.28-1.31-2.56-1.96-3.84
			c-0.32-0.61-0.32-1.2-0.01-1.83c0.43-0.86,0.94-1.71,1.14-2.63c0.58-2.58,2.15-3.81,4.72-4.32
			C116.97,70.84,116.93,70.65,117,68.03z"/>
		<path d="M54.35,107.04c0.96,0,1.91-0.01,2.87,0c0.7,0.01,1.26,0.39,1.53,0.98c0.21,0.47,0.39,1.16,0.19,1.55
			c-0.26,0.51-1.04,0.49-1.51,0.21c-1.58-0.96-3.26-0.39-4.9-0.45c-0.6-0.02-0.77,0.44-0.76,0.98c0.02,0.54,0.21,0.96,0.8,0.99
			c0.95,0.05,1.91,0.04,2.87,0.07c0.64,0.02,1.29-0.03,1.91,0.1c0.93,0.19,1.62,0.78,1.71,1.75c0.09,1.03,0.07,2.07-0.04,3.1
			c-0.11,1.05-0.76,1.85-1.84,1.88c-1.98,0.06-3.97-0.03-5.95-0.12c-0.34-0.02-0.73-0.31-0.98-0.59c-0.5-0.54-0.82-1.21-0.54-1.96
			c0.15-0.42,1.06-0.43,1.95,0.02c1.6,0.81,3.26,0.43,4.9,0.32c0.46-0.03,0.68-0.7,0.58-1.41c-0.06-0.46-0.32-0.74-0.77-0.76
			c-0.95-0.04-1.91-0.03-2.87-0.04c-0.56-0.01-1.12,0.03-1.67-0.03c-1.26-0.12-2.04-0.86-2.17-2.13c-0.08-0.79-0.09-1.6-0.03-2.39
			c0.1-1.34,0.78-1.98,2.11-2.12c0.24-0.02,0.48-0.04,0.72-0.04c0.64-0.01,1.28,0,1.91,0C54.35,106.99,54.35,107.02,54.35,107.04z"
			/>
		<path d="M124.84,107.02c0.88,0,1.76-0.02,2.64,0.01c1.11,0.03,1.72,0.72,2.07,1.7c0.25,0.7-0.22,1.26-0.98,1.19
			c-0.23-0.02-0.5-0.01-0.69-0.13c-1.56-0.97-3.27-0.41-4.91-0.48c-0.55-0.02-0.84,0.38-0.85,0.94c-0.01,0.69,0.27,1.06,0.98,1.08
			c1.2,0.05,2.4,0,3.6,0.04c0.55,0.02,1.14,0.05,1.63,0.26c1.1,0.48,1.39,1.48,1.34,2.59c-0.05,1.32,0.3,2.79-1.12,3.68
			c-0.26,0.17-0.59,0.31-0.89,0.31c-1.91,0.01-3.83,0.05-5.74-0.07c-1.06-0.07-1.66-0.85-1.83-1.92c-0.1-0.65,0.27-1.07,0.94-1.02
			c0.23,0.02,0.53,0,0.69,0.12c1.5,1.2,3.21,0.58,4.84,0.57c0.63,0,0.87-0.45,0.87-1.19c0-0.68-0.27-0.98-1.03-1
			c-1.2-0.04-2.4,0.01-3.6-0.04c-1.85-0.07-2.59-0.81-2.68-2.64c-0.04-0.72-0.07-1.44,0-2.15c0.11-1.08,0.75-1.72,1.87-1.84
			c0.95-0.1,1.91-0.1,2.87-0.14C124.83,106.95,124.83,106.99,124.84,107.02z"/>
		<path d="M104.29,113.49c0.04-1.34,0.07-2.68,0.11-4.02c0.02-0.56,0-1.12,0.06-1.67c0.07-0.62,0.5-0.87,1.22-0.82
			c0.57,0.04,0.88,0.35,0.89,0.9c0.02,1.67,0.02,3.35,0.02,5.02c0,1.28,0.01,2.55-0.02,3.83c-0.01,0.53,0.12,1.21-0.61,1.38
			c-0.71,0.17-1.44,0.19-1.98-0.45c-0.26-0.3-0.45-0.66-0.69-0.98c-1.21-1.68-2.42-3.36-3.65-5.03c-0.13-0.17-0.36-0.26-0.54-0.39
			c-0.12,0.26-0.36,0.51-0.36,0.77c0,1.28,0.06,2.55,0.09,3.83c0.01,0.48,0,0.96-0.02,1.43c-0.03,0.56-0.34,0.86-0.9,0.89
			c-0.72,0.03-1.16-0.24-1.19-0.85c-0.05-0.87-0.03-1.75-0.03-2.63c0-2.15-0.03-4.31,0.02-6.46c0.03-1.22,1.17-1.77,2.17-1.03
			c0.56,0.42,0.98,1.03,1.41,1.6c0.99,1.35,1.95,2.72,2.92,4.09c0.18,0.26,0.34,0.53,0.51,0.79
			C103.9,113.62,104.09,113.55,104.29,113.49z"/>
		<path d="M108.59,112.46c0-1.12-0.06-2.23,0.01-3.35c0.08-1.28,0.65-1.98,1.89-2.05c1.9-0.12,3.82-0.13,5.73-0.04
			c1.12,0.05,1.76,0.79,1.93,1.8c0.12,0.74-0.33,1.25-1.07,1.2c-0.24-0.02-0.53,0.01-0.69-0.11c-1.42-1.09-3.07-0.57-4.62-0.66
			c-0.64-0.04-1.09,0.28-1.11,0.97c-0.03,1.59-0.04,3.19-0.03,4.78c0.01,0.67,0.45,1,1.09,1.01c1.19,0.01,2.39,0,3.58-0.04
			c0.52-0.02,0.9-0.26,0.94-0.86c0.04-0.66-0.14-1.08-0.9-1.08c-0.5,0-0.95-0.12-1.11-0.69c-0.24-0.83,0.13-1.45,0.98-1.47
			c3.09-0.08,2.93-0.3,2.94,2.71c0,0.48,0.01,0.96-0.03,1.43c-0.12,1.59-0.64,2.22-2.16,2.29c-1.67,0.08-3.35,0.06-5.02-0.03
			c-1.58-0.09-2.26-0.85-2.35-2.45c-0.06-1.11-0.01-2.23-0.01-3.35C108.58,112.46,108.59,112.46,108.59,112.46z"/>
		<path d="M61.08,112.75c0-1.52-0.02-3.03,0.01-4.55c0.02-0.93,0.24-1.21,1.09-1.22c2.23-0.04,4.47-0.06,6.7-0.02
			c0.88,0.02,1.16,0.42,1.13,1.2c-0.02,0.56-0.28,0.94-0.83,0.99c-0.79,0.08-1.59,0.08-2.39,0.1c-0.96,0.02-1.92,0-2.87,0.06
			c-0.57,0.04-0.8,0.45-0.77,1c0.03,0.53,0.24,0.96,0.82,0.98c1.27,0.06,2.55,0.04,3.83,0.1c0.7,0.03,0.9,0.33,0.89,1.12
			c-0.01,0.78-0.22,1.04-0.95,1.07c-1.2,0.04-2.39,0-3.59,0.05c-0.8,0.03-1.02,0.29-1.04,0.99c-0.03,0.86,0.23,1.24,1.03,1.28
			c1.59,0.09,3.19,0.08,4.78,0.16c0.79,0.04,1.02,0.31,1.06,1c0.03,0.54-0.16,0.95-0.73,1.05c-0.47,0.08-0.95,0.1-1.43,0.12
			c-1.83,0.06-3.67,0.12-5.5,0.13c-1.01,0-1.23-0.26-1.24-1.31c-0.02-1.44,0-2.87,0-4.31C61.08,112.75,61.08,112.75,61.08,112.75z"
			/>
		<path d="M86.83,106.97c1.27,0,2.55-0.02,3.82,0.01c0.54,0.01,0.85,0.35,0.89,0.92c0.05,0.68-0.21,1.06-0.87,1.2
			c-0.16,0.03-0.31,0.05-0.47,0.07c-0.7,0.09-1.41,0.18-2.11,0.26c-0.1,0.77-0.26,1.55-0.28,2.32c-0.05,1.83-0.03,3.66-0.06,5.49
			c-0.01,0.56-0.33,0.85-0.9,0.9c-0.84,0.07-1.22-0.2-1.27-1c-0.03-0.48-0.02-0.95-0.02-1.43c0-1.43-0.01-2.87,0-4.3
			c0.02-2.04,0.08-2.23-2.03-2.2c-0.16,0-0.32,0-0.48-0.02c-0.91-0.1-1.23-0.39-1.25-1.11c-0.03-0.75,0.3-1.1,1.19-1.13
			c1.27-0.04,2.55-0.01,3.82-0.01C86.83,106.95,86.83,106.96,86.83,106.97z"/>
		<path d="M76.11,106.95c1.2,0,2.4-0.03,3.59,0.01c0.79,0.03,1.13,0.5,0.95,1.28c-0.06,0.26-0.3,0.52-0.53,0.68
			c-0.17,0.12-0.46,0.12-0.7,0.11c-2.87-0.06-2.45,0.51-2.51,2.82c-0.05,1.83-0.03,3.67-0.09,5.5c-0.02,0.68-0.85,1.09-1.41,0.7
			c-0.27-0.19-0.49-0.62-0.5-0.96c-0.07-1.19-0.04-2.39-0.04-3.59c0-0.88,0.02-1.76-0.01-2.63c-0.05-1.5-0.1-1.53-1.68-1.65
			c-0.4-0.03-0.8-0.03-1.19-0.08c-0.56-0.08-0.8-0.43-0.82-0.99c-0.03-0.74,0.19-1.12,0.87-1.14c1.36-0.04,2.71-0.01,4.07-0.01
			C76.11,106.99,76.11,106.97,76.11,106.95z"/>
		<path d="M95.1,112.71c0,1.51,0.02,3.02-0.01,4.53c-0.01,0.78-0.27,1.01-0.99,1.01c-0.85,0.01-1.19-0.28-1.19-1.09
			c-0.02-2.78-0.01-5.56-0.01-8.34c0-0.32,0.03-0.64,0.09-0.95c0.12-0.65,0.5-0.9,1.2-0.85c0.58,0.04,0.85,0.38,0.86,0.92
			c0.01,1.59,0,3.18,0,4.77C95.07,112.71,95.08,112.71,95.1,112.71z"/>
		<path d="M89.94,53.79c7.65,0,13.69,6.15,13.85,13.85c0.16,7.39-5.73,14.27-13.93,14.33c-7.09,0.05-14.11-5.29-14.24-13.78
			C75.47,58.82,83.44,53.4,89.94,53.79z M89.7,78.43c4.74,0.16,10.47-3.36,10.55-10.66c0.06-5.24-3.93-10.41-10.49-10.53
			c-5.62-0.1-10.43,4.65-10.57,10.23C79.03,73.79,83.92,78.47,89.7,78.43z"/>
	</g>
</g>
<g id="HELP">
</g>
<g id="PRESETS">
</g>
<g id="ANALYZE">
</g>
<g id="BYPASS">
</g>
</svg>
