<?xml version="1.0" encoding="utf-8"?>
<!-- Generator: Adobe Illustrator 28.0.0, SVG Export Plug-In . SVG Version: 6.00 Build 0)  -->
<svg version="1.1" xmlns="http://www.w3.org/2000/svg" xmlns:xlink="http://www.w3.org/1999/xlink" x="0px" y="0px"
	 viewBox="0 0 162 156" style="enable-background:new 0 0 162 156;" xml:space="preserve">
<g id="Layer_1">
</g>
<g id="KICK">
	<g>
		<path d="M56.85,81.76c2.03-0.77,3.97-1.5,5.89-2.24c0.81-0.31,1.48-0.22,2.21,0.35c1.44,1.13,2.97,2.13,4.45,3.18
			c0.01,0.67-0.57,0.74-0.95,0.93c-2,0.99-4.03,1.93-6.05,2.9c-0.41,0.2-0.79,0.47-1.48,0.9c1.06,0.33,1.79,0.59,2.53,0.79
			c7.55,2.04,15.1,4.07,22.66,6.1c2.23,0.6,4.46,1.24,6.7,1.83c0.66,0.17,1.13,0.43,1.36,1.16c0.17,0.53,0.71,0.51,1.06,0.04
			c0.14-0.19,0.26-0.4,0.38-0.6c0.6-1.06,0.58-1.01,1.72-0.49c1.89,0.86,3.81,1.65,5.71,2.47c2.07,0.9,4.01,0.77,5.89-0.57
			c0.97-0.7,2.06-1.22,3.07-1.86c0.47-0.3,0.9-0.65,1.31-1.03c0.15-0.14,0.18-0.42,0.27-0.63c-0.22-0.03-0.48-0.16-0.64-0.08
			c-0.79,0.37-1.57,0.79-2.34,1.21c-0.77,0.42-1.57,0.81-2.28,1.31c-1.22,0.87-2.53,1-3.87,0.51c-2.09-0.78-4.15-1.64-6.2-2.53
			c-0.5-0.21-0.92-0.62-1.33-1c-0.33-0.31-0.33-0.71,0.02-1.04c0.11-0.11,0.25-0.2,0.39-0.27c2.54-1.34,5.09-2.68,7.63-4.02
			c0.77-0.41,1.55-0.38,2.3-0.03c1.66,0.78,3.31,1.6,4.96,2.41c0.83,0.41,1.48,1.05,1.66,1.94c0.24,1.16,0.36,2.35,0.39,3.54
			c0.02,0.83-0.48,1.55-1.17,2c-1.94,1.25-3.9,2.49-5.9,3.64c-0.78,0.45-1.69,0.27-2.57,0.03c-5.15-1.44-10.29-2.91-15.46-4.28
			c-10.8-2.87-21.61-5.67-32.42-8.52c-2.55-0.67-5.08-1.39-7.6-2.15c-1.16-0.35-1.44-0.82-1.43-1.91c0.01-1.01,0.39-1.41,1.41-1.57
			c0.68-0.11,1.62,0.32,1.99-0.41c0.33-0.66,0.32-1.53,0.34-2.31c0.12-6.87,0.19-13.74,0.32-20.61c0.02-0.94-0.14-1.73-0.79-2.41
			c-0.22-0.23-0.39-0.5-0.56-0.78c-0.97-1.61-0.86-3.48,0.25-4.67c1.04-1.11,3.11-1.4,4.67-0.66c0.14,0.07,0.33,0.12,0.42,0.23
			c1.01,1.39,2.14,0.96,3.31,0.25c0.14-0.08,0.28-0.15,0.43-0.2c0.63-0.22,1.1,0.01,1.31,0.64c0.22,0.64,0.07,1.1-0.57,1.37
			c-0.66,0.28-1.34,0.53-2.04,0.68c-0.63,0.14-1.03,0.39-1.04,1.07c-0.01,0.86-0.4,1.57-0.98,2.12c-0.84,0.79-1.02,1.72-0.95,2.82
			c0.25,3.99,0.45,7.98,0.68,11.96c0.1,1.83,0.22,3.67,0.35,5.5C56.36,79.76,56.39,80.8,56.85,81.76z"/>
		<path d="M60.68,66.33c1.13-1.05,2.69-1.26,4.02-1.89c0.26-0.12,0.76,0.13,1.09,0.33c0.75,0.45,1.41,1.07,2.19,1.44
			c1.07,0.5,2.22,0.85,3.35,1.19c0.68,0.21,1.41,0.26,2.12,0.39c3.78,0.69,7.13,2.24,10,4.82c1.19,1.07,2.46,2.04,3.63,3.12
			c4.95,4.56,10.37,8.47,16.22,11.8c0.19,0.11,0.41,0.32,0.42,0.5c0.01,0.15-0.23,0.37-0.41,0.47c-2.2,1.13-4.43,2.21-6.6,3.38
			c-0.88,0.48-1.54,0.55-2.37-0.13c-4.71-3.89-10.04-6.78-15.42-9.59c-2.69-1.4-5.34-2.86-8-4.33c-2.15-1.18-3.92-2.81-4.99-5.02
			c-1.18-2.43-2.77-4.46-5-5.99C60.83,66.75,60.8,66.57,60.68,66.33z"/>
		<path d="M82.25,39.32c-0.23,0.41-0.43,1.18-0.93,1.58c-1.11,0.89-2.32,1.68-3.59,2.33c-0.96,0.49-1.99,0.27-2.93-0.37
			c-1.11-0.76-1.14-0.72-2.21,0.09c-2.04,1.53-4.07,3.07-6.11,4.6c-0.25,0.19-0.55,0.45-0.82,0.43c-0.36-0.02-0.77-0.2-1.02-0.45
			c-0.13-0.13-0.05-0.65,0.12-0.84c0.46-0.54,0.98-1.04,1.54-1.48c1.82-1.43,3.67-2.81,5.5-4.23c1.09-0.85,1.18-0.9,0.65-2.17
			c-0.63-1.51-0.28-2.64,0.97-3.55c0.9-0.66,1.82-1.3,2.79-1.84c1.28-0.71,2.61-0.49,3.47,0.6c0.97,1.23,1.66,2.69,2.43,4.08
			C82.24,38.34,82.18,38.71,82.25,39.32z"/>
		<path d="M94.06,93.7c0.1,0.69-0.45,1.24-0.86,1.08c-0.37-0.14-0.75-0.3-1.04-0.56c-4.59-3.94-9.97-6.59-15.25-9.42
			c-2.81-1.51-5.56-3.14-8.34-4.72c-1.93-1.1-3.43-2.59-4.35-4.64c-0.26-0.58-0.56-1.15-0.83-1.73c-0.61-1.34-1.49-2.44-2.73-3.26
			c-0.4-0.26-0.79-0.55-1.14-0.87c-0.69-0.65-0.9-1.44-0.47-1.61c0.66-0.26,1.03,0.25,1.46,0.58c1.73,1.34,3.17,2.95,4.12,4.92
			c1.31,2.71,3.37,4.58,6.01,5.94c3.97,2.05,7.88,4.23,11.84,6.31c3.83,2.02,7.49,4.27,10.76,7.12
			C93.6,93.15,93.88,93.51,94.06,93.7z"/>
		<path d="M68.72,59.69c0-1.11,0.02-2.23-0.01-3.34c-0.02-0.85,0.12-1.78-0.97-2.21c-0.21-0.08-0.32-0.53-0.38-0.82
			c-0.1-0.47-0.13-0.95-0.16-1.42c-0.12-2.72,0.11-2.41,2.34-3.43c1.64-0.76,3.82,0.9,3.94,2.4c0.08,1.05,0.11,2.12-0.69,2.92
			c-0.69,0.69-0.81,1.49-0.79,2.39c0.06,2.38,0.08,4.77,0.11,7.16c0.01,0.56,0.02,1.11-0.03,1.67c-0.04,0.47-0.35,0.69-0.82,0.6
			c-0.47-0.09-0.94-0.18-1.39-0.34c-1.04-0.37-1.23-0.64-1.25-1.75c-0.02-1.27,0-2.54,0-3.82C68.66,59.69,68.69,59.69,68.72,59.69z"
			/>
		<path d="M63.23,117.31c0-1.6-0.04-3.19,0.03-4.79c0.01-0.3,0.38-0.71,0.68-0.84c0.69-0.29,1.31,0.12,1.35,0.83
			c0.04,0.8,0.01,1.6,0.03,2.39c0.01,0.47-0.02,1,0.56,1.19c0.65,0.22,1.28,0.18,1.74-0.39c0.65-0.81,1.26-1.65,1.89-2.47
			c0.29-0.38,0.56-0.8,0.92-1.09c0.29-0.23,0.7-0.38,1.08-0.41c0.27-0.03,0.68,0.11,0.83,0.32c0.14,0.2,0.12,0.66-0.02,0.87
			c-0.71,1.06-1.46,2.09-2.24,3.1c-0.89,1.17-0.93,1.17-0.08,2.47c0.74,1.13,1.56,2.22,2.28,3.36c0.47,0.74,0.15,1.12-0.77,1.13
			c-0.71,0.01-1.19-0.27-1.59-0.86c-0.63-0.92-1.31-1.81-2.01-2.68c-0.24-0.31-0.54-0.6-0.87-0.8c-0.78-0.46-1.65,0-1.69,0.9
			c-0.05,0.88-0.03,1.76-0.06,2.63c-0.02,0.6-0.39,0.81-0.94,0.81c-0.77,0.01-1.12-0.2-1.13-0.88c-0.04-1.6-0.01-3.19-0.01-4.79
			C63.22,117.31,63.23,117.31,63.23,117.31z"/>
		<path d="M83.5,122.97c-0.96,0-1.91,0.05-2.87-0.01c-1.57-0.1-2.39-0.81-2.48-2.35c-0.12-2.06-0.17-4.14-0.1-6.21
			c0.07-1.77,0.97-2.7,2.67-2.77c1.99-0.08,3.98-0.02,5.97,0.02c0.66,0.01,0.96,0.43,0.93,1.12c-0.03,0.69-0.31,1.01-1.02,1.04
			c-1.51,0.05-3.03,0.02-4.54,0.07c-1.68,0.05-1.81,0.17-1.83,1.75c-0.02,1.27-0.02,2.55,0.02,3.82c0.03,1.02,0.24,1.22,1.3,1.25
			c1.19,0.04,2.39,0,3.58,0.01c0.56,0,1.12-0.01,1.67,0.04c0.6,0.05,0.86,0.47,0.83,1.21c-0.02,0.52-0.2,0.96-0.8,0.98
			c-1.11,0.03-2.23,0.01-3.34,0.01C83.5,122.96,83.5,122.97,83.5,122.97z"/>
		<path d="M89.66,117.43c0-1.59-0.02-3.19,0.01-4.78c0.01-0.51,0.26-0.91,0.85-0.97c0.65-0.06,1.11,0.26,1.15,0.89
			c0.06,0.88,0.04,1.76,0.09,2.63c0.06,0.96,1.1,1.43,1.88,0.83c0.31-0.23,0.51-0.6,0.76-0.91c0.69-0.88,1.38-1.76,2.06-2.64
			c0.43-0.55,0.99-0.77,1.67-0.74c0.55,0.02,0.89,0.53,0.6,0.99c-0.73,1.14-1.41,2.33-2.27,3.36c-0.71,0.85-0.64,1.51-0.06,2.32
			c0.7,0.97,1.36,1.97,2.02,2.97c0.22,0.33,0.42,0.68,0.54,1.06c0.04,0.12-0.18,0.46-0.32,0.48c-0.89,0.14-1.72,0.15-2.3-0.79
			c-0.63-1.01-1.39-1.94-2.07-2.93c-0.35-0.52-0.82-0.72-1.42-0.72c-0.68-0.01-1.05,0.28-1.09,0.97c-0.05,0.88-0.02,1.76-0.06,2.63
			c-0.04,0.73-0.31,0.93-1.08,0.91c-0.74-0.02-0.97-0.22-0.98-1.03c-0.03-1.52-0.01-3.03-0.01-4.55
			C89.63,117.43,89.64,117.43,89.66,117.43z"/>
		<path d="M65.85,52.94c-0.14,2.09-0.77,3.56-2.51,4.32c-0.17,0.07-0.44-0.03-0.63-0.12c-0.06-0.03-0.05-0.3,0-0.43
			c0.12-0.29,0.25-0.59,0.43-0.85c0.97-1.49,0.74-3.06,0.22-4.6c-0.79-2.34-3.29-2.97-5.14-1.32c-0.3,0.26-0.56,0.57-0.87,0.82
			c-0.09,0.07-0.27,0.04-0.41,0.01c-0.05-0.01-0.1-0.13-0.1-0.2c0-1.43,1.48-3.16,2.9-3.38c2.22-0.35,4.62,0.96,5.4,3.04
			C65.49,51.18,65.66,52.21,65.85,52.94z"/>
		<path d="M76.32,117.24c0,1.67,0.02,3.34-0.01,5.01c-0.01,0.59-0.95,0.96-1.47,0.63c-0.13-0.08-0.25-0.2-0.32-0.33
			c-0.07-0.14-0.1-0.31-0.1-0.46c-0.01-3.18-0.02-6.36-0.01-9.54c0-0.42,0.23-0.74,0.7-0.83c0.64-0.12,1.21,0.17,1.23,0.76
			c0.04,1.59,0.01,3.18,0.01,4.77C76.34,117.24,76.33,117.24,76.32,117.24z"/>
		<path d="M62.32,63.31c-0.34,0.24-0.66,0.53-1.04,0.72c-0.42,0.2-0.89,0.02-0.98-0.39c-0.4-1.7-0.73-3.42-1.03-5.14
			c-0.03-0.19,0.28-0.57,0.51-0.65c0.26-0.09,0.63-0.01,0.9,0.11c0.18,0.08,0.34,0.35,0.4,0.56C61.49,60.05,61.88,61.59,62.32,63.31
			z"/>
	</g>
</g>
<g id="SNARE">
</g>
<g id="BASS">
</g>
<g id="GUITAR">
</g>
<g id="VOCALS">
</g>
<g id="EQ">
</g>
<g id="COMP">
</g>
<g id="FADER">
</g>
<g id="MUTE">
</g>
<g id="SOLO">
</g>
<g id="SETTINGS">
</g>
<g id="HELP">
</g>
<g id="PRESETS">
</g>
<g id="ANALYZE">
</g>
<g id="BYPASS">
</g>
</svg>
