<?xml version="1.0" encoding="utf-8"?>
<!-- Generator: Adobe Illustrator 28.0.0, SVG Export Plug-In . SVG Version: 6.00 Build 0)  -->
<svg version="1.1" xmlns="http://www.w3.org/2000/svg" xmlns:xlink="http://www.w3.org/1999/xlink" x="0px" y="0px"
	 viewBox="0 0 162 156" style="enable-background:new 0 0 162 156;" xml:space="preserve">
<g id="Layer_1">
</g>
<g id="KICK">
</g>
<g id="SNARE">
</g>
<g id="BASS">
</g>
<g id="GUITAR">
	<g>
		<path d="M72.47,91.7c0-1.44-0.02-2.88,0-4.32c0.04-2.75-0.95-4.99-3.28-6.55c-2.75-1.84-2.89-3.16-1.85-6.13
			c0.32-0.9,0.64-1.81,0.89-2.73c0.19-0.68-0.08-1.02-0.78-1.2c-0.75-0.19-1.39-0.11-1.94,0.53c-0.49,0.57-1.1,0.92-1.91,0.52
			c-0.88-0.43-1.33-1.17-1.36-2.1c-0.03-1.26,0.45-2.35,1.39-3.2c1.04-0.94,2.65-0.46,3.05,0.91c0.06,0.23,0.02,0.48,0.07,0.71
			c0.18,0.87,0.52,1.13,1.46,1.22c0.68,0.07,1.08-0.27,1.27-0.84c0.54-1.59,1.06-3.18,1.56-4.78c0.15-0.47,0.13-0.94-0.38-1.25
			c-0.5-0.3-1-0.54-1.55-0.15c-0.26,0.18-0.45,0.46-0.71,0.64c-1.27,0.87-2.81,0.22-3.08-1.29c-0.26-1.49,0.32-2.67,1.47-3.57
			c0.98-0.77,2.53-0.31,2.98,0.86c0.14,0.36,0.12,0.79,0.23,1.17c0.19,0.71,0.84,0.64,1.37,0.72c0.48,0.07,0.69-0.29,0.83-0.68
			c0.56-1.58,1.12-3.16,1.67-4.75c0.16-0.46,0.33-1.06-0.15-1.31c-0.45-0.24-1.06-0.24-1.59-0.2c-0.27,0.02-0.53,0.34-0.76,0.55
			c-1.12,1.06-3.15-0.2-3.15-1.6c0-1.1,0.31-2.04,0.96-2.89c0.52-0.68,1.17-1.12,2.07-0.83c0.9,0.29,1.47,0.86,1.58,1.87
			c0.12,1.15,0.35,1.37,1.28,1.49c0.46,0.06,0.79-0.1,0.94-0.53c0.61-1.82,1.22-3.63,1.78-5.46c0.08-0.25-0.03-0.74-0.21-0.84
			c-0.39-0.21-0.89-0.37-1.32-0.31c-0.34,0.05-0.65,0.42-0.94,0.69c-0.6,0.55-1.23,0.65-1.97,0.28c-0.78-0.38-1.28-0.94-1.32-1.84
			c-0.05-1.26,0.36-2.38,1.22-3.28c1.1-1.14,2.76-0.72,3.21,0.78c0.09,0.3,0.04,0.64,0.1,0.95c0.14,0.68,0.5,0.9,1.39,1.02
			c0.61,0.08,0.9-0.25,1.06-0.73c0.58-1.74,1.15-3.49,1.71-5.24c0.16-0.49,0.14-0.98-0.39-1.24c-0.51-0.25-1.08-0.47-1.51,0.12
			c-0.4,0.53-0.82,0.99-1.53,1.01c-1.23,0.04-2.32-1.09-2.16-2.34c0.13-1.03,0.47-2.02,1.17-2.84c0.51-0.6,1.12-0.91,1.9-0.72
			c0.84,0.2,1.51,0.7,1.51,1.61c0.01,0.83,0.19,1.39,1.06,1.6c0.52,0.13,0.96,0.07,1.21-0.46c0.17-0.36,0.26-0.75,0.43-1.12
			c1.59-3.5,4.22-5.5,8.15-5.71c3.41-0.18,6.31,0.84,8.49,3.54c3.41,4.22,2.66,10.43-1.66,13.91c-0.56,0.45-1.15,0.86-1.77,1.23
			c-1.1,0.66-1.51,1.64-1.33,2.84c0.28,1.81,0.57,3.63,0.97,5.42c0.73,3.27,1.56,6.52,2.32,9.78c0.53,2.28,0.39,4.61,0.3,6.92
			c-0.04,1.21-0.5,2.16-1.68,2.66c-0.37,0.15-0.7,0.39-1.05,0.58c-3.7,2.07-5.38,5.35-5.51,9.47c-0.11,3.51-0.05,7.03-0.07,10.55
			c0,0.64,0.02,1.28-0.02,1.92c-0.06,0.91-0.43,1.2-1.42,1.17c-0.86-0.03-1.16-0.28-1.18-1.14c-0.04-2.24-0.03-4.47-0.05-6.71
			c-0.01-0.8,0.01-1.6-0.07-2.39c-0.03-0.27-0.27-0.57-0.5-0.74c-0.48-0.36-1.24-0.05-1.3,0.51c-0.06,0.55-0.06,1.12-0.07,1.67
			c0,2.32,0.01,4.63,0,6.95c0,0.47-0.09,0.94-0.18,1.4c-0.01,0.08-0.24,0.13-0.38,0.15c-0.05,0.01-0.17-0.06-0.18-0.12
			c-0.09-0.38-0.22-0.76-0.22-1.14c-0.02-2.48,0-4.95-0.01-7.43c0-0.56-0.01-1.13-0.14-1.66c-0.05-0.21-0.46-0.45-0.72-0.47
			c-0.26-0.02-0.7,0.17-0.78,0.38c-0.17,0.42-0.21,0.92-0.21,1.39c-0.01,2.48,0.02,4.95,0.01,7.43c0,0.47-0.08,0.94-0.16,1.41
			c-0.02,0.08-0.24,0.19-0.36,0.18c-0.13-0.02-0.34-0.14-0.36-0.25c-0.06-0.39-0.08-0.79-0.08-1.19c0-2.32,0.02-4.63,0-6.95
			c0-0.63-0.04-1.28-0.18-1.9c-0.05-0.21-0.47-0.46-0.71-0.45c-0.23,0.01-0.61,0.3-0.64,0.52c-0.11,0.62-0.1,1.27-0.1,1.91
			c0,2.64,0.02,5.27,0.02,7.91c0,0.36-0.17,0.64-0.55,0.58c-0.18-0.03-0.37-0.28-0.46-0.48c-0.09-0.21-0.09-0.47-0.09-0.7
			c-0.01-0.72,0.01-1.44,0.01-2.16c-0.01-2.24-0.02-4.47-0.05-6.71c-0.01-0.51-0.22-0.92-0.82-0.99c-0.67-0.08-1.16,0.22-1.21,0.83
			c-0.07,0.79-0.08,1.6-0.08,2.39c-0.01,2.24,0.01,4.47,0.01,6.71c0,0.48,0.01,1.04-0.57,1.17c-0.69,0.16-1.45,0.33-2.04-0.24
			c-0.19-0.19-0.25-0.58-0.26-0.87c-0.02-1.68-0.01-3.36-0.01-5.03C72.5,91.7,72.49,91.7,72.47,91.7z M86.89,79.09
			c0.32-0.27,0.55-0.39,0.64-0.57c1.27-2.6,3.21-4.57,5.71-5.97c0.99-0.55,1.35-1.32,1.33-2.34c-0.03-1.36-0.06-2.72-0.21-4.06
			c-0.39-3.51-1.57-6.84-2.38-10.26c-0.44-1.86-0.86-3.73-1.18-5.61c-0.42-2.46,0.42-4.4,2.61-5.69c0.27-0.16,0.52-0.37,0.79-0.55
			c2.64-1.8,3.63-4.34,3.32-7.46c-0.31-3.08-2.5-5.51-5.54-6.14c-3.36-0.69-6.45,0.67-7.91,3.53c-0.43,0.85-0.75,1.76-1.08,2.66
			c-0.87,2.4-1.72,4.8-2.56,7.21c-1.51,4.37-3.01,8.75-4.51,13.13c-1.55,4.53-3.1,9.06-4.63,13.6c-0.66,1.97-1.24,3.96-1.9,5.93
			c-0.31,0.92-0.05,1.52,0.72,2.03c1.67,1.09,3.08,2.45,4.17,4.69c0.1-1.15,0.2-1.83,0.22-2.51c0.03-1.6,0.01-3.2,0.01-4.79
			c0-0.45-0.26-0.68-0.68-0.85c-0.43-0.17-0.88-0.41-1.18-0.75c-0.44-0.49-0.63-1.09-0.33-1.77c0.49-1.11,1.52-1.68,2.49-1.32
			c1.23,0.45,1.91,1.77,1.2,2.89c-0.58,0.91-0.56,1.78-0.53,2.73c0.04,1.6,0.05,3.2,0.1,4.79c0.02,0.56,0.04,1.13,0.17,1.66
			c0.06,0.22,0.43,0.51,0.65,0.51c0.34-0.01,0.85-0.17,0.97-0.42c0.2-0.4,0.19-0.93,0.19-1.4c0-4.24-0.03-8.47-0.01-12.71
			c0.01-1.34-0.04-2.43-1.62-3.02c-1-0.37-1.16-1.59-0.68-2.47c0.55-1.01,1.7-1.46,2.63-1.02c1.13,0.52,1.55,1.59,1.13,2.79
			c-0.21,0.59-0.55,1.19-0.55,1.78c0.01,4.95,0.09,9.91,0.15,14.86c0.01,0.4-0.01,0.83,0.14,1.18c0.09,0.22,0.48,0.45,0.73,0.44
			c0.24-0.01,0.62-0.27,0.68-0.49c0.13-0.45,0.12-0.95,0.12-1.42c0-7.11-0.02-14.22,0.01-21.33c0-1.19-0.14-2.12-1.38-2.71
			c-0.74-0.35-1.11-1.15-0.86-2.04c0.32-1.13,1.68-1.81,2.66-1.36c1.24,0.57,1.63,1.52,1.05,2.71c-0.31,0.63-0.68,1.17-0.68,1.98
			c0.07,7.27,0.08,14.54,0.11,21.81c0,0.8-0.01,1.61,0.13,2.38c0.05,0.25,0.53,0.53,0.86,0.6c0.42,0.09,0.78-0.16,0.83-0.64
			c0.05-0.56,0.06-1.12,0.06-1.67c0.02-9.83,0.03-19.66,0.08-29.49c0.01-1.26-0.03-2.37-1.48-2.84c-0.26-0.08-0.44-0.45-0.62-0.71
			c-0.34-0.5-0.35-1.04-0.09-1.59c0.51-1.07,1.57-1.45,2.59-0.91c1.2,0.63,1.62,1.66,0.92,2.72c-0.43,0.65-0.55,1.28-0.55,2.02
			c0.04,10.23,0.06,20.46,0.09,30.69c0,0.56,0.01,1.12,0.09,1.67c0.08,0.6,0.56,0.72,1.07,0.68c0.44-0.03,0.74-0.28,0.77-0.75
			c0.04-0.64,0.06-1.28,0.06-1.91c-0.01-12.31-0.03-24.61-0.02-36.92c0-1.46,0.09-2.89-1.44-3.75c-0.13-0.07-0.22-0.24-0.28-0.38
			c-0.31-0.7-0.34-1.4,0.09-2.05c0.44-0.66,1.09-0.91,1.87-0.81c1.41,0.18,2.26,1.61,1.38,2.86c-0.95,1.34-0.82,2.68-0.81,4.09
			c0.01,11.19,0.03,22.37,0.04,33.56C86.81,78.15,86.86,78.53,86.89,79.09z"/>
		<path d="M110.31,118.02c-1.16,0.54-2.01,0.32-2.67-0.74c-0.46-0.74-0.95-1.48-1.52-2.14c-0.28-0.32-0.76-0.64-1.17-0.67
			c-2.2-0.15-2.25-0.15-2.26,1.89c0,0.4-0.02,0.8-0.05,1.19c-0.06,0.62-0.49,0.74-1.01,0.73c-0.56-0.01-0.92-0.26-0.93-0.84
			c-0.02-1.35,0-2.71,0-4.06c0-1.67-0.03-3.35,0.01-5.02c0.02-1.07,0.25-1.35,1.21-1.38c1.99-0.06,3.98-0.11,5.97-0.04
			c1.49,0.05,2.29,0.94,2.43,2.43c0.04,0.47,0,0.96,0.02,1.43c0.07,1.24-0.11,2.39-1.16,3.22c-0.55,0.43-0.48,0.91-0.19,1.46
			C109.42,116.32,110.13,117.02,110.31,118.02z M105.56,109.19c-0.56,0-1.12-0.03-1.67,0.01c-1.04,0.06-1.17,0.22-1.22,1.34
			c-0.01,0.16-0.01,0.32-0.01,0.48c0.02,0.89,0.24,1.19,1.09,1.21c1.11,0.04,2.23,0.02,3.34-0.03c0.29-0.01,0.68-0.13,0.84-0.34
			c0.48-0.61,0.4-1.35,0.21-2.06c-0.15-0.58-0.67-0.6-1.15-0.61C106.52,109.17,106.04,109.19,105.56,109.19z"/>
		<path d="M98.76,113.67c0,1.2,0.02,2.39-0.01,3.59c-0.02,0.8-0.28,1.03-0.97,1.06c-0.82,0.03-1.06-0.23-1.14-1.15
			c-0.07-0.78-0.16-1.57-0.24-2.35c-0.93-0.11-1.86-0.28-2.8-0.3c-2.36-0.06-2.5-0.17-2.47,2.25c0,0.32-0.01,0.64-0.08,0.95
			c-0.1,0.47-0.48,0.58-0.9,0.58c-0.42,0-0.81-0.08-0.93-0.54c-0.08-0.3-0.11-0.63-0.12-0.94c-0.02-2.15-0.03-4.31-0.02-6.46
			c0-0.48,0.08-0.95,0.16-1.42c0.15-0.99,0.78-1.69,1.7-1.76c1.9-0.15,3.82-0.21,5.72-0.09c1.23,0.08,1.93,0.97,2.03,2.3
			c0.1,1.43,0.02,2.87,0.02,4.3C98.72,113.67,98.74,113.67,98.76,113.67z M94.5,112.38c0.01,0,0.57-0.01,1.12-0.05
			c0.64-0.05,1.03-0.37,1.04-1.04c0.01-0.32,0.02-0.63-0.01-0.95c-0.07-0.84-0.33-1.13-1.17-1.16c-1.11-0.04-2.22-0.01-3.32,0.01
			c-0.53,0.01-0.93,0.25-0.97,0.82c-0.18,2.23-0.05,2.37,2.06,2.37C93.49,112.38,93.72,112.38,94.5,112.38z"/>
		<path d="M51.75,112.7c0-1.19-0.09-2.4,0.02-3.58c0.12-1.25,0.73-1.97,1.95-2.06c1.9-0.13,3.82-0.11,5.73,0.01
			c1.04,0.07,1.67,0.83,1.86,1.9c0.14,0.76-0.28,1.19-1.1,1.08c-0.24-0.03-0.54-0.01-0.69-0.15c-1.53-1.39-3.33-0.51-5-0.61
			c-0.45-0.03-0.72,0.37-0.73,0.8c-0.04,1.67-0.04,3.35-0.03,5.02c0,0.57,0.39,0.87,0.92,0.88c1.28,0.03,2.55,0.03,3.83,0.01
			c0.57-0.01,0.83-0.39,0.87-0.94c0.04-0.56-0.18-0.82-0.78-0.95c-0.9-0.2-1.03-0.47-1.01-1.25c0.01-0.45,0.19-0.73,0.67-0.81
			c2.78-0.45,3.19-0.1,3.14,2.71c-0.01,0.4,0.01,0.8-0.04,1.2c-0.17,1.36-1.15,2.3-2.54,2.35c-1.51,0.05-3.03,0.04-4.55,0
			c-1.65-0.04-2.41-0.79-2.57-2.5c-0.05-0.55-0.03-1.12-0.04-1.67c-0.01-0.48,0-0.96,0-1.44C51.68,112.7,51.72,112.7,51.75,112.7z"
			/>
		<path d="M72.88,111.85c0,1.19,0.04,2.39-0.01,3.58c-0.08,2.02-0.95,2.86-2.96,2.88c-1.35,0.02-2.71,0.03-4.06-0.02
			c-1.54-0.06-2.49-0.78-2.56-2.27c-0.12-2.7-0.05-5.41-0.01-8.11c0-0.27,0.22-0.6,0.44-0.79c0.47-0.41,1.41,0,1.44,0.65
			c0.06,1.67,0.06,3.34,0.08,5.01c0.04,3.52-0.38,3.18,3.2,3.22c2.4,0.03,2.35,0.08,2.38-2.35c0.02-1.91-0.01-3.82-0.01-5.73
			c0-0.56,0.31-0.87,0.86-0.95c0.67-0.1,1.18,0.2,1.2,0.82c0.04,1.35,0.01,2.71,0.01,4.06C72.86,111.85,72.87,111.85,72.88,111.85z"
			/>
		<path d="M83.01,107c1.28,0,2.55-0.04,3.83,0.02c0.69,0.03,0.93,0.39,0.95,1.12c0.02,0.54-0.14,0.95-0.76,0.99
			c-0.64,0.04-1.28,0.04-1.91,0.08c-1.05,0.07-1.19,0.2-1.21,1.33c-0.04,1.75-0.02,3.51-0.04,5.27c-0.01,0.56-0.02,1.12-0.05,1.67
			c-0.04,0.6-0.43,0.79-0.97,0.8c-0.74,0.02-1.05-0.22-1.06-0.95c-0.04-1.67-0.03-3.35-0.05-5.03c-0.01-0.72-0.02-1.44-0.06-2.15
			c-0.03-0.54-0.32-0.89-0.89-0.92c-0.56-0.03-1.12-0.03-1.67-0.08c-0.72-0.06-1.03-0.36-1.09-1c-0.07-0.7,0.3-1.12,1.16-1.18
			c0.79-0.06,1.59-0.03,2.39-0.04c0.48,0,0.96,0,1.44,0C83.01,106.96,83.01,106.98,83.01,107z"/>
		<path d="M74.83,112.48c0-1.52-0.03-3.03,0.01-4.55c0.02-0.72,0.43-1.08,1.07-0.93c0.33,0.08,0.63,0.38,0.86,0.66
			c0.13,0.15,0.09,0.46,0.09,0.7c-0.02,2.95-0.04,5.91-0.09,8.86c-0.01,0.85-0.23,1.05-0.94,1.06c-0.54,0.01-0.97-0.16-0.98-0.77
			c-0.02-1.68-0.01-3.35-0.01-5.03C74.85,112.48,74.84,112.48,74.83,112.48z"/>
	</g>
</g>
<g id="VOCALS">
</g>
<g id="EQ">
</g>
<g id="COMP">
</g>
<g id="FADER">
</g>
<g id="MUTE">
</g>
<g id="SOLO">
</g>
<g id="SETTINGS">
</g>
<g id="HELP">
</g>
<g id="PRESETS">
</g>
<g id="ANALYZE">
</g>
<g id="BYPASS">
</g>
</svg>
