<?xml version="1.0" encoding="utf-8"?>
<!-- Generator: Adobe Illustrator 28.0.0, SVG Export Plug-In . SVG Version: 6.00 Build 0)  -->
<svg version="1.1" xmlns="http://www.w3.org/2000/svg" xmlns:xlink="http://www.w3.org/1999/xlink" x="0px" y="0px"
	 viewBox="0 0 162 156" style="enable-background:new 0 0 162 156;" xml:space="preserve">
<g id="Layer_1">
</g>
<g id="KICK">
</g>
<g id="SNARE">
</g>
<g id="BASS">
</g>
<g id="GUITAR">
</g>
<g id="VOCALS">
</g>
<g id="EQ">
</g>
<g id="COMP">
</g>
<g id="FADER">
</g>
<g id="MUTE">
	<g>
		<path d="M84.63,64.49c0,7.27,0,14.55-0.01,21.82c0,0.72,0,1.45-0.13,2.15c-0.3,1.56-1.58,2.3-3.05,1.72
			c-0.73-0.29-1.39-0.78-2.03-1.26c-4.35-3.25-8.69-6.53-13.03-9.79c-0.51-0.38-1.05-0.73-1.54-1.14c-0.71-0.59-1.5-0.82-2.43-0.81
			c-1.92,0.03-3.84,0.01-5.76-0.02c-0.88-0.01-1.76-0.04-2.63-0.18c-1.72-0.28-3.04-1.61-3.35-3.31c-0.11-0.63-0.15-1.27-0.15-1.91
			c-0.02-4.96-0.02-9.91-0.03-14.87c0-1.31,0.19-2.55,1.12-3.57c0.79-0.86,1.72-1.42,2.92-1.44c2.32-0.03,4.64-0.18,6.95-0.07
			c1.64,0.08,2.89-0.46,4.16-1.43c4.82-3.7,9.69-7.32,14.55-10.97c0.26-0.19,0.51-0.4,0.78-0.55c1.76-1,3.4-0.17,3.62,1.88
			c0.1,0.87,0.07,1.76,0.07,2.63c0,7.03,0,14.07,0,21.1C84.66,64.49,84.64,64.49,84.63,64.49z M81.39,86.3
			c0.05-0.83,0.11-1.46,0.11-2.09C81.5,71.11,81.5,58,81.5,44.9c0-0.48,0-0.96-0.03-1.44c-0.04-0.65-0.41-0.83-0.95-0.43
			c-2.57,1.9-5.13,3.82-7.68,5.74c-2.1,1.59-4.18,3.21-6.29,4.79c-0.7,0.52-1.03,1.13-1.03,2.02c0.03,5.99,0.04,11.99,0.03,17.98
			c0,0.87,0.27,1.48,1,2.01c4.43,3.27,8.83,6.6,13.25,9.88C80.25,85.77,80.76,85.97,81.39,86.3z M61.46,64.44c0.02,0,0.04,0,0.06,0
			c0-2.79,0.01-5.58-0.01-8.37c-0.01-1.07-0.17-1.24-1.26-1.27c-1.36-0.03-2.71-0.02-4.07,0c-2.2,0.04-2.51,0.33-2.61,2.45
			c-0.01,0.16-0.01,0.32-0.01,0.48c0,4.62,0,9.25,0,13.87c0,0.4-0.01,0.8,0.04,1.19c0.1,0.96,0.39,1.28,1.36,1.3
			c1.75,0.05,3.51,0.05,5.26,0.02c1.07-0.02,1.21-0.17,1.22-1.3C61.48,70.02,61.46,67.23,61.46,64.44z"/>
		<path d="M110.48,75.96c-0.6,0.06-1.18-0.15-1.66-0.63c-0.68-0.68-1.36-1.35-2.03-2.03c-1.69-1.7-3.38-3.4-5.06-5.11
			c-0.44-0.45-0.82-0.39-1.22,0.02c-1.83,1.9-3.66,3.8-5.49,5.7c-0.5,0.52-0.98,1.06-1.53,1.52c-1.32,1.11-3.11,0.59-3.62-1.08
			c-0.12-0.4-0.03-1,0.2-1.34c0.48-0.72,1.09-1.37,1.7-1.99c1.79-1.83,3.61-3.62,5.4-5.45c0.91-0.94,0.9-1.06,0.02-1.94
			c-1.75-1.75-3.54-3.47-5.28-5.22c-0.67-0.68-1.33-1.38-1.9-2.15c-0.56-0.77-0.39-1.67,0.3-2.39c0.73-0.77,1.84-1.02,2.6-0.5
			c0.52,0.36,0.96,0.84,1.41,1.29c2.02,2.05,4.02,4.11,6.06,6.15c0.74,0.74,0.82,0.72,1.52,0c2.07-2.11,4.14-4.23,6.21-6.33
			c0.39-0.4,0.78-0.81,1.24-1.11c0.93-0.62,1.82-0.46,2.57,0.37c0.76,0.84,0.88,1.76,0.28,2.61c-0.32,0.45-0.72,0.86-1.11,1.25
			c-1.9,1.94-3.82,3.86-5.73,5.8c-0.17,0.17-0.34,0.34-0.49,0.52c-0.47,0.56-0.47,0.86,0.1,1.44c2.02,2.05,4.07,4.07,6.09,6.12
			c0.45,0.45,0.95,0.89,1.26,1.42C113.12,74.28,112.16,75.9,110.48,75.96z"/>
		<path d="M64.94,106.69c1.16-1.04,1.95-2.24,2.7-3.45c0.52-0.83,1.22-0.91,2.05-0.83c0.48,0.05,0.72,0.34,0.73,0.78
			c0.03,1.43,0.04,2.87,0.04,4.31c0,1.83,0,3.67-0.04,5.5c-0.02,0.62-0.9,1.02-1.45,0.66c-0.22-0.15-0.43-0.49-0.44-0.75
			c-0.06-1.03-0.06-2.07-0.07-3.11c-0.01-0.88,0.01-1.75-0.02-2.63c-0.01-0.2-0.1-0.52-0.24-0.58c-0.16-0.06-0.48,0.06-0.6,0.21
			c-0.57,0.76-1.1,1.56-1.65,2.35c-0.18,0.26-0.37,0.52-0.58,0.76c-0.33,0.36-0.73,0.36-1.01-0.01c-0.72-0.95-1.38-1.95-2.1-2.9
			c-0.12-0.16-0.4-0.19-0.6-0.28c-0.08,0.2-0.21,0.39-0.22,0.59c-0.04,1.83-0.05,3.67-0.1,5.5c-0.01,0.51-0.19,0.92-0.83,0.94
			c-0.74,0.03-1.08-0.19-1.09-0.9c-0.03-3.03-0.02-6.06-0.01-9.09c0-0.46-0.07-1.03,0.5-1.21c0.61-0.19,1.28-0.29,1.79,0.24
			c0.39,0.4,0.7,0.86,1.05,1.3C63.45,104.94,64.05,105.87,64.94,106.69z"/>
		<path d="M99.09,113.74c-0.8,0-1.6,0.01-2.39,0c-1.74-0.03-1.82-0.07-1.84-1.69c-0.03-2.79-0.02-5.58,0.01-8.38
			c0.01-1.06,0.21-1.25,1.28-1.27c2.15-0.03,4.31-0.02,6.46,0.02c0.7,0.01,0.94,0.35,0.95,1.09c0.01,0.75-0.22,1.07-0.93,1.09
			c-1.6,0.04-3.19,0.01-4.79,0.06c-0.8,0.02-1.01,0.27-1.03,0.98c-0.02,0.89,0.22,1.26,1.01,1.3c1.19,0.07,2.39,0.05,3.58,0.12
			c0.6,0.04,1,0.95,0.64,1.48c-0.15,0.22-0.49,0.41-0.76,0.42c-1.11,0.06-2.24,0.02-3.35,0.09c-0.35,0.02-0.9,0.24-0.96,0.48
			c-0.13,0.5-0.07,1.08,0.05,1.6c0.04,0.17,0.53,0.3,0.83,0.32c0.88,0.05,1.75,0.03,2.63,0.03c0.72,0.01,1.44-0.02,2.15,0.02
			c0.72,0.04,0.95,0.33,0.95,1.08c0,0.77-0.23,1.11-0.9,1.13C101.48,113.76,100.28,113.74,99.09,113.74
			C99.09,113.74,99.09,113.74,99.09,113.74z"/>
		<path d="M72.46,107.17c0-1.28-0.02-2.55,0.01-3.83c0.02-0.73,0.3-0.94,1.07-0.93c0.75,0.02,1.03,0.24,1.04,0.98
			c0.03,1.83,0,3.67,0.01,5.5c0,0.64,0.01,1.28,0.12,1.9c0.04,0.24,0.39,0.59,0.6,0.6c1.35,0.04,2.7,0.03,4.05-0.04
			c0.21-0.01,0.55-0.37,0.59-0.62c0.11-0.62,0.12-1.27,0.12-1.9c0.01-1.83-0.01-3.67,0-5.5c0-0.54,0.24-0.89,0.85-0.9
			c0.72-0.01,1.12,0.23,1.13,0.91c0.03,2.71,0.06,5.42-0.03,8.13c-0.05,1.39-0.92,2.2-2.3,2.27c-1.51,0.08-3.04,0.08-4.55,0
			c-1.72-0.1-2.62-1.04-2.69-2.74C72.42,109.73,72.47,108.45,72.46,107.17C72.46,107.17,72.46,107.17,72.46,107.17z"/>
		<path d="M88.23,102.42c1.28,0,2.55-0.03,3.83,0.01c0.88,0.03,1.33,0.87,0.93,1.71c-0.09,0.19-0.31,0.35-0.5,0.43
			c-0.21,0.08-0.47,0.07-0.71,0.07c-2.54-0.03-2.46-0.08-2.47,2.52c-0.01,1.91-0.02,3.83-0.05,5.74c-0.01,0.42-0.2,0.74-0.69,0.82
			c-0.67,0.11-1.18-0.16-1.2-0.77c-0.05-1.83-0.01-3.67-0.07-5.5c-0.03-0.85,0.4-1.94-0.36-2.48c-0.56-0.39-1.51-0.23-2.29-0.31
			c-0.83-0.08-1.06-0.35-1.01-1.25c0.03-0.75,0.24-0.99,1.01-1.01c1.2-0.03,2.39-0.01,3.59-0.01
			C88.23,102.41,88.23,102.42,88.23,102.42z"/>
	</g>
</g>
<g id="SOLO">
</g>
<g id="SETTINGS">
</g>
<g id="HELP">
</g>
<g id="PRESETS">
</g>
<g id="ANALYZE">
</g>
<g id="BYPASS">
</g>
</svg>
