<?xml version="1.0" encoding="utf-8"?>
<!-- Generator: Adobe Illustrator 28.0.0, SVG Export Plug-In . SVG Version: 6.00 Build 0)  -->
<svg version="1.1" xmlns="http://www.w3.org/2000/svg" xmlns:xlink="http://www.w3.org/1999/xlink" x="0px" y="0px"
	 viewBox="0 0 162 156" style="enable-background:new 0 0 162 156;" xml:space="preserve">
<g id="Layer_1">
</g>
<g id="KICK">
</g>
<g id="SNARE">
</g>
<g id="BASS">
</g>
<g id="GUITAR">
</g>
<g id="VOCALS">
</g>
<g id="EQ">
</g>
<g id="COMP">
</g>
<g id="FADER">
</g>
<g id="MUTE">
</g>
<g id="SOLO">
</g>
<g id="SETTINGS">
</g>
<g id="HELP">
</g>
<g id="PRESETS">
	<g>
		<path d="M69.97,93.44c-7.67,0-15.34,0-23.02,0c-0.88,0-1.77,0.03-2.63-0.08c-2.3-0.3-4.25-2.34-4.47-4.64
			c-0.06-0.63-0.04-1.28-0.05-1.92c-0.02-13.5-0.03-27-0.04-40.51c0-0.4,0.01-0.8,0.01-1.2c0-3.1,2.57-5.16,5.15-5.3
			c0.48-0.03,0.96-0.02,1.44-0.02c4.32,0,8.63,0.08,12.95-0.03c2.72-0.07,4.8,0.91,6.37,3.09c0.23,0.32,0.53,0.6,0.74,0.94
			c0.95,1.53,2.32,1.98,4.08,1.97c6.79-0.05,13.59-0.01,20.38,0.01c1.36,0,2.72-0.03,4.07,0.06c2.59,0.17,4.44,1.93,4.81,4.5
			c0.01,0.08,0.02,0.16,0.03,0.24c0.08,0.79-0.1,1.79,0.32,2.3c0.4,0.48,1.43,0.43,2.18,0.63c2.28,0.58,3.6,2.01,3.81,4.36
			c0.09,1.02-0.01,2.08-0.22,3.09c-1.9,9.14-3.85,18.28-5.79,27.41c-0.1,0.47-0.22,0.94-0.38,1.39c-0.82,2.28-2.61,3.6-5.04,3.72
			c-0.48,0.02-0.96,0.02-1.44,0.02C85.48,93.44,77.72,93.44,69.97,93.44C69.97,93.44,69.97,93.44,69.97,93.44z M69.79,90.53
			c7.75,0,15.49,0,23.24,0c0.16,0,0.32,0,0.48,0c2.69-0.04,3.3-0.52,3.86-3.22c0.41-1.95,0.73-3.92,1.15-5.87
			c1.5-7.02,3.02-14.04,4.51-21.06c0.15-0.69,0.23-1.43,0.19-2.13c-0.06-1.1-0.69-1.72-1.81-1.87c-0.55-0.07-1.12-0.06-1.67-0.06
			c-15.09,0-30.19,0.01-45.28,0.01c-0.48,0-0.96,0.01-1.44,0.02c-1.46,0.04-2.35,0.87-2.88,2.15c-0.18,0.44-0.25,0.92-0.35,1.39
			c-1.46,6.46-2.92,12.91-4.38,19.37c-0.67,2.96-1.37,5.91-1.98,8.87c-0.28,1.34,0.34,2.15,1.69,2.34c0.71,0.1,1.43,0.07,2.15,0.07
			C54.77,90.54,62.28,90.53,69.79,90.53z M74.29,53.27c0,0.01,0,0.01,0,0.02c6.71,0,13.42,0,20.13,0c0.56,0,1.13,0.02,1.67-0.08
			c0.26-0.05,0.62-0.29,0.7-0.53c0.71-1.99-0.46-3.79-2.51-3.94c-0.64-0.05-1.28-0.02-1.92-0.02c-6.87,0-13.74-0.13-20.61,0.05
			c-3.6,0.09-6.39-0.89-8.35-4.02c-0.85-1.36-2.15-1.96-3.86-1.93c-4.39,0.08-8.79,0-13.18-0.01c-0.4,0-0.8-0.01-1.2,0.03
			c-1.28,0.13-2.03,0.82-2.2,2.11c-0.1,0.79-0.09,1.59-0.09,2.39c-0.03,8.46-0.06,16.93-0.08,25.39c0,0.55,0.04,1.11,0.1,1.66
			c0.01,0.09,0.22,0.17,0.35,0.23c0.03,0.02,0.14-0.06,0.17-0.12c0.08-0.14,0.15-0.28,0.18-0.43c1-4.52,1.99-9.04,2.99-13.55
			c0.19-0.86,0.35-1.73,0.62-2.56c0.9-2.79,2.81-4.38,5.76-4.64c0.71-0.06,1.44-0.05,2.16-0.05C61.51,53.27,67.9,53.27,74.29,53.27z
			"/>
		<path d="M46.17,111.58c0-1.44-0.03-2.87,0.01-4.31c0.03-1.22,0.25-1.47,1.36-1.5c1.91-0.05,3.83-0.09,5.74-0.01
			c1.83,0.08,2.54,0.85,2.62,2.71c0.04,0.95,0.01,1.92-0.15,2.86c-0.08,0.51-0.41,1.02-0.76,1.42c-0.79,0.93-0.83,0.91-0.37,1.74
			c0.15,0.28,0.35,0.53,0.5,0.81c0.25,0.47,0.74,0.98,0.21,1.47c-0.53,0.49-1.6,0.24-2.1-0.4c-0.34-0.44-0.63-0.92-0.95-1.38
			c-0.27-0.39-0.52-0.81-0.83-1.17c-0.57-0.69-1.78-1-2.6-0.62c-0.23,0.1-0.44,0.47-0.47,0.74c-0.08,0.71-0.05,1.43-0.08,2.15
			c-0.02,0.59-0.37,0.82-0.93,0.85c-0.76,0.03-1.18-0.2-1.19-0.82C46.14,114.61,46.17,113.09,46.17,111.58
			C46.17,111.58,46.17,111.58,46.17,111.58z M51.21,110.9c0.39-0.02,1.03,0,1.66-0.1c0.27-0.04,0.63-0.25,0.73-0.48
			c0.55-1.27-0.01-2.2-1.35-2.24c-0.88-0.03-1.75-0.03-2.63,0c-1.1,0.04-1.28,0.22-1.31,1.23c-0.04,1.31,0.16,1.54,1.45,1.59
			C50.17,110.91,50.56,110.9,51.21,110.9z"/>
		<path d="M73.07,105.67c0.84,0.05,1.88,0.03,2.9,0.18c1.12,0.16,1.82,0.99,1.87,2.14c0.01,0.22-0.29,0.61-0.49,0.65
			c-0.45,0.08-1.03,0.15-1.38-0.06c-1.58-0.95-3.26-0.39-4.89-0.42c-0.48-0.01-0.65,0.4-0.67,0.83c-0.02,0.49,0.02,0.98,0.62,1.12
			c0.31,0.07,0.63,0.08,0.95,0.08c0.8,0.01,1.59,0,2.39,0.01c2.9,0.03,3.53,0.66,3.49,3.51c-0.01,0.4-0.02,0.8-0.07,1.19
			c-0.21,1.47-0.83,2.13-2.35,2.2c-1.67,0.07-3.34-0.02-5.01-0.08c-1.06-0.04-1.75-0.65-2.17-1.61c-0.3-0.69,0.03-1.26,0.83-1.31
			c0.31-0.02,0.73-0.08,0.93,0.09c1.49,1.22,3.21,0.52,4.83,0.62c0.67,0.04,0.92-0.37,0.93-1.11c0-0.74-0.24-1.09-0.91-1.12
			c-1.27-0.05-2.55-0.01-3.82-0.05c-1.83-0.06-2.58-0.74-2.75-2.58c-0.08-0.86-0.05-1.76,0.09-2.61c0.14-0.85,0.73-1.4,1.65-1.47
			C70.96,105.79,71.92,105.74,73.07,105.67z"/>
		<path d="M105.89,105.82c0.88,0,1.77-0.08,2.63,0.03c0.51,0.07,1.05,0.36,1.44,0.71c0.47,0.43,0.76,1.04,0.57,1.73
			c-0.13,0.47-1.02,0.64-1.93,0.21c-1.62-0.76-3.28-0.34-4.93-0.28c-0.47,0.02-0.54,0.5-0.53,0.92c0.01,0.43,0.14,0.83,0.6,0.9
			c0.63,0.1,1.27,0.1,1.9,0.12c0.88,0.02,1.76-0.03,2.63,0.05c1.36,0.13,2.2,0.96,2.29,2.32c0.06,0.87,0.03,1.77-0.14,2.61
			c-0.26,1.3-0.99,1.95-2.34,1.98c-1.67,0.04-3.35-0.1-5.02-0.18c-1.13-0.06-1.69-0.76-1.92-1.8c-0.17-0.75,0.3-1.23,1.09-1.11
			c0.16,0.02,0.37-0.01,0.46,0.08c1.3,1.17,2.88,0.64,4.35,0.69c1.18,0.04,1.46-0.35,1.41-1.4c-0.04-0.73-0.25-0.9-1.34-0.92
			c-1.12-0.02-2.24,0.03-3.35-0.02c-1.76-0.08-2.46-0.73-2.68-2.42c-0.05-0.39-0.07-0.8-0.06-1.19c0.05-2.34,0.65-2.97,2.95-3.09
			c0.64-0.03,1.28,0,1.92,0C105.89,105.79,105.89,105.81,105.89,105.82z"/>
		<path d="M57.74,111.52c0-1.51-0.03-3.03,0.01-4.54c0.02-0.91,0.31-1.23,1.1-1.24c2.23-0.02,4.46-0.03,6.69,0.03
			c0.9,0.02,1.16,0.37,1.15,1.17c-0.01,0.54-0.22,0.96-0.79,0.99c-1.03,0.06-2.07,0.07-3.1,0.1c-0.64,0.02-1.28-0.01-1.91,0.03
			c-0.74,0.06-0.97,0.34-0.97,1.07c0,0.71,0.24,1,1,1.03c1.19,0.05,2.39,0.04,3.58,0.09c0.62,0.02,0.74,0.49,0.75,1
			c0.02,0.8-0.2,1.14-0.84,1.17c-1.19,0.05-2.39,0.02-3.58,0.07c-0.82,0.03-1,0.25-1.02,1c-0.02,0.88,0.22,1.24,1.02,1.3
			c0.87,0.06,1.75,0.04,2.63,0.06c0.72,0.01,1.44,0,2.15,0.06c0.69,0.06,0.95,0.4,0.94,1.11c-0.01,0.69-0.24,0.96-1.04,0.99
			c-2.07,0.07-4.14,0.13-6.21,0.14c-1.26,0-1.54-0.31-1.56-1.55c-0.02-1.35,0-2.71,0-4.06C57.72,111.52,57.73,111.52,57.74,111.52z"
			/>
		<path d="M79.74,111.5c0-1.51-0.01-3.03,0-4.54c0.01-0.62,0.28-1.14,0.95-1.15c2.31-0.05,4.62-0.05,6.93-0.04
			c0.49,0,0.92,0.22,1.01,0.81c0.12,0.79-0.17,1.3-0.92,1.36c-0.87,0.07-1.75,0.05-2.63,0.08c-0.8,0.02-1.59,0.02-2.39,0.08
			c-0.59,0.04-0.78,0.45-0.78,0.99c0,0.69,0.27,1.03,0.99,1.06c1.11,0.05,2.23,0.02,3.35,0.06c0.85,0.04,1.09,0.35,1.03,1.22
			c-0.04,0.53-0.21,0.94-0.82,0.96c-1.19,0.03-2.39,0.03-3.58,0.08c-0.74,0.03-0.99,0.33-1,1.03c-0.01,0.88,0.23,1.22,1.04,1.28
			c0.95,0.06,1.91,0.03,2.87,0.04c0.72,0.01,1.43,0.01,2.15,0.08c0.6,0.06,0.73,0.51,0.73,1.03c0,0.53-0.14,0.94-0.74,1.03
			c-0.16,0.02-0.32,0.05-0.47,0.06c-2.15,0.04-4.3,0.1-6.45,0.09c-1.04,0-1.26-0.26-1.28-1.3c-0.02-1.43-0.01-2.87-0.01-4.3
			C79.73,111.5,79.73,111.5,79.74,111.5z"/>
		<path d="M35.13,111.32c0-1.43-0.02-2.86,0.01-4.29c0.02-0.93,0.26-1.25,1.05-1.26c2.07-0.04,4.14-0.1,6.2-0.01
			c1.63,0.07,2.3,0.76,2.46,2.35c0.09,0.86,0.1,1.75,0,2.61c-0.2,1.65-1,2.34-2.69,2.41c-1.19,0.05-2.39-0.01-3.58,0.05
			c-1.04,0.05-1.2,0.25-1.27,1.31c-0.03,0.48,0,0.95-0.03,1.43c-0.05,0.79-0.3,1.04-0.98,1.04c-0.83,0-1.14-0.27-1.17-1.11
			c-0.03-0.79-0.02-1.59-0.02-2.38c0-0.72,0-1.43,0-2.15C35.12,111.32,35.12,111.32,35.13,111.32z M39.83,108.08c0,0,0-0.01,0-0.01
			c-0.39,0-0.79,0-1.18,0c-0.16,0-0.32,0.01-0.47,0.02c-0.56,0.05-0.83,0.35-0.87,0.91c-0.13,1.52,0.1,1.8,1.62,1.85
			c0.79,0.03,1.58,0.04,2.37,0.01c1.21-0.04,1.4-0.25,1.36-1.38c-0.04-1.16-0.21-1.34-1.39-1.4
			C40.78,108.06,40.31,108.08,39.83,108.08z"/>
		<path d="M94.76,105.8c1.27,0,2.55-0.03,3.82,0.01c0.79,0.03,1.04,0.33,1.04,1c-0.01,0.7-0.26,1.04-0.94,1.14
			c-0.55,0.08-1.11,0.06-1.67,0.11c-0.94,0.09-1.13,0.24-1.15,1.15c-0.04,1.51-0.02,3.02-0.03,4.54c-0.01,0.72,0.01,1.43-0.04,2.15
			c-0.06,0.86-0.65,1.29-1.45,1.02c-0.25-0.08-0.58-0.38-0.61-0.62c-0.1-0.62-0.07-1.27-0.08-1.9c-0.01-1.83,0-3.66-0.03-5.49
			c-0.01-0.55-0.31-0.87-0.89-0.88c-0.64-0.01-1.28,0.01-1.91-0.05c-0.66-0.06-0.94-0.47-0.91-1.15c0.04-0.69,0.31-1.02,1.03-1.04
			c1.27-0.03,2.55-0.01,3.82-0.01C94.76,105.78,94.76,105.79,94.76,105.8z"/>
		<path d="M65.63,74.49c0.23-0.82,0.46-1.48,0.61-2.17c0.69-3.2,1.36-6.41,2.06-9.6c0.14-0.62,0.3-1.26,0.61-1.8
			c0.15-0.27,0.66-0.51,0.98-0.48c0.32,0.03,0.78,0.34,0.89,0.63c0.28,0.74,0.43,1.54,0.58,2.32c1,5.18,1.97,10.36,2.98,15.53
			c0.08,0.43,0.32,0.82,0.67,1.66c0.34-1.28,0.57-2.09,0.77-2.92c0.63-2.64,1.25-5.29,1.87-7.93c0.11-0.47,0.21-0.94,0.36-1.39
			c0.15-0.48,0.44-0.86,1-0.88c0.54-0.02,0.93,0.23,1.11,0.73c0.32,0.9,0.61,1.82,0.91,2.73c0.5,1.52,0.97,3.04,1.48,4.55
			c0.15,0.44,0.63,0.47,0.94,0.1c0.05-0.06,0.12-0.12,0.15-0.19c0.66-2.03,2.25-2.2,4.03-2.09c1.04,0.07,2.08,0,3.12,0.02
			c0.4,0.01,0.81,0.02,1.19,0.11c0.53,0.13,0.75,0.56,0.74,1.09c-0.01,0.53-0.23,0.98-0.8,1c-1.44,0.06-2.88,0.12-4.31,0.04
			c-1.19-0.07-1.99,0.37-2.55,1.38c-0.43,0.77-0.84,1.55-1.34,2.27c-0.71,1.04-1.73,0.97-2.17-0.19c-0.66-1.71-1.2-3.47-1.79-5.21
			c-0.08-0.22-0.16-0.44-0.33-0.91c-0.29,0.66-0.58,1.12-0.7,1.61c-0.84,3.41-1.63,6.84-2.46,10.25c-0.15,0.61-0.33,1.24-0.62,1.8
			c-0.31,0.62-1.27,0.62-1.59,0c-0.29-0.55-0.48-1.18-0.6-1.79c-0.97-4.94-1.91-9.88-2.87-14.82c-0.15-0.78-0.37-1.54-0.62-2.56
			c-0.65,0.69-0.71,1.39-0.85,2c-0.67,2.79-1.31,5.6-1.95,8.4c-0.18,0.78-0.22,1.64-1.17,1.91c-0.62,0.18-1.13-0.42-1.63-1.75
			c-0.56-1.5-1.12-2.99-1.69-4.48c-0.13-0.33-0.57-0.35-0.75-0.06c-0.17,0.27-0.33,0.55-0.45,0.85c-0.36,0.86-1.02,1.16-1.9,1.15
			c-1.6-0.01-3.2,0.01-4.8,0c-0.31,0-0.71-0.01-0.92-0.18c-0.34-0.28-0.71-0.68-0.78-1.08c-0.09-0.53,0.39-0.87,0.91-0.9
			c1.36-0.06,2.72-0.11,4.07-0.04c1.12,0.06,1.8-0.37,2.26-1.36c0.37-0.79,0.82-1.56,1.34-2.25c0.43-0.58,1.27-0.51,1.62,0.11
			c0.43,0.76,0.69,1.61,1.09,2.39C64.68,72.83,64.68,73.79,65.63,74.49z"/>
	</g>
</g>
<g id="ANALYZE">
</g>
<g id="BYPASS">
</g>
</svg>
