<?xml version="1.0" encoding="utf-8"?>
<!-- Generator: Adobe Illustrator 28.0.0, SVG Export Plug-In . SVG Version: 6.00 Build 0)  -->
<svg version="1.1" xmlns="http://www.w3.org/2000/svg" xmlns:xlink="http://www.w3.org/1999/xlink" x="0px" y="0px"
	 viewBox="0 0 162 156" style="enable-background:new 0 0 162 156;" xml:space="preserve">
<g id="Layer_1">
</g>
<g id="KICK">
</g>
<g id="SNARE">
</g>
<g id="BASS">
</g>
<g id="GUITAR">
</g>
<g id="VOCALS">
</g>
<g id="EQ">
	<path d="M74.32,103.42c-8.63,0-17.26,0-25.89,0c-0.8,0-1.6-0.04-2.4-0.03c-2.54,0.02-4.81-2.11-5.17-4.78
		c-0.09-0.71-0.08-1.43-0.08-2.15c-0.01-12.94-0.01-25.88-0.01-38.82c0-0.72-0.01-1.44,0.06-2.15c0.3-2.73,2.26-4.66,5.01-4.95
		c0.63-0.07,1.28-0.06,1.91-0.06c17.5-0.01,35-0.01,52.5-0.01c0.8,0,1.6,0.05,2.4,0.05c2.91-0.01,5.05,2.46,5.34,5.17
		c0.07,0.63,0.05,1.28,0.05,1.91c0,12.94,0,25.88,0,38.82c0,0.56,0.02,1.12-0.02,1.68c-0.24,3.11-2.31,5.14-5.42,5.3
		c-0.72,0.04-1.44,0.03-2.16,0.03C91.73,103.42,83.02,103.42,74.32,103.42C74.32,103.42,74.32,103.42,74.32,103.42z M74.46,53.52
		C74.46,53.52,74.46,53.52,74.46,53.52c-8.8,0.01-17.59,0.01-26.39,0.01c-0.56,0-1.12-0.03-1.68,0.03c-1.39,0.15-2.13,0.9-2.27,2.33
		c-0.08,0.79-0.07,1.6-0.07,2.4c0,5.12,0.01,10.23,0.01,15.35c-0.01,7.59-0.03,15.19-0.04,22.78c0,0.56-0.01,1.12,0.05,1.68
		c0.17,1.5,0.83,2.15,2.29,2.28c0.48,0.04,0.96,0.03,1.44,0.03c17.75-0.01,35.5-0.01,53.25-0.02c0.56,0,1.13,0.02,1.68-0.06
		c1.24-0.19,1.97-0.97,2.11-2.25c0.06-0.55,0.03-1.12,0.03-1.68c0-13.03,0.01-26.06,0.01-39.09c0-0.48,0.02-0.96-0.02-1.44
		c-0.13-1.32-0.98-2.17-2.32-2.3c-0.63-0.06-1.28-0.03-1.92-0.03C91.9,53.52,83.18,53.52,74.46,53.52z"/>
	<path d="M80.79,126.3c-1.11,0-2.23,0.04-3.34-0.01c-1.9-0.09-2.74-0.92-2.79-2.81c-0.05-1.91-0.07-3.82-0.02-5.73
		c0.05-1.9,0.91-2.75,2.79-2.82c1.35-0.05,2.71-0.04,4.06,0.01c1.77,0.06,2.58,0.85,2.7,2.64c0.07,1.11-0.01,2.23,0.02,3.34
		c0.03,1.24-0.26,2.56,0.88,3.54c0.14,0.12,0.14,0.45,0.15,0.68c0.02,0.74-0.15,1.13-0.86,1.14
		C83.18,126.32,81.98,126.3,80.79,126.3z M82.2,120.74c0.01,0,0.02,0,0.03,0c0-0.24,0-0.48,0-0.72c0.02-2.87,0.07-2.83-2.71-2.79
		c-2.83,0.04-2.87-0.41-2.86,2.87c0.01,4.7-0.5,3.89,4.15,3.96c0.16,0,0.32-0.01,0.48-0.03c0.55-0.05,0.89-0.34,0.91-0.9
		C82.21,122.33,82.2,121.53,82.2,120.74z"/>
	<path d="M64.09,120.48c0-1.52-0.01-3.04,0-4.55c0-0.57,0.34-0.89,0.9-0.89c2.32-0.01,4.63-0.03,6.95,0
		c0.62,0.01,0.88,0.45,0.85,1.19c-0.02,0.52-0.2,0.96-0.8,0.98c-1.04,0.04-2.08,0.04-3.12,0.05c-0.64,0.01-1.28-0.01-1.92,0.03
		c-0.72,0.04-0.97,0.36-0.96,1.08c0.01,0.75,0.27,1.16,0.88,1.19c0.96,0.05,1.92,0.01,2.88,0.02c0.4,0.01,0.8,0.03,1.18,0.12
		c0.6,0.13,0.63,0.64,0.62,1.13c-0.01,0.47-0.28,0.75-0.73,0.76c-1.2,0.04-2.4,0.01-3.59,0.06c-0.98,0.04-1.25,0.37-1.22,1.35
		c0.02,0.74,0.25,1.02,0.99,1.05c0.96,0.04,1.92,0.02,2.88,0.02c0.64,0,1.28-0.02,1.92,0.01c0.8,0.04,1.08,0.3,1.08,0.95
		c0,0.82-0.31,1.24-1.06,1.25c-2.24,0.03-4.48,0.03-6.71,0c-0.79-0.01-1.01-0.23-1.02-1.01c-0.03-1.6-0.01-3.2-0.01-4.79
		C64.08,120.48,64.08,120.48,64.09,120.48z"/>
	<path d="M59.69,78.38c-3.6,0-7.19,0-10.79,0c-0.64,0-1.28,0.01-1.92-0.02c-0.97-0.05-1.51-0.98-1.02-1.82
		c0.13-0.23,0.51-0.45,0.77-0.44c2.28,0.07,3.71-1.3,4.92-2.95c0.9-1.22,1.69-2.52,2.53-3.77c1.29-1.92,2.48-3.92,4.19-5.52
		c0.58-0.54,1.16-1.12,1.84-1.53c1.95-1.18,3.94-1.19,5.87,0.07c1.99,1.3,3.36,3.19,4.52,5.21c1.03,1.8,1.89,3.7,2.82,5.55
		c0.21,0.43,0.45,0.86,0.59,1.31c0.45,1.36,1.37,1.7,2.75,1.69c7.67-0.07,15.35-0.04,23.02-0.05c0.64,0,1.28,0.01,1.92-0.01
		c1.23-0.03,1.32,0.51,1.23,1.51c-0.04,0.45-0.31,0.77-0.77,0.74c-2.39-0.16-3.85,1.24-5.11,3c-0.84,1.17-1.66,2.34-2.48,3.52
		c-0.82,1.18-1.56,2.43-2.45,3.55c-0.84,1.06-1.76,2.09-2.8,2.95c-2,1.65-4.59,2.06-6.84,0.36c-1.14-0.86-2.28-1.8-3.14-2.92
		c-1.21-1.57-2.2-3.32-3.19-5.05c-0.64-1.1-1.21-2.26-1.63-3.46c-0.54-1.52-1.48-1.99-3.08-1.94
		C67.52,78.46,63.61,78.38,59.69,78.38C59.69,78.38,59.69,78.38,59.69,78.38z M96.4,78.51c-0.54-0.06-0.91-0.13-1.28-0.13
		c-5.74-0.01-11.48-0.01-17.22-0.01c-0.4,0-0.8,0.01-1.19,0.05c-0.48,0.04-0.76,0.32-0.55,0.79c1.58,3.58,3.24,7.12,6.12,9.89
		c0.51,0.49,1.1,0.93,1.73,1.26c1.22,0.65,2.48,0.72,3.58-0.24c1.07-0.94,2.16-1.9,3.06-2.99c0.96-1.16,1.7-2.5,2.54-3.76
		C94.21,81.8,95.25,80.23,96.4,78.51z M72.19,75.95c0-0.27,0.05-0.45-0.01-0.59c-1.08-2.76-2.35-5.43-4-7.88
		c-0.79-1.17-1.81-2.25-2.91-3.15c-1.62-1.34-3.14-1.23-4.76,0.14c-0.6,0.51-1.15,1.11-1.62,1.75c-2.21,3.03-4.38,6.08-6.56,9.14
		c-0.24,0.33-0.1,0.61,0.27,0.7c0.31,0.07,0.63,0.06,0.95,0.06c5.75,0,11.5-0.01,17.25-0.03C71.28,76.1,71.74,76,72.19,75.95z"/>
</g>
<g id="COMP">
</g>
<g id="FADER">
</g>
<g id="MUTE">
</g>
<g id="SOLO">
</g>
<g id="SETTINGS">
</g>
<g id="HELP">
</g>
<g id="PRESETS">
</g>
<g id="ANALYZE">
</g>
<g id="BYPASS">
</g>
</svg>
