<?xml version="1.0" encoding="utf-8"?>
<!-- Generator: Adobe Illustrator 28.0.0, SVG Export Plug-In . SVG Version: 6.00 Build 0)  -->
<svg version="1.1" xmlns="http://www.w3.org/2000/svg" xmlns:xlink="http://www.w3.org/1999/xlink" x="0px" y="0px"
	 viewBox="0 0 162 156" style="enable-background:new 0 0 162 156;" xml:space="preserve">
<g id="Layer_1">
</g>
<g id="KICK">
</g>
<g id="SNARE">
</g>
<g id="BASS">
</g>
<g id="GUITAR">
</g>
<g id="VOCALS">
	<path d="M55.97,94.98c-3.81,0.05-7.54-3.17-7.81-7.31c-0.07-1.16,0.24-2.21,0.98-3.13c1.61-1.99,3.18-4,4.82-5.96
		c3.34-3.98,6.71-7.93,10.07-11.88c3.26-3.83,6.53-7.66,9.8-11.49c0.36-0.43,0.73-0.85,1.12-1.25c0.53-0.53,0.86-0.44,1.21,0.32
		c0.1,0.22,0.21,0.43,0.29,0.66c2.08,5.39,6.04,8.91,11.22,11.19c0.51,0.22,1.04,0.4,1.53,0.66c0.11,0.06,0.18,0.47,0.09,0.59
		c-0.28,0.38-0.62,0.73-0.98,1.04c-6.54,5.75-13.08,11.5-19.62,17.25c-2.46,2.16-4.89,4.36-7.35,6.52
		c-0.72,0.63-1.52,1.17-2.25,1.78C58.19,94.75,57.1,94.92,55.97,94.98z M71.52,73.59c0.36-0.14,0.9-0.2,1.22-0.5
		c1.64-1.52,3.28-3.05,4.81-4.67c0.94-0.99,0.6-2.35-0.59-3.02c-0.96-0.54-1.87-0.44-2.63,0.34c-1.57,1.59-3.16,3.17-4.64,4.84
		c-0.85,0.96-0.41,2.25,0.78,2.71C70.78,73.42,71.1,73.48,71.52,73.59z"/>
	<path d="M93.75,32.9c2.91-0.06,5.49,0.41,7.81,1.8c4.39,2.62,7,6.48,7.68,11.53c0.36,2.63,0.01,5.24-0.89,7.79
		c-0.68,1.93-2.09,3.36-3.16,5.01c-0.33,0.51-1.05,0.7-1.74,0.39c-1.09-0.5-2.23-0.9-3.27-1.49c-7.5-4.22-13.46-9.94-17.12-17.86
		c-0.13-0.29-0.3-0.57-0.41-0.87c-0.38-1.04-0.24-1.54,0.62-2.33c0.46-0.42,0.82-0.37,1.13,0.19c0.53,0.98,1.03,1.98,1.54,2.97
		c2.49,4.84,5.99,8.85,10.28,12.14c1.77,1.36,3.71,2.49,5.6,3.68c0.45,0.29,1.02,0.45,1.55,0.54c0.45,0.08,0.87-0.01,1.17-0.56
		c2.28-4.05,2.98-8.24,1.2-12.65c-2.56-6.33-9.87-9.46-16.32-7.04c-0.82,0.31-1.61,0.71-2.43,1.02c-0.43,0.16-0.8-0.05-0.99-0.45
		c-0.23-0.48-0.66-0.99-0.15-1.53c0.27-0.28,0.62-0.5,0.97-0.69C89.05,33.31,91.43,32.74,93.75,32.9z"/>
	<path d="M95.5,61.19c0.91-0.23,2.38-0.57,3.83-0.98c0.46-0.13,0.89-0.44,1.36-0.15c0.46,0.29,0.89,0.64,1.33,0.97
		c-0.37,0.38-0.69,0.87-1.13,1.12c-1.4,0.79-2.93,1.25-4.53,1.46c-1.4,0.18-2.85,0.1-4.03,1.22c-0.34,0.32-1.25,0.21-1.83,0.04
		c-1.07-0.31-2.12-0.72-3.11-1.23c-4.75-2.46-8.04-6.21-9.73-11.32c-0.27-0.81-0.4-1.55,0.38-2.16c0.78-0.62,0.81-1.44,0.78-2.37
		c-0.08-2.43,0.4-4.77,1.65-6.89c0.35-0.6,0.92-0.56,1.29,0.06c0.4,0.66,0.44,1.34,0.26,2.07c-0.22,0.93-0.46,1.87-0.56,2.82
		c-0.57,5.37,1.74,9.45,5.87,12.61C89.54,60.15,92.1,61.02,95.5,61.19z"/>
	<path d="M105.97,121.68c-0.8,0-1.6,0-2.4,0c-0.69,0-1.23-0.33-1.65-0.84c-0.42-0.52-0.63-1.13-0.35-1.78
		c0.18-0.43,1.11-0.65,1.74-0.24c1.57,1.02,3.25,0.5,4.88,0.47c0.48-0.01,0.6-0.47,0.61-0.88c0.01-0.49-0.01-1.02-0.62-1.13
		c-0.54-0.1-1.11-0.09-1.67-0.1c-0.88-0.02-1.77,0.06-2.64-0.03c-1.51-0.16-2.33-0.94-2.52-2.43c-0.09-0.7-0.06-1.44,0.06-2.14
		c0.25-1.44,0.95-2.13,2.41-2.22c1.59-0.1,3.2-0.11,4.79,0c1.39,0.09,2.02,0.83,2.14,2.13c0.06,0.67-0.35,1.05-1.02,0.94
		c-0.16-0.03-0.37,0.01-0.46-0.08c-1.48-1.47-3.31-0.64-4.99-0.75c-0.58-0.04-0.78,0.44-0.81,0.98c-0.04,0.77,0.17,1.2,0.76,1.27
		c0.63,0.08,1.27,0.05,1.91,0.07c0.88,0.03,1.76,0.01,2.63,0.1c0.85,0.08,1.54,0.57,1.86,1.34c0.54,1.3,0.58,2.66-0.02,3.96
		c-0.43,0.91-1.12,1.52-2.27,1.42c-0.79-0.07-1.6-0.01-2.4-0.01C105.97,121.69,105.97,121.69,105.97,121.68z"/>
	<path d="M65.58,116.23c0,1.04,0.04,2.07-0.01,3.11c-0.08,1.45-0.8,2.27-2.19,2.32c-1.75,0.07-3.51,0.04-5.26-0.04
		c-1.17-0.05-1.96-0.78-2-1.96c-0.08-2.39-0.12-4.78-0.01-7.16c0.06-1.42,0.9-2.12,2.36-2.18c1.51-0.06,3.03-0.07,4.54,0.04
		c1.8,0.13,2.52,0.95,2.58,2.77c0.04,1.03,0.01,2.07,0.01,3.11C65.6,116.23,65.59,116.23,65.58,116.23z M63.65,115.95
		c-0.02-3.98,0.29-3.38-3.47-3.42c-0.4,0-0.8,0.01-1.2,0.03c-0.57,0.03-0.87,0.38-0.89,0.92c-0.04,1.67-0.06,3.34-0.05,5.02
		c0,0.56,0.4,0.83,0.94,0.87c0.4,0.03,0.8,0.04,1.19,0.04C63.95,119.4,63.62,119.85,63.65,115.95z"/>
	<path d="M88.57,116.87c0,1.35,0.01,2.7,0,4.05c0,0.48-0.31,0.7-0.76,0.72c-0.49,0.02-1.01,0.01-1.09-0.62
		c-0.11-0.79-0.12-1.58-0.22-2.37c-0.05-0.43-0.32-0.73-0.77-0.76c-0.55-0.03-1.11-0.04-1.67-0.03c-2.64,0.06-3.09-0.39-3.06,2.75
		c0.01,0.84-0.23,1.02-0.94,1.04c-0.54,0.01-0.95-0.16-0.97-0.76c-0.04-0.79-0.06-1.59-0.06-2.38c0-1.83-0.04-3.66,0.04-5.49
		c0.07-1.79,0.89-2.6,2.67-2.69c1.43-0.07,2.87-0.06,4.29,0.02c1.82,0.11,2.56,0.91,2.61,2.71c0.04,1.27,0.01,2.54,0.01,3.82
		C88.61,116.87,88.59,116.87,88.57,116.87z M84.11,112.54c0,0.01,0,0.01,0,0.02c-0.64,0-1.28,0-1.91,0
		c-0.67-0.01-1.04,0.32-1.1,0.99c-0.03,0.32-0.04,0.64-0.04,0.96c0.01,0.89,0.21,1.13,1.11,1.19c0.95,0.07,1.91,0.09,2.87,0.06
		c1.39-0.03,1.64-0.33,1.6-1.74c-0.03-1.26-0.21-1.44-1.57-1.48C84.75,112.53,84.43,112.54,84.11,112.54z"/>
	<path d="M72.99,121.68c-1.04,0-2.08,0.05-3.12-0.01c-1.38-0.09-2.26-0.91-2.31-2.26c-0.07-2.16-0.08-4.32,0-6.47
		c0.06-1.53,0.89-2.47,2.35-2.55c2.07-0.11,4.15-0.06,6.23-0.01c0.78,0.02,1.06,0.51,0.96,1.34c-0.06,0.45-0.29,0.75-0.75,0.77
		c-1.44,0.04-2.88,0.06-4.31,0.08c-2.37,0.04-2.39,0.04-2.35,2.43c0.02,1.2,0.05,2.4,0.11,3.59c0.02,0.45,0.31,0.72,0.77,0.75
		c0.56,0.03,1.12,0.05,1.68,0.05c1.2,0.01,2.4-0.03,3.6,0.01c1.07,0.03,1.38,0.44,1.27,1.52c-0.05,0.48-0.32,0.72-0.77,0.73
		c-1.12,0.02-2.24,0.01-3.36,0.01C72.99,121.66,72.99,121.67,72.99,121.68z"/>
	<path d="M48.68,118.09c0.58-1.08,1.12-2.05,1.63-3.03c0.66-1.28,1.3-2.56,1.94-3.85c0.34-0.68,0.91-0.82,1.6-0.78
		c0.57,0.04,0.82,0.45,0.6,1c-0.06,0.15-0.14,0.28-0.21,0.43c-1.46,2.92-2.93,5.84-4.35,8.78c-0.31,0.65-0.65,1.03-1.42,1.01
		c-0.66-0.01-1.01-0.32-1.28-0.86c-1.59-3.22-3.19-6.43-4.77-9.65c-0.2-0.41,0.07-0.77,0.54-0.8c0.96-0.06,1.69,0.21,2.11,1.18
		c0.54,1.24,1.15,2.46,1.78,3.66C47.35,116.15,47.73,117.21,48.68,118.09z"/>
	<path d="M95.34,121.65c-1.27,0-2.55,0.01-3.82,0c-0.57-0.01-0.88-0.32-0.88-0.89c-0.01-3.18-0.02-6.37-0.01-9.55
		c0-0.57,0.36-0.84,0.92-0.87c0.55-0.03,0.97,0.19,1.02,0.75c0.08,0.87,0.09,1.75,0.11,2.62c0.03,1.59,0.03,3.18,0.06,4.77
		c0.01,0.55,0.34,0.88,0.91,0.88c1.19,0.02,2.39,0.01,3.58,0.02c0.72,0.01,1.43,0,2.15,0.06c0.61,0.05,0.81,0.41,0.81,1.22
		c0,0.54-0.17,0.96-0.77,0.97C98.05,121.66,96.7,121.65,95.34,121.65z"/>
	<path d="M50.26,94.44c-0.18,0.34-0.26,0.58-0.42,0.74c-1.26,1.34-2.29,2.82-3.03,4.51c-0.12,0.27-0.37,0.63-0.61,0.67
		c-0.51,0.07-1.14,0.12-1.55-0.12c-0.29-0.17-0.41-0.83-0.39-1.26c0.02-0.45,0.2-0.96,0.46-1.33c1.05-1.48,2.15-2.93,3.26-4.37
		c0.36-0.46,0.84-0.4,1.24,0C49.6,93.65,49.93,94.06,50.26,94.44z"/>
</g>
<g id="EQ">
</g>
<g id="COMP">
</g>
<g id="FADER">
</g>
<g id="MUTE">
</g>
<g id="SOLO">
</g>
<g id="SETTINGS">
</g>
<g id="HELP">
</g>
<g id="PRESETS">
</g>
<g id="ANALYZE">
</g>
<g id="BYPASS">
</g>
</svg>
