<?xml version="1.0" encoding="utf-8"?>
<!-- Generator: Adobe Illustrator 28.0.0, SVG Export Plug-In . SVG Version: 6.00 Build 0)  -->
<svg version="1.1" xmlns="http://www.w3.org/2000/svg" xmlns:xlink="http://www.w3.org/1999/xlink" x="0px" y="0px"
	 viewBox="0 0 1040 236.02" style="enable-background:new 0 0 1040 236.02;" xml:space="preserve">
<g id="Layer_1">
</g>
<g id="Layer_3">
</g>
<g id="Layer_2">
</g>
<g id="Layer_4">
	<g>
		<g>
			<path d="M228.41,61.36c0.48,1.23,0.83,2.15,1.19,3.06c2.28,5.72,4.44,11.51,7.77,16.72c2.98,4.66,6.1,9.25,9.34,13.73
				c5.19,7.17,10.82,14.04,14.7,22.06c6.87,14.2,2.14,29.45-8.77,37.47c-11.22,8.24-23.55,9.59-36.62,5.46
				c-6.39-2.02-11.91-5.55-16.07-10.81c-7.83-9.9-9.09-20.74-3.94-32.28c2.72-6.1,6.72-11.39,10.69-16.69
				c5.03-6.72,10.24-13.3,14.16-20.77c2.73-5.2,4.82-10.65,6.78-16.16C227.82,62.66,228.05,62.19,228.41,61.36z M228.78,94.19
				c-1.77,2.63-3.25,4.95-4.86,7.18c-1.54,2.13-2.52,4.34-2.17,7.07c0.31,2.39-0.41,4.52-1.92,6.44c-1.52,1.93-2.92,3.97-4.27,6.02
				c-4.06,6.18-3.22,13.25,2.06,17.94c5.78,5.13,15.09,5.66,21.38,1.1c3.11-2.25,5.08-5.31,5.48-9.23c0.39-3.74-1.04-6.93-3.04-9.93
				c-2.21-3.33-4.39-6.69-6.78-9.89c-2-2.69-2.89-5.52-2.31-8.85c0.14-0.79,0.09-1.76-0.27-2.44
				C231.17,97.85,230.03,96.2,228.78,94.19z"/>
			<path d="M187.31,165.97c0.58-8.93,1.17-17.86,1.75-26.8c0.11-0.03,0.22-0.06,0.33-0.09c0.16,0.35,0.32,0.71,0.49,1.06
				c1.35,2.76,2.6,5.57,4.09,8.25c0.63,1.13,1.02,2.16,0.93,3.45c-0.49,7.53-0.87,15.07-1.42,22.6c-0.33,4.46-4.22,7.14-8.31,5.9
				c-1.63-0.49-2.98-1.42-3.59-3.01c-0.51-1.34-0.93-2.79-1.01-4.22c-0.95-17.31-1.83-34.62-2.71-51.93
				c-0.53-10.39-1.01-20.77-1.57-31.16c-0.23-4.3-0.61-8.58-1.2-12.87c-0.36,5.05-0.7,10.1-1.07,15.15
				c-0.84,11.52-1.71,23.04-2.55,34.56c-0.68,9.3-1.34,18.59-1.98,27.89c-0.13,1.95-0.46,3.83-1.56,5.49
				c-1.42,2.15-3.4,3.32-6.02,3.17c-2.61-0.15-4.23-1.77-5.28-3.94c-0.56-1.15-0.86-2.5-0.97-3.78c-0.71-8.44-1.35-16.89-1.97-25.34
				c-0.78-10.6-1.52-21.2-2.28-31.8c-0.03-0.35-0.09-0.71-0.52-1.1c-0.45,2.31-0.96,4.6-1.34,6.92c-1.69,10.1-3.36,20.2-5,30.31
				c-0.48,2.97-1.97,5.2-4.76,6.33c-4.34,1.76-8.91-0.98-9.61-5.71c-0.39-2.67-0.63-5.35-0.99-8.02c-0.42-3.21-0.87-6.41-1.36-9.61
				c-0.17-1.11-0.51-2.2-1.25-3.42c-0.3,0.54-0.69,1.05-0.89,1.62c-0.59,1.67-1.06,3.38-1.67,5.04c-1.9,5.19-5.71,8.05-11.14,8.25
				c-6.69,0.24-13.4,0.1-20.11,0.06c-2.02-0.01-2.95-1.17-2.95-3.31c0-2.08,1.01-3.27,3.01-3.28c6.09-0.05,12.17-0.02,18.26-0.03
				c4.39-0.01,6.1-1.27,7.38-5.44c0.5-1.62,0.89-3.28,1.54-4.83c1-2.38,2.7-4.09,5.32-4.73c3.13-0.77,6.41,0.63,7.74,3.57
				c0.62,1.38,0.98,2.92,1.22,4.42c0.85,5.4,1.58,10.82,2.38,16.22c0.12,0.8,0.33,1.58,0.91,2.4c0.29-1.09,0.66-2.16,0.86-3.26
				c0.94-5.15,1.88-10.3,2.75-15.46c1.14-6.83,2.2-13.68,3.33-20.52c0.3-1.85,0.93-3.57,2.33-4.93c3.11-3.03,7.64-2.54,9.83,1.22
				c0.67,1.16,1.12,2.57,1.23,3.9c0.68,8.29,1.21,16.59,1.82,24.89c0.78,10.6,1.6,21.2,2.41,31.79c0.03,0.34,0.18,0.67,0.7,1
				c0.07-0.94,0.12-1.88,0.2-2.82c1.32-17.28,2.66-34.56,3.95-51.84c0.71-9.52,1.32-19.06,2-28.58c0.09-1.22,0.26-2.45,0.52-3.65
				c0.69-3.16,3.05-5.05,6.06-4.93c3.17,0.12,5.52,2.15,5.89,5.41c0.4,3.52,0.65,7.05,0.84,10.59c0.64,12,1.22,24,1.82,36
				c0.84,16.85,1.68,33.7,2.53,50.55c0.04,0.81,0.18,1.61,0.28,2.42C187.04,165.99,187.18,165.98,187.31,165.97z"/>
			<path d="M199.65,101.12c-0.35-2.47-0.69-4.93-1.04-7.4c-0.14,0.01-0.29,0.02-0.43,0.02c-0.24,3.17-0.54,6.33-0.71,9.5
				c-0.08,1.6-0.57,2.97-1.48,4.28c-2.23,3.23-4.21,6.61-5.49,10.35c-0.06,0.19-0.29,0.32-0.58,0.63c0.32-5.54,0.6-10.88,0.94-16.22
				c0.22-3.53,0.47-7.05,0.77-10.58c0.15-1.76,0.27-3.54,0.68-5.24c0.63-2.62,2.74-4.32,5.21-4.52c2.45-0.19,5.23,1.33,6.21,3.61
				c1.21,2.8,1.35,5.81,1.42,8.81c0.01,0.36-0.13,0.79-0.35,1.07c-1.54,1.99-3.11,3.94-4.67,5.91
				C199.97,101.28,199.81,101.2,199.65,101.12z"/>
		</g>
		<g>
			<path d="M717.49,133.57c7.68,9.79,15.16,19.31,22.95,29.23c-1.44,0.13-2.36,0.28-3.28,0.29c-6.25,0.04-12.51-0.02-18.76,0.12
				c-2.02,0.05-3.19-0.77-4.33-2.31c-5.85-7.95-11.81-15.81-17.69-23.74c-0.85-1.14-1.73-1.78-3.24-1.77
				c-11.08,0.07-22.16,0.07-33.24,0.1c-0.42,0-0.84,0.13-1.64,0.26c0,8.95,0,17.88,0,27.25c-7.1,0.26-13.82,0.16-20.82,0.12
				c-0.09-1.27-0.23-2.22-0.22-3.17c0.21-24.35,0.43-48.71,0.64-73.06c0.01-1.54-0.02-3.07,0.04-4.61c0.1-2.47,0.64-3.06,3.08-3.35
				c0.98-0.12,1.97-0.09,2.96-0.1c19.75-0.02,39.49-0.01,59.24-0.08c4.86-0.02,9.62,0.58,14.32,1.75c8.74,2.18,14,7.92,16.15,16.46
				c1.62,6.45,1.73,13.02,0.38,19.57c-1.51,7.31-5.78,12.38-12.62,15.33C720.24,132.36,719.06,132.88,717.49,133.57z M658.37,118.17
				c0.6,0.16,0.81,0.27,1.02,0.27c14.92-0.01,29.83,0.01,44.74-0.11c1.91-0.02,3.9-0.64,5.7-1.36c2.51-1,4.06-3,4.22-5.78
				c0.12-2.18,0.19-4.39,0-6.56c-0.27-3.06-1.75-5.54-4.81-6.44c-2.49-0.73-5.12-1.33-7.69-1.36c-13.49-0.14-26.98-0.07-40.47-0.07
				c-0.85,0-1.69,0.13-2.72,0.21C658.37,104.12,658.37,111.07,658.37,118.17z"/>
			<path d="M627.19,163.11c-1.24,0-2.07,0-2.9,0c-5.38,0.03-10.76-0.15-16.12,0.16c-3.25,0.19-4.98-1-6.31-3.87
				c-1.8-3.87-4.16-7.47-6.08-11.29c-0.98-1.96-2.29-2.57-4.42-2.56c-17.88,0.07-35.77,0.08-53.65,0c-2.13-0.01-3.17,0.98-4.11,2.6
				c-2.42,4.18-4.97,8.27-7.32,12.49c-1.03,1.85-2.26,2.62-4.43,2.57c-6.47-0.14-12.94-0.05-19.53-0.05
				c-0.2-1.85,1.08-2.94,1.83-4.15c10.19-16.65,20.42-33.26,30.68-49.87c4.78-7.74,9.67-15.42,14.41-23.19
				c2.58-4.23,6.28-6.92,11.11-7.34c4.33-0.38,8.76-0.24,13.09,0.24c4.25,0.47,7.39,3.02,9.55,6.8
				c14.37,25.13,28.78,50.23,43.16,75.34C626.45,161.51,626.69,162.09,627.19,163.11z M584.77,128.63
				c-5.78-10.58-11.18-20.58-16.72-30.51c-1.51-2.71-3.05-2.51-4.74,0.3c-5.58,9.29-11.16,18.57-16.72,27.86
				c-0.42,0.69-0.69,1.47-1.09,2.35C558.58,128.63,571.33,128.63,584.77,128.63z"/>
			<path d="M397.32,78.78c-0.93,6.39-1.8,12.32-2.71,18.58c-1.54,0.06-2.93,0.15-4.32,0.15c-18.11,0.04-36.22,0.03-54.33,0.16
				c-2.71,0.02-5.49,0.42-8.1,1.13c-4.48,1.23-7.47,4.36-8.36,8.88c-1.68,8.5-3.18,17.03-4.4,25.61c-0.89,6.27,1.93,9.48,8.31,10.13
				c2.72,0.28,5.48,0.33,8.22,0.33c17.89,0.04,35.78,0.03,53.68,0.05c0.97,0,1.93,0.09,3.38,0.16c-0.88,6.45-1.72,12.66-2.58,19.01
				c-1.32,0.07-2.29,0.16-3.26,0.16c-18.44,0.01-36.88,0.03-55.32,0.01c-6.27-0.01-12.48-0.49-18.52-2.46
				c-12.32-4.01-16.26-13.77-14.85-24.3c1.33-9.99,3.16-19.92,4.95-29.85c1.08-6,3.21-11.63,7.19-16.4
				c5.21-6.23,12.17-9.24,19.97-10.42c3.78-0.57,7.64-0.84,11.46-0.86c18.44-0.1,36.88-0.06,55.32-0.07
				C394.33,78.78,395.62,78.78,397.32,78.78z"/>
			<path d="M820.38,97.47c-12.55,0-24.68,0-37.17,0c-0.41-6.28-0.79-12.24-1.19-18.45c31.46,0,62.55,0,94.03,0
				c0.63,6.07,1.25,12.01,1.91,18.42c-12.59,0.27-24.82-0.13-37.31,0.19c1.96,21.9,4.85,43.38,6.1,65.29c-7.07,0-13.69,0-20.66,0
				C824.19,141.2,822.31,119.62,820.38,97.47z"/>
			<path d="M411.4,79c6.58,0,13.1,0,19.99,0c-0.48,4.24-0.9,8.25-1.4,12.24c-1.62,12.84-3.32,25.68-4.89,38.53
				c-0.32,2.6-0.34,5.25-0.24,7.87c0.11,2.71,1.69,4.56,4.32,5.15c2.23,0.5,4.54,0.84,6.82,0.88c8.56,0.11,17.12,0.09,25.69,0.09
				c10.1,0,20.2-0.04,30.3-0.05c0.75,0,1.5,0.09,2.6,0.17c-0.23,6.45-0.97,12.68-1.61,19.06c-1.14,0.1-1.99,0.24-2.84,0.24
				c-18.77,0.01-37.54,0.01-56.31,0.02c-5.74,0-11.39-0.6-16.84-2.54c-8.09-2.88-12.48-8.7-13.15-17.18
				c-0.27-3.37-0.16-6.82,0.25-10.17c1.33-10.89,2.88-21.75,4.32-32.63c0.9-6.74,1.75-13.49,2.64-20.24
				C411.1,80.02,411.24,79.61,411.4,79z"/>
			<path d="M942.83,118.89c2.43-3.81,4.69-7.3,6.89-10.81c5.53-8.84,11.1-17.65,16.49-26.57c1.25-2.07,2.61-2.81,4.98-2.74
				c5.48,0.16,10.98,0.03,16.46,0.01c1.06,0,2.11,0,3.72,0c-0.88,1.51-1.43,2.54-2.07,3.51c-8.49,12.8-16.98,25.6-25.49,38.39
				c-2.55,3.84-5.11,7.67-7.75,11.45c-1,1.43-1.4,2.75-1.1,4.57c1.24,7.58,2.27,15.19,3.36,22.79c0.14,0.96,0.12,1.94,0.18,2.84
				c-2.41,0.95-16.02,1.2-20.32,0.36c-0.45-2.86-0.94-5.86-1.4-8.87c-0.87-5.75-1.78-11.49-2.52-17.25
				c-0.21-1.65-0.92-2.8-1.99-3.98c-15.33-16.92-30.61-33.87-45.9-50.82c-0.64-0.71-1.19-1.52-2.05-2.63
				c1.05-0.15,1.74-0.32,2.43-0.33c6.15-0.04,12.3,0.02,18.44-0.12c2.1-0.05,3.39,0.78,4.72,2.33
				c10.41,12.18,20.91,24.29,31.39,36.41C941.62,117.84,942.05,118.17,942.83,118.89z"/>
			<path d="M769.51,79.23c1.56,27.79,3.12,55.47,4.69,83.42c-1.06,0.18-1.87,0.44-2.69,0.45c-5.27,0.05-10.53,0.08-15.8,0.06
				c-2.57-0.01-2.72-0.2-2.85-2.84c-1.12-23.78-2.23-47.55-3.35-71.33c-0.15-3.17-0.34-6.34-0.5-9.45
				C751.4,78.66,765.03,78.43,769.51,79.23z"/>
		</g>
	</g>
</g>
</svg>
