<?xml version="1.0" encoding="utf-8"?>
<!-- Generator: Adobe Illustrator 28.0.0, SVG Export Plug-In . SVG Version: 6.00 Build 0)  -->
<svg version="1.1" xmlns="http://www.w3.org/2000/svg" xmlns:xlink="http://www.w3.org/1999/xlink" x="0px" y="0px"
	 viewBox="0 0 352.15 324" style="enable-background:new 0 0 352.15 324;" xml:space="preserve">
<g id="Layer_1">
</g>
<g id="Layer_3">
	<g>
		<path d="M262.87,61.18c0.81,2.09,1.4,3.64,2.01,5.19c3.86,9.7,7.53,19.52,13.17,28.35c5.05,7.91,10.34,15.68,15.84,23.28
			c8.8,12.15,18.34,23.8,24.92,37.4c11.64,24.07,3.63,49.93-14.88,63.52c-19.02,13.97-39.92,16.26-62.08,9.26
			c-10.83-3.42-20.19-9.41-27.24-18.33c-13.27-16.79-15.4-35.16-6.68-54.73c4.61-10.34,11.4-19.31,18.12-28.29
			c8.53-11.39,17.35-22.55,24.01-35.21c4.63-8.81,8.18-18.05,11.5-27.4C261.86,63.38,262.26,62.58,262.87,61.18z M263.49,116.83
			c-3,4.45-5.52,8.39-8.25,12.18c-2.6,3.61-4.27,7.36-3.68,11.98c0.52,4.05-0.69,7.66-3.25,10.93c-2.57,3.28-4.94,6.72-7.23,10.21
			c-6.88,10.48-5.46,22.47,3.5,30.42c9.8,8.7,25.58,9.6,36.25,1.87c5.27-3.82,8.61-9,9.3-15.65c0.66-6.34-1.77-11.76-5.15-16.84
			c-3.75-5.64-7.44-11.34-11.49-16.77c-3.39-4.56-4.89-9.36-3.92-15c0.23-1.33,0.15-2.99-0.45-4.14
			C267.55,123.03,265.62,120.24,263.49,116.83z"/>
		<path d="M193.19,238.53c0.99-15.14,1.98-30.29,2.97-45.43c0.19-0.05,0.38-0.1,0.56-0.15c0.28,0.6,0.54,1.2,0.83,1.79
			c2.28,4.68,4.4,9.45,6.94,13.98c1.07,1.92,1.72,3.67,1.58,5.84c-0.82,12.77-1.48,25.56-2.41,38.32c-0.55,7.57-7.15,12.1-14.09,10
			c-2.76-0.83-5.06-2.4-6.09-5.11c-0.87-2.28-1.58-4.74-1.71-7.15c-1.6-29.34-3.1-58.69-4.6-88.03c-0.9-17.61-1.72-35.22-2.67-52.82
			c-0.39-7.28-1.03-14.55-2.03-21.82c-0.6,8.56-1.19,17.13-1.82,25.69c-1.43,19.53-2.9,39.06-4.32,58.6
			c-1.15,15.76-2.27,31.52-3.35,47.29c-0.23,3.31-0.78,6.49-2.64,9.3c-2.41,3.65-5.76,5.63-10.21,5.38
			c-4.42-0.25-7.18-3.01-8.95-6.68c-0.94-1.95-1.45-4.23-1.64-6.41c-1.2-14.31-2.28-28.64-3.34-42.96
			c-1.32-17.97-2.58-35.94-3.87-53.92c-0.04-0.6-0.16-1.2-0.88-1.87c-0.76,3.91-1.62,7.8-2.28,11.73
			c-2.86,17.12-5.7,34.25-8.48,51.38c-0.82,5.04-3.34,8.81-8.07,10.74c-7.35,2.99-15.11-1.66-16.29-9.68
			c-0.67-4.52-1.07-9.07-1.67-13.6c-0.72-5.43-1.47-10.87-2.31-16.28c-0.29-1.89-0.86-3.73-2.12-5.79
			c-0.51,0.91-1.17,1.78-1.51,2.75c-1,2.83-1.8,5.73-2.83,8.54c-3.22,8.79-9.67,13.65-18.9,13.98c-11.35,0.4-22.72,0.17-34.09,0.1
			c-3.43-0.02-5.01-1.98-5-5.61c0-3.53,1.71-5.54,5.1-5.57c10.32-0.08,20.64-0.03,30.96-0.05c7.44-0.01,10.34-2.16,12.51-9.22
			c0.84-2.74,1.5-5.56,2.61-8.18c1.7-4.03,4.58-6.93,9.01-8.02c5.31-1.31,10.86,1.07,13.12,6.05c1.06,2.34,1.66,4.95,2.06,7.5
			c1.44,9.15,2.68,18.34,4.03,27.51c0.2,1.35,0.57,2.68,1.54,4.07c0.5-1.84,1.12-3.66,1.47-5.53c1.6-8.73,3.19-17.46,4.66-26.21
			c1.94-11.59,3.74-23.2,5.65-34.79c0.52-3.13,1.58-6.05,3.94-8.35c5.28-5.14,12.96-4.3,16.66,2.07c1.14,1.96,1.91,4.36,2.09,6.62
			c1.15,14.05,2.05,28.13,3.09,42.19c1.33,17.97,2.71,35.94,4.09,53.9c0.04,0.58,0.31,1.14,1.18,1.7c0.11-1.59,0.21-3.19,0.33-4.78
			c2.23-29.29,4.51-58.59,6.69-87.88c1.2-16.15,2.24-32.31,3.4-48.46c0.15-2.08,0.44-4.16,0.88-6.19c1.17-5.35,5.18-8.56,10.28-8.36
			c5.38,0.2,9.35,3.65,9.99,9.17c0.68,5.96,1.1,11.96,1.42,17.95c1.08,20.34,2.06,40.69,3.08,61.04c1.43,28.57,2.84,57.13,4.28,85.7
			c0.07,1.37,0.31,2.74,0.48,4.1C192.74,238.56,192.96,238.54,193.19,238.53z"/>
		<path d="M214.11,128.58c-0.59-4.18-1.18-8.36-1.76-12.54c-0.24,0.01-0.49,0.03-0.73,0.04c-0.41,5.37-0.92,10.73-1.2,16.11
			c-0.14,2.71-0.97,5.04-2.5,7.25c-3.79,5.48-7.13,11.21-9.31,17.55c-0.11,0.32-0.49,0.54-0.98,1.07c0.54-9.39,1.03-18.45,1.59-27.5
			c0.37-5.98,0.8-11.96,1.3-17.93c0.25-2.98,0.46-6,1.16-8.89c1.07-4.45,4.65-7.33,8.83-7.66c4.16-0.33,8.86,2.25,10.53,6.11
			c2.05,4.75,2.29,9.85,2.41,14.94c0.01,0.61-0.23,1.34-0.6,1.82c-2.6,3.37-5.27,6.69-7.92,10.02
			C214.65,128.84,214.38,128.71,214.11,128.58z"/>
	</g>
</g>
<g id="Layer_2">
</g>
<g id="Layer_4">
</g>
</svg>
