<?xml version="1.0" encoding="utf-8"?>
<!-- Generator: Adobe Illustrator 28.0.0, SVG Export Plug-In . SVG Version: 6.00 Build 0)  -->
<svg version="1.1" xmlns="http://www.w3.org/2000/svg" xmlns:xlink="http://www.w3.org/1999/xlink" x="0px" y="0px"
	 viewBox="0 0 816 227.34" style="enable-background:new 0 0 816 227.34;" xml:space="preserve">
<g id="Layer_1">
</g>
<g id="Layer_3">
</g>
<g id="Layer_2">
	<g>
		<path d="M482.87,126.4c7.68,9.79,15.16,19.31,22.95,29.23c-1.44,0.13-2.36,0.28-3.28,0.29c-6.25,0.04-12.51-0.02-18.76,0.12
			c-2.02,0.05-3.19-0.77-4.33-2.31c-5.85-7.95-11.81-15.81-17.69-23.74c-0.85-1.14-1.73-1.78-3.24-1.77
			c-11.08,0.07-22.16,0.07-33.24,0.1c-0.42,0-0.84,0.13-1.64,0.26c0,8.95,0,17.88,0,27.25c-7.1,0.26-13.82,0.16-20.82,0.12
			c-0.09-1.27-0.23-2.22-0.22-3.17c0.21-24.35,0.43-48.71,0.64-73.06c0.01-1.54-0.02-3.07,0.04-4.61c0.1-2.47,0.64-3.06,3.08-3.35
			c0.98-0.12,1.97-0.09,2.96-0.1c19.75-0.02,39.49-0.01,59.24-0.08c4.86-0.02,9.62,0.58,14.32,1.75c8.74,2.18,14,7.92,16.15,16.46
			c1.62,6.45,1.73,13.02,0.38,19.57c-1.51,7.31-5.78,12.38-12.62,15.33C485.62,125.19,484.45,125.71,482.87,126.4z M423.76,111.01
			c0.6,0.16,0.81,0.27,1.02,0.27c14.92-0.01,29.83,0.01,44.74-0.11c1.91-0.02,3.9-0.64,5.7-1.36c2.51-1,4.06-3,4.22-5.78
			c0.12-2.18,0.19-4.39,0-6.56c-0.27-3.06-1.75-5.54-4.81-6.44c-2.49-0.73-5.12-1.33-7.69-1.36c-13.49-0.14-26.98-0.07-40.47-0.07
			c-0.85,0-1.69,0.13-2.72,0.21C423.76,96.96,423.76,103.91,423.76,111.01z"/>
		<path d="M392.57,155.95c-1.24,0-2.07,0-2.9,0c-5.38,0.03-10.76-0.15-16.12,0.16c-3.25,0.19-4.98-1-6.31-3.87
			c-1.8-3.87-4.16-7.47-6.08-11.29c-0.98-1.96-2.29-2.57-4.42-2.56c-17.88,0.07-35.77,0.08-53.65,0c-2.13-0.01-3.17,0.98-4.11,2.6
			c-2.42,4.18-4.97,8.27-7.32,12.49c-1.03,1.85-2.26,2.62-4.43,2.57c-6.47-0.14-12.94-0.05-19.53-0.05
			c-0.2-1.85,1.08-2.94,1.83-4.15c10.19-16.65,20.42-33.26,30.68-49.87c4.78-7.74,9.67-15.42,14.41-23.19
			c2.58-4.23,6.28-6.92,11.11-7.34c4.33-0.38,8.76-0.24,13.09,0.24c4.25,0.47,7.39,3.02,9.55,6.8
			c14.37,25.13,28.78,50.23,43.16,75.34C391.83,154.35,392.07,154.93,392.57,155.95z M350.15,121.47
			c-5.78-10.58-11.18-20.58-16.72-30.51c-1.51-2.71-3.05-2.51-4.74,0.3c-5.58,9.29-11.16,18.57-16.72,27.86
			c-0.42,0.69-0.69,1.47-1.09,2.35C323.97,121.47,336.72,121.47,350.15,121.47z"/>
		<path d="M162.71,71.62c-0.93,6.39-1.8,12.32-2.71,18.58c-1.54,0.06-2.93,0.15-4.32,0.15c-18.11,0.04-36.22,0.03-54.33,0.16
			c-2.71,0.02-5.49,0.42-8.1,1.13c-4.48,1.23-7.47,4.36-8.36,8.88c-1.68,8.5-3.18,17.03-4.4,25.61c-0.89,6.27,1.93,9.48,8.31,10.13
			c2.72,0.28,5.48,0.33,8.22,0.33c17.89,0.04,35.78,0.03,53.68,0.05c0.97,0,1.93,0.09,3.38,0.16c-0.88,6.45-1.72,12.66-2.58,19.01
			c-1.32,0.07-2.29,0.16-3.26,0.16c-18.44,0.01-36.88,0.03-55.32,0.01c-6.27-0.01-12.48-0.49-18.52-2.46
			c-12.32-4.01-16.26-13.77-14.85-24.3c1.33-9.99,3.16-19.92,4.95-29.85c1.08-6,3.21-11.63,7.19-16.4
			c5.21-6.23,12.17-9.24,19.97-10.42c3.78-0.57,7.64-0.84,11.46-0.86c18.44-0.1,36.88-0.06,55.32-0.07
			C159.71,71.62,161,71.62,162.71,71.62z"/>
		<path d="M585.76,90.31c-12.55,0-24.68,0-37.17,0c-0.41-6.28-0.79-12.24-1.19-18.45c31.46,0,62.55,0,94.03,0
			c0.63,6.07,1.25,12.01,1.91,18.42c-12.59,0.27-24.82-0.13-37.31,0.19c1.96,21.9,4.85,43.38,6.1,65.29c-7.07,0-13.69,0-20.66,0
			C589.57,134.04,587.69,112.46,585.76,90.31z"/>
		<path d="M176.78,71.84c6.58,0,13.1,0,19.99,0c-0.48,4.24-0.9,8.25-1.4,12.24c-1.62,12.84-3.32,25.68-4.89,38.53
			c-0.32,2.6-0.34,5.25-0.24,7.87c0.11,2.71,1.69,4.56,4.32,5.15c2.23,0.5,4.54,0.84,6.82,0.88c8.56,0.11,17.12,0.09,25.69,0.09
			c10.1,0,20.2-0.04,30.3-0.05c0.75,0,1.5,0.09,2.6,0.17c-0.23,6.45-0.97,12.68-1.61,19.06c-1.14,0.1-1.99,0.24-2.84,0.24
			c-18.77,0.01-37.54,0.01-56.31,0.02c-5.74,0-11.39-0.6-16.84-2.54c-8.09-2.88-12.48-8.7-13.15-17.18
			c-0.27-3.37-0.16-6.82,0.25-10.17c1.33-10.89,2.88-21.75,4.32-32.63c0.9-6.74,1.75-13.49,2.64-20.24
			C176.48,72.86,176.62,72.45,176.78,71.84z"/>
		<path d="M708.21,111.73c2.43-3.81,4.69-7.3,6.89-10.81c5.53-8.84,11.1-17.65,16.49-26.57c1.25-2.07,2.61-2.81,4.98-2.74
			c5.48,0.16,10.98,0.03,16.46,0.01c1.06,0,2.11,0,3.72,0c-0.88,1.51-1.43,2.54-2.07,3.51c-8.49,12.8-16.98,25.6-25.49,38.39
			c-2.55,3.84-5.11,7.67-7.75,11.45c-1,1.43-1.4,2.75-1.1,4.57c1.24,7.58,2.27,15.19,3.36,22.79c0.14,0.96,0.12,1.94,0.18,2.84
			c-2.41,0.95-16.02,1.2-20.32,0.36c-0.45-2.86-0.94-5.86-1.4-8.87c-0.87-5.75-1.78-11.49-2.52-17.25c-0.21-1.65-0.92-2.8-1.99-3.98
			c-15.33-16.92-30.61-33.87-45.9-50.82c-0.64-0.71-1.19-1.52-2.05-2.63c1.05-0.15,1.74-0.32,2.43-0.33
			c6.15-0.04,12.3,0.02,18.44-0.12c2.1-0.05,3.39,0.78,4.72,2.33c10.41,12.18,20.91,24.29,31.39,36.41
			C707,110.68,707.43,111.01,708.21,111.73z"/>
		<path d="M534.89,72.07c1.56,27.79,3.12,55.47,4.69,83.42c-1.06,0.18-1.87,0.44-2.69,0.45c-5.27,0.05-10.53,0.08-15.8,0.06
			c-2.57-0.01-2.72-0.2-2.85-2.84c-1.12-23.78-2.23-47.55-3.35-71.33c-0.15-3.17-0.34-6.34-0.5-9.45
			C516.79,71.5,530.41,71.27,534.89,72.07z"/>
	</g>
</g>
<g id="Layer_4">
</g>
</svg>
